<?xml version="1.0" encoding="UTF-8"?>
<svg id="Calque_1" xmlns="http://www.w3.org/2000/svg" version="1.1" viewBox="0 0 1751.02 421.07">
  <!-- Generator: Adobe Illustrator 29.1.0, SVG Export Plug-In . SVG Version: 2.1.0 Build 142)  -->
  <defs>
    <style>
      .st0 {
        fill: #fff;
      }

      .st1 {
        fill: #bde2f4;
      }
    </style>
  </defs>
  <g>
    <g>
      <path class="st0" d="M1537.78,82.45c-63.81,0-120.91,28.17-159.98,72.59-23.56-37.17-64.96-61.93-112.23-61.93-3.2,0-6.32.26-9.46.48C1229.89,38.32,1173.74,0,1108.5,0c-90.28,0-163.47,73.19-163.47,163.47,0,15.07,2.21,29.59,6.02,43.45-38.72.71-71.85,24.07-86.75,57.41-21.06-11.27-45.1-17.7-70.66-17.7-82.82,0-149.97,67.14-149.97,149.97,0,7.26.69,14.34,1.69,21.32h1066.98c24.3-34.63,38.68-76.73,38.68-122.25,0-117.76-95.46-213.22-213.22-213.22h-.02Z"/>
      <path class="st1" d="M1660.57,121.41c14.2,25.7,22.36,55.53,22.36,87.38,0,96.31-74.31,174.38-165.98,174.38-61.15,0-114.54-34.77-143.33-86.48-17.15,38.53-54.27,65.29-97.43,65.29-50.71,0-93.11-36.89-104.5-86.49-19.11,9.84-40.59,15.38-63.3,15.38-25.92,0-50.22-7.23-71.24-19.82-1.11,36.89-31.29,66.48-68.45,66.48-10.45,0-20.32-2.41-29.18-6.59-22.28,33.04-60.05,54.77-102.9,54.77-65.62,0-119.3-50.97-123.7-115.47-41.63,26.65-69.25,73.27-69.25,126.36,0,7.26.69,14.34,1.69,21.32h1066.98c24.3-34.63,38.68-76.73,38.68-122.25,0-72.03-35.75-135.67-90.44-174.27h-.01Z"/>
    </g>
    <path class="st0" d="M860.81,101.45c-2.54,0-5.02.25-7.42.71-6.95-15.01-22.15-25.43-39.78-25.43-23.08,0-41.98,17.84-43.69,40.48-18.41.51-33.24,15.3-33.83,33.69h162.73c.86-3.23,1.32-6.62,1.32-10.11,0-21.72-17.61-39.33-39.33-39.33h0Z"/>
  </g>
  <g>
    <path class="st0" d="M950.63,360.48c0-66.2-59.28-119.87-132.41-119.87-22.7,0-44.05,5.19-62.72,14.29-16.34-31.29-48.3-54.55-86.87-61.37-18.17-92.02-106.82-161.93-213.69-161.93s-204.18,76.76-215.95,175.35c-24.03-13.65-52.36-21.67-82.81-21.67C69.93,185.28,0,248.58,0,326.66c0,35.27,14.36,67.44,37.95,92.21h664.69c.46.75.99,1.45,1.47,2.19-.12-.73-.23-1.46-.37-2.19h230.06c10.68-17.29,16.83-37.18,16.83-58.4h-.01Z"/>
    <path class="st1" d="M950.63,360.48c0-31.55-13.48-60.23-35.49-81.64-7.25,53.41-52.92,94.61-108.32,94.61-44.26,0-82.29-26.32-99.53-64.12-16.8,11.65-37.16,18.52-59.16,18.52-23.3,0-44.74-7.76-62.08-20.71-34.15,35.25-81.95,57.19-134.91,57.19-60.33,0-113.99-28.47-148.36-72.68-21.56,40.01-63.83,67.21-112.47,67.21-70.51,0-127.68-57.16-127.68-127.68,0-6.33.48-12.54,1.37-18.62C25.21,238.28,0,279.8,0,326.67c0,35.27,14.36,67.44,37.94,92.21h664.69c.46.75.99,1.45,1.47,2.19-.12-.73-.23-1.46-.37-2.19h230.06c10.68-17.29,16.83-37.18,16.83-58.4h.01Z"/>
  </g>
</svg>