<?xml version="1.0" encoding="UTF-8"?>
<svg id="Calque_2" data-name="Calque 2" xmlns="http://www.w3.org/2000/svg" viewBox="0 0 381.12 695.53">
  <defs>
    <style>
      .cls-1 {
        opacity: .33;
      }

      .cls-2 {
        stroke: #000;
      }

      .cls-2, .cls-3 {
        stroke-miterlimit: 10;
        stroke-width: 5px;
      }

      .cls-4 {
        fill: #a17d6f;
      }

      .cls-5 {
        fill: #fe0002;
      }

      .cls-6 {
        fill: #c2f1ff;
      }

      .cls-6, .cls-7 {
        opacity: .2;
      }

      .cls-8 {
        fill: #e6e7e9;
      }

      .cls-9 {
        fill: #d5ccc7;
      }

      .cls-3 {
        fill: #91d3e8;
        stroke: #fe0002;
      }

      .cls-10 {
        opacity: .1;
      }

      .cls-11 {
        fill: #fdfdfd;
      }
    </style>
  </defs>
  <path class="cls-2" d="M125.09,569.65l-16.79,24.83s-49.15,30.9-54.16,96.19H19.56s-66.86-209.37,64.13-286.19l41.39,165.18Z"/>
  <path class="cls-2" d="M256.04,572.02l16.79,24.83s49.15,30.9,54.16,96.19h34.57s66.86-209.37-64.13-286.19l-41.39,165.18Z"/>
  <path class="cls-8" d="M190.92,0S-8.28,302.7,119.82,577.87l14.07,27.05h125.22S414.72,282.17,190.92,0Z"/>
  <path class="cls-5" d="M131.99,116.71h130.64S229.86,45.25,190.92,0c0,0-48.07,78.16-58.92,116.71Z"/>
  <path class="cls-10" d="M190.92,0v605.44l68.19-.52S415.44,270.53,190.92,0Z"/>
  <path class="cls-3" d="M251.34,270.53c0,15.97-6.32,30.46-16.59,41.11-8.17,8.5-18.87,14.56-30.88,16.97h-.01c-.21.01-.43.03-.64.05-7.79.15-15.93-.41-23.8-.24-8.36-1.82-16.06-5.4-22.68-10.35-14.5-10.8-23.88-28.07-23.88-47.54,0-32.71,26.52-59.24,59.24-59.24s59.24,26.53,59.24,59.24Z"/>
  <g class="cls-1">
    <path class="cls-4" d="M234.02,304.46c-.98-5.38-7.84-11.96-13.54-10.07-.47.16-1.99.77-1.56,1.46.06.09,1.79.26,2.17.35,6.42,1.6,11.34,10.02,6.71,15.81-.61.76-2.44,1.96-3.39,1.96h-1.81c1.09-3.41.93-7.38-1.25-10.32-1.33-1.81-3.81-3.66-6.12-3.86-.63-.06-1.66.23-2.13.07-.03-.01-.46-.54-.47-.58-.65-1.84-.43-3.35-.52-5.22-.05-1.23-.28-2.46-.21-3.7.11-1.72.98-3.14,1.23-4.84.72-5.08-1.56-7.35-3.71-11.4-1.25-2.37-2.62-5.2-2.66-7.93,0-.21-.02-.44.16-.58,3.43-1.4,6.71-3.37,8.96-6.38.08,0,1.03.74,1.18.87,1,.82,1.82,1.77,2.88,2.53-.38-.53-.8-.97-1.29-1.44-.32-.33-2.48-2.14-2.49-2.31.51-.95,1.18-1.85,1.41-2.93.28-.26,5.48,3.59,6.01,4.02.24.19.97.96,1.14,1.03.12.06.2-.03.16-.15-.06-.12-1.09-1.02-1.3-1.18-1.78-1.51-3.73-2.92-5.79-4.03.2-1.18.53-2.37.5-3.59,3.97.62,7.81,1.6,11.45,3.31.27.12.67.43.85.5.19.08.19-.17.15-.2-.01-.01-.16.02-.3-.07-.64-.45-1.46-.85-2.19-1.18-3.13-1.4-6.58-2.2-9.95-2.65l-.2-2.47c3.06-.11,6.07.06,9.07.64.71.14,1.46.43,2.13.55.15.02.25.12.21-.11-3.66-1.43-7.72-1.52-11.61-1.51-.3-1.11-1.13-1.96-1.58-3-.39-.9-.54-1.9-.9-2.81,1.31-2.4,2.32-5.42,1.08-8.07-1.14-2.4-4.4-3.22-6.59-1.76-3.36-3.68-7.99-5.86-12.89-6.65-.82-.14-1.69-.12-2.49-.34h-6.27l-.17.1c-5.71.42-11.16,2.1-15.59,5.77-.2.17-1.06,1.09-1.18,1.12-.17.03-.45-.27-.64-.35-3.26-1.23-6.38.76-6.59,4.22-.14,2.08.61,3.92,1.49,5.72-.43,1.05-.53,2.29-.87,3.34-.32.99-1.14,1.83-1.5,2.82-.07.12-.18.1-.29.11-1.03.12-2.41-.06-3.51,0-1.96.08-4.05.3-5.94.85-.49.14-.95.33-1.42.49-.02.18.24.1.35.09.74-.09,1.64-.44,2.4-.58,2.71-.49,5.61-.52,8.36-.54-.17.77-.21,1.58-.21,2.36-2.46.43-4.91,1.04-7.28,1.83-1.25.43-2.65.9-3.72,1.67.9-.14,1.76-.62,2.62-.93,2.74-.95,5.55-1.67,8.4-2.26.01,1.23.42,2.38.6,3.59-2.26,1.38-5.38,2.84-7.09,4.9-.09.11-.25.17-.2.36.08.08.47-.24.56-.32.53-.42,1.03-.95,1.6-1.38.56-.41,4.99-3.32,5.29-3.25l1.58,2.83c-1.58,1.28-3.25,2.53-4.47,4.16-.1.14-.19.2-.15.42l2.65-2.57c.35-.19,1.97-1.68,2.22-1.64,2.27,2.78,5.26,4.78,8.56,6.15.12.12.24.8.24,1,.11,5.59-6.24,11.3-6.68,16.76-.21,2.63.74,4.03,1.11,6.41.27,1.79-.06,2.93-.56,4.63-.34,1.15-1.77,5.16-2.81,5.63-.27.12-.65.01-.96.07-3.73.6-6.96,2.97-8.01,6.69-.79,2.76-.74,6.05.3,8.85,6.62,4.94,14.32,8.53,22.68,10.35,7.86-.17,16.01.38,23.8.24.21-.01.43-.03.64-.05h.01c12.02-2.41,22.71-8.47,30.88-16.97v-.89l-.73-3.54ZM203.45,236.57c2.93.71,3.81,6.1,2.58,8.45-1.11-.06-2.38.77-3.43.74-1.05-.01-2.27-.74-3.36-.79-1.43-2.82.07-9.4,4.21-8.41ZM177.7,236.5c3.86-.33,5.09,5.75,3.75,8.53-1.49.12-2.7.85-4.23.6-.38-.06-.8-.21-1.13-.3-.51-.12-.96-.35-1.51-.29-.15-.53-.32-1.07-.39-1.61-.35-2.37.58-6.68,3.52-6.92ZM165.84,258.87c0-.23,3.25-2.29,3.71-2.54,1.75-.93,4.56-2.01,6.52-2.2.9-.1,1.88-.33,2.97-.25.35.02.64.33.56-.2-2.67-.26-5.47.41-7.96,1.35-1.62.63-3.09,1.49-4.52,2.47-.33.21-1.24,1.02-1.47,1.11-.18.07-.14-.07-.18-.12-.32-.45-1.44-2.32-1.3-2.79.16-.51,4.6-1.97,5.34-2.18,2.89-.79,5.96-1.31,8.95-1.08v-.3c-4.94-.24-9.85,1.03-14.3,3.08-.12-.49.01-3.25.3-3.44,2.71-.52,5.51-.44,8.24-.16v-.3c-2.71-.27-5.43-.27-8.12.1-.24-.21.9-1.92,1.3-2.03.33-.1,1.7.05,2.14.08,1.3.1,2.71.26,3.99.42,2.03.26,4.04.6,6.04,1.02-.01-.08.02-.28,0-.3-.07-.07-1.59-.33-1.83-.37-3.11-.6-6.39-.87-9.55-1.06-.17.07-.2-.16-.15-.21.07-.07,1.33-.42,1.53-.46,1-.2,2.43-.23,3.45-.15.38.02,2.03.49,2.11.41.2-.19-.43-.23-.2-.41.06-.06,1.31-.18,1.56-.24.6-.14,1.23-.29,1.81-.46,3.13-.91,5.94-3.19,9.41-2.26.45.11,1.08.49,1.47.5.63,0,1.65-.29,2.37-.33.77-.03,1.7.17,2.37.11.56-.05,1.34-.39,1.99-.5,3.95-.58,7.96,1.68,11.75,2.71.8.21,1.64.49,2.47.46l-.72.51c1.9-.23,3.88-.61,5.74-.02l.74.33c-2.65.24-5.43.29-8.06.76-.64.11-1.55.27-2.13.54-.26.11-.59.18-.52.56.47-.23.94-.44,1.44-.58.55-.15,1.24-.25,1.82-.34,2.6-.41,5.26-.45,7.88-.71.37.03,1.95,1.83,1.73,2.03-1.75-.07-3.49-.38-5.25-.3v.3l5.36.35c.28.2.32,2.88.29,3.35-4.01-1.83-8.32-3.18-12.81-2.98l-.87.26c.14.21.24.11.41.1,1.61-.06,3.16-.06,4.76.18,2.92.44,5.74,1.51,8.4,2.76.2,1.29-.2,2.34-1.06,3.27-3.89-2.96-8.61-5.34-13.63-5.13v.3c3.99-.18,7.91,1.42,11.24,3.52.49.3,1.75,1.06,2.08,1.42.08.07.18.11.15.24-.02.14-1.5,1.76-1.74,1.97-7.85,7.28-23.79,8.09-33.73,5.85-5.28-1.2-10.96-3.61-14.3-8.01ZM203.43,309.55c-1.52,5.2-3.27,10-6.5,14.39-.17.24-1.09,1.49-1.22,1.57-.14.08-.25.11-.41.1h-10.38c-3.02-2.53-5.01-6.06-6.5-9.68-2.8-6.82-4.28-14.45-3.54-21.85.02-.16.05-.61.24-.58.65.16,1.33.42,2.02.56.8.17,2,.24,2.7.49.54.18,1.16.74,1.81.98,1.88.7,4.75.53,5.94-1.32.37-.6.24-1.07.42-1.44.07-.15.58-.38.73-.54.51-.52.86-1.57.87-2.28,0-.39-.21-.88-.19-1.12.03-.32.5-1.06.56-1.59.81-5.9-7.81-5.88-11.41-6.94-.59-.18-1.84-.47-1.84-1.15-.02-1.64.73-4.31,1.18-5.92.59-2.04,1.31-4.14,2.18-6.07,7.01,1.62,14.52,1.5,21.54,0,.19,1.21.39,2.46.74,3.62.78,2.58,2.05,5.02,2.34,7.76.12,1.31-.5,1.38-1.59,1.79-2.22.85-4.72,1.13-6.92,1.92-1.9.68-4.15,2.72-3.94,4.92.07.62.59,1.21.62,1.55.03.38-.15,1.03-.1,1.53.05.62.38,1.46.86,1.87.18.16.65.32.73.44.1.17.17.86.28,1.16.91,2.44,4.02,2.64,6.12,1.74.47-.2,1.43-.96,1.65-1.03.37-.1,1.16-.06,1.61-.14.64-.1,1.29-.23,1.92-.39.24,5.31-1.04,10.58-2.52,15.64ZM219.94,262.63s.34.69.51.52c.18-.18-.47-.5-.51-.52Z"/>
    <path class="cls-9" d="M201.62,267.16c.19,1.21.4,2.46.75,3.62.77,2.58,2.05,5.02,2.33,7.76.13,1.31-.49,1.37-1.58,1.79-2.23.85-4.72,1.13-6.93,1.92-1.9.68-4.15,2.72-3.93,4.92.06.62.58,1.21.62,1.55.04.38-.15,1.02-.11,1.54.05.62.39,1.45.86,1.86.18.16.66.32.73.45.1.16.17.85.28,1.16.92,2.44,4.01,2.63,6.12,1.74.47-.2,1.43-.96,1.65-1.03.36-.1,1.16-.06,1.61-.14.64-.11,1.29-.23,1.92-.4.23,5.31-1.04,10.58-2.52,15.64-1.52,5.2-3.26,9.99-6.49,14.39-.17.23-1.1,1.49-1.22,1.56-.14.08-.25.12-.41.1h-10.38c-3.03-2.53-5.02-6.06-6.5-9.68-2.8-6.81-4.27-14.45-3.54-21.85.01-.15.04-.61.23-.57.65.15,1.34.41,2.02.55.8.17,2,.25,2.7.49.54.18,1.16.74,1.8.98,1.88.7,4.76.53,5.94-1.32.37-.59.24-1.06.42-1.43.07-.15.57-.39.74-.55.51-.51.86-1.56.87-2.28,0-.4-.21-.88-.18-1.12.03-.31.49-1.06.56-1.58.8-5.91-7.81-5.89-11.42-6.95-.58-.17-1.83-.48-1.84-1.15-.02-1.63.74-4.3,1.19-5.92.58-2.05,1.31-4.15,2.17-6.07,7.01,1.63,14.53,1.5,21.54,0Z"/>
    <path class="cls-9" d="M216.95,255.12c.02-.47-.01-3.15-.29-3.35l-5.36-.35v-.3c1.76-.08,3.5.24,5.25.3.23-.2-1.35-2-1.73-2.03-2.62.26-5.28.3-7.88.71-.58.09-1.26.19-1.82.34-.51.14-.97.35-1.44.58-.07-.38.26-.45.52-.56.59-.27,1.49-.43,2.13-.54,2.63-.46,5.41-.52,8.06-.76l-.74-.33c-1.86-.59-3.85-.2-5.74.02l.72-.51c-.83.02-1.67-.25-2.47-.46-3.79-1.03-7.8-3.28-11.75-2.71-.64.1-1.42.45-1.99.5-.67.06-1.6-.15-2.37-.11-.72.03-1.74.33-2.37.33-.38-.01-1.02-.38-1.47-.5-3.48-.94-6.29,1.34-9.41,2.26-.58.17-1.21.33-1.81.46-.25.06-1.5.18-1.56.24-.23.18.41.21.2.41-.08.08-1.73-.38-2.11-.41-1.03-.08-2.45-.06-3.45.15-.2.05-1.47.39-1.53.46-.06.06-.02.28.15.21,3.16.19,6.43.46,9.55,1.06.24.05,1.76.3,1.83.37.02.02-.01.23,0,.3-2-.42-4.01-.76-6.04-1.02-1.29-.16-2.7-.32-3.99-.42-.44-.03-1.82-.18-2.14-.08-.39.11-1.53,1.82-1.3,2.03,2.7-.37,5.42-.37,8.12-.1v.3c-2.73-.28-5.53-.36-8.24.16-.29.19-.43,2.96-.3,3.44,4.45-2.05,9.35-3.32,14.3-3.08v.3c-2.99-.23-6.06.29-8.95,1.08-.73.2-5.18,1.67-5.34,2.18-.15.46.98,2.34,1.3,2.79.05.06,0,.19.18.12.23-.09,1.14-.89,1.47-1.11,1.43-.98,2.9-1.84,4.52-2.47,2.48-.95,5.28-1.61,7.96-1.35.08.53-.21.23-.56.2-1.08-.08-2.06.15-2.97.25-1.96.19-4.77,1.28-6.52,2.2-.46.25-3.71,2.31-3.71,2.54,3.34,4.4,9.02,6.82,14.3,8.01,9.94,2.25,25.87,1.43,33.73-5.85.24-.21,1.72-1.84,1.74-1.97.03-.12-.07-.17-.15-.24-.33-.36-1.59-1.12-2.08-1.42-3.33-2.1-7.24-3.7-11.24-3.52v-.3c5.02-.2,9.74,2.18,13.63,5.13.86-.94,1.26-1.99,1.06-3.27-2.65-1.25-5.47-2.32-8.4-2.76-1.6-.24-3.15-.24-4.76-.18-.17.01-.27.11-.41-.1l.87-.26c4.49-.2,8.8,1.15,12.81,2.98ZM207.74,248.84c.07.03.07.07,0,.1v-.1ZM173.8,248.84v-.1c.07.03.07.07,0,.1ZM178.16,255.01c.14-.07.36.17.3.2-.12.07-.35-.16-.3-.2ZM197.3,262.99c-1.3.76-3.55,1.83-5.02,2.08-2.45.43-4.64-.88-6.6-2.18,0-.12.33-.03.42-.01,1.48.54,2.79,1.46,4.47,1.6,2.49.23,4.69-.88,6.94-1.75.06.27-.07.18-.2.26ZM190.61,262.01c.51.02.45.73.82.93-.01-.51.17-1.15.62-1.43-.15.69-.52,1.32-.42,2.05-.24.07-.17-.06-.23-.14-.35-.39-.6-.91-.8-1.41ZM197.66,262.73v-.1c.07.03.07.07,0,.1ZM197.82,262.63c-.08-.03.06-.18.2-.1.07.03-.07.17-.2.1ZM203.76,254.54c.09-.15.12-.28.34-.25.1.11-.89,1.34-1.03,1.5-2.22,2.46-5.24,3.26-8.49,3.02-.9-.06-1.87-.36-2.78-.41-1.33-.07-2.61.25-3.92.32-3.41.16-7.1-.56-9.31-3.35.69.28,1.23.83,1.88,1.21,2.49,1.4,7.75,2.47,10,.18.93-.95.58-2,.55-3.18-1.29.02-1.4-1.3-2.35-1.81-1.18-.63-2.79.09-3.26-1.69-.51-1.99.55-3.09,2.35-3.63,2.11-.63,7.21-.74,8.88.86.71.68.78,1.43.64,2.38-.3,2.05-2.06,1.33-3.44,2.22-.87.56-1.17,1.79-2.4,1.67-.27,2.88.72,4.22,3.57,4.62,2.58.35,7.41-1.41,8.76-3.66Z"/>
    <path class="cls-11" d="M177.7,236.5c-2.95.24-3.87,4.55-3.52,6.92.08.54.25,1.08.39,1.61.55-.06,1,.17,1.51.29.33.09.74.25,1.13.3,1.53.25,2.74-.47,4.23-.6,1.34-2.78.11-8.86-3.75-8.53ZM177.68,245.05c-1.16-.35-2.05-1.96-2.09-3.16-.08-2.63,2.67-4.74,4.91-2.89.06.03.02.16.03.17.03.02.08.07.1.1.01.02.17,0,.25.11,2,2.43-.03,6.62-3.2,5.66Z"/>
    <path class="cls-11" d="M180.53,239.17s.07.07.1.1c.5.83-1.2,1.25-1.14.26.03-.55.66-.58,1.04-.36Z"/>
    <path class="cls-11" d="M203.45,236.57c-4.14-.99-5.64,5.59-4.21,8.41,1.09.05,2.31.78,3.36.79,1.05.02,2.32-.8,3.43-.74,1.23-2.35.35-7.74-2.58-8.45ZM200.13,244.42c-1.37-1.14-1.67-4.1-.16-5.15,0,0,.01,0,.02-.01.07-.05.1-.06.18-.09.05-.06.01-.16.17-.29,1.38-1.15,3.48-.44,4.28,1.05,1.66,3.09-1.62,6.88-4.49,4.49Z"/>
    <path class="cls-11" d="M200.18,239.17c.48-.15,1.05-.2,1.02.46-.03.84-1.61.53-1.23-.35,0-.01.15-.03.21-.1Z"/>
    <path class="cls-4" d="M225.18,261.19s-.14.01-.21,0c-.03-.21,0-.23.2-.2.01.06-.02.16,0,.21.24.09.36.04.31.41-.23-.06-.24-.24-.31-.41Z"/>
    <path class="cls-4" d="M220.76,263.56s-.27-.18-.2-.31c.04-.05.27.18.2.31Z"/>
    <path class="cls-4" d="M220.91,263.56c.06.07.21.13.1.2-.05-.06-.21-.13-.1-.2Z"/>
    <path class="cls-4" d="M221.12,263.87c.07.03.07.07,0,.1v-.1Z"/>
    <path class="cls-4" d="M160.37,263.76c.09.09-.47.87-.62.72-.08-.08.49-.85.62-.72Z"/>
    <path class="cls-4" d="M151.83,250.7c-.04.07-.17-.06-.1-.2.04-.07.17.06.1.2Z"/>
    <path class="cls-4" d="M159.7,264.59c.1.09-.16.26-.15.15l.15-.15Z"/>
    <path class="cls-4" d="M151.98,250.59c.07.03.07.07,0,.1v-.1Z"/>
    <path class="cls-4" d="M197.51,262.73c.06.27-.07.18-.2.26-1.3.76-3.55,1.83-5.02,2.08-2.46.42-4.64-.89-6.61-2.19,0-.12.33-.04.42,0,1.48.54,2.79,1.45,4.47,1.6,2.49.22,4.7-.88,6.94-1.75Z"/>
    <path class="cls-4" d="M191.64,263.56c-.24.07-.17-.06-.24-.13-.35-.4-.6-.92-.79-1.41.5.02.45.73.82.92-.01-.51.17-1.15.62-1.44-.15.69-.52,1.32-.41,2.06Z"/>
    <path class="cls-4" d="M191.44,253.58c-.27,2.88.71,4.23,3.56,4.62,2.59.35,7.42-1.41,8.76-3.66.08-.14.12-.28.33-.24.1.11-.89,1.34-1.03,1.49-2.22,2.46-5.24,3.26-8.49,3.03-.9-.06-1.87-.37-2.77-.41-1.32-.07-2.6.25-3.91.32-3.41.16-7.1-.56-9.31-3.35.69.28,1.23.84,1.88,1.2,2.5,1.4,7.76,2.47,10,.19.93-.95.58-2,.56-3.18-1.29.02-1.4-1.3-2.35-1.82-1.18-.63-2.79.1-3.25-1.69-.52-1.98.54-3.09,2.34-3.63,2.1-.64,7.21-.75,8.87.85.71.68.78,1.44.64,2.39-.3,2.05-2.06,1.32-3.44,2.22-.87.56-1.17,1.79-2.4,1.67Z"/>
    <path class="cls-4" d="M178.47,255.22c-.13.07-.36-.16-.31-.2.13-.07.36.16.31.2Z"/>
    <path class="cls-4" d="M198.02,262.53c.07.04-.06.17-.2.1-.07-.04.06-.17.2-.1Z"/>
    <path class="cls-4" d="M197.66,262.63c.07.03.07.07,0,.1v-.1Z"/>
    <path class="cls-4" d="M207.74,248.84c.07.03.07.07,0,.1v-.1Z"/>
    <path class="cls-4" d="M173.79,248.74c.07.03.07.07,0,.1v-.1Z"/>
    <path class="cls-4" d="M180.88,239.39c-.08-.11-.24-.09-.25-.11.5.83-1.2,1.25-1.14.26.03-.54.65-.58,1.04-.36-.01-.01.02-.14-.03-.17-2.23-1.85-4.99.26-4.91,2.89.03,1.2.93,2.81,2.09,3.16,3.17.96,5.2-3.24,3.2-5.66ZM179.65,243.38c-.72.23-.46-.81.05-.5.08.05.17.43-.05.5Z"/>
    <path class="cls-4" d="M180.63,239.28s-.07-.07-.1-.1c.04.02.08.07.1.1Z"/>
    <path class="cls-4" d="M204.62,239.93c-.8-1.49-2.9-2.2-4.28-1.05-.16.14-.12.24-.17.29.49-.16,1.05-.2,1.03.46-.03.83-1.6.53-1.23-.36-1.51,1.05-1.21,4.01.16,5.15,2.87,2.39,6.15-1.4,4.49-4.49ZM200.91,243.38c-.28-.38.5-.74.61-.35.1.37-.45.56-.61.35Z"/>
    <path class="cls-4" d="M200.18,239.17c-.05.07-.2.09-.21.1.08-.06.11-.07.21-.1Z"/>
    <path class="cls-9" d="M179.7,242.89c.08.05.17.43-.05.5-.71.22-.46-.82.05-.5Z"/>
    <path class="cls-9" d="M200.91,243.38c-.28-.39.5-.75.61-.35.1.37-.45.56-.61.35Z"/>
  </g>
  <path class="cls-6" d="M154.76,227.67l55.87,95.89c12.79-4.68,17.82-10.1,21.07-13.39.17-.17-51.72-94.93-51.72-94.93,0,0-14.51,2.66-25.23,12.43Z"/>
  <path class="cls-5" d="M96.73,517.07h192.81s-5.08,21.81-6.82,25.06-178.24-.24-178.24-.24c0,0-6.63-20.31-7.76-24.82Z"/>
  <polygon class="cls-2" points="185.48 407.08 202.58 407.08 202.58 692.58 182.7 692.58 182.7 407.08 185.48 407.08"/>
  <polyline class="cls-7" points="202.58 404.47 259.11 604.92 202.58 604.92"/>
</svg>