<?xml version="1.0" encoding="UTF-8"?>
<svg id="Calque_2" data-name="Calque 2" xmlns="http://www.w3.org/2000/svg" viewBox="0 0 682.13 662.19">
  <path d="M359.67,191.77c5.18-2.91,28.38-19.02,32.28-16.77.23.14,3.21,4.12,3.36,4.37l3.95.95c2.57,3.52,16.41,27.66,15.84,29.43-.25.77-.7,1.47-1.21,2.17.64,1.22,3.39,8.88,3.1,9.28-14.44,7.53-29.37,15.03-43.39,23.26-1.43,1.15-1.89,2.71-1.6,4.6-4.53,3.58-28.19,19.87-31.34,19.48-.93-.11-1.81-.45-2.71-.84.56,2.5-15.19,10.57-16.19,10.45-5.3-.65-8.23-3.6-3.95-7.35l-3.53.09c-7.52-9.86-13.84-20.64-18.98-32.36,1.13-1.55,1.47-3.18.84-4.91-.03-.57-1.95-2.15-1.46-3.72.77-2.5,27.74-16.75,32.45-19.53,8.18-10.03,19.77-16.58,32.54-18.6v-.02Z" style="fill: #fefefe;"/>
  <path d="M480.55,328.15c5.84.76,19.87,24.5,19.46,28.25-.09.93-.45,1.84-.87,2.74.64,1.19,3.38,8.88,3.1,9.28l-94.44,53.62c-4.49,2.15-3.7-2.29-4.74-4.01l-4.32-.99c-7.86-9.95-12.79-21.59-17.37-33.1-14.72-6.04,4.18-19.34,12.4-15.5,8.74-10.99,23.37-19.33,37.19-21.7,14.83-8.51,29.74-17.11,44.17-26.31.46,0,4.59,6.32,5.42,7.72h0Z" style="fill: #fefefe;"/>
  <path d="M184.55,303.35c-1.67-3.19-4.91-7.16-1.57-10.07l89.3-51.75,6.8-1.7c.25.91-.29,2.59,0,3.1l4.31.87c9.07,11,17.93,25.46,18.94,39.43,4.18-3.36,5.44.81,3.04,5.61-.43.87-14.37,8.04-15.44,3.69-1.95,5.52-6.49,10-13.61,13.44-8.14,1.94-14.21,5.83-18.24,11.64-2.62-2.26-4.91-2.88-6.9-1.83-4.35,3.13-40.43,24.39-42.9,24.61s-5.33-5.42-6.69-7.56c-5.01-1.58-8.96-6.15-11.87-13.73-4.84-5.86-6.56-11.1-5.18-15.71v-.02Z" style="fill: #fefefe;"/>
  <path d="M348.82,394.78c-.34-10.27,23.46-15.95,17.05-3.1,1.57.05,3.3.19,4.49,1.27,1.38,1.24,16.71,28.9,18.02,32.27-1.08,1.18-1.5,2.4-.84,3.66.08,1.01,2.06,2.93,1.55,4.62-12.52,6.32-25.07,13.14-37.19,20.18-6.8,9.52-19.34,17.4-30.99,18.6-4.35,2.5-24.9,15.11-27.4,15.31-3.41.28-3.69-3.89-5.15-6.01l-4.26-.79c-5.56-8.46-10.72-17.2-15.61-26.07l1.29-4.15c-1.63-3.04-3.07-6.21-4.65-9.27l46.49-24.83c.36-1.89.81-3.98,2.28-5.35,4.88-4.51,22.86-14.26,29.55-16.95l5.36.6v.02Z" style="fill: #fefefe;"/>
  <path d="M418.56,283.2c4.03-.88,4.26,1.41,3.1,4.65l15.39,30.06c-5.58,3.24-11.73,8.65-16.94,11.78-7.64,10.29-22.97,18.41-35.64,20.15-2.71,7-12.71,12.03-20.15,10.85-1.04.62-2.81,1.29-3.21.67-12.06-18.71-25.32-41.36-35.74-61.04l1.75-3.15c-.25-5.52,13.11-13.02,18.6-13.95l1.46-2.96c11-4.68,21.23-10.85,30.68-18.5l3.5,1.32c.54-.31,2.79.02,4.45-.9,5.18-2.88,10.23-6.01,15.67-8.4,4.73,8.45,8.8,17.61,13.67,25.94,1.1,1.89,3.08,2.94,3.41,3.5v-.02Z" style="fill: #fd5530;"/>
  <path d="M317.83,301.8l3.21-.67c11.92,20.35,23.82,40.7,35.74,61.04l-1.75,3.15c1.02,5.04-12.3,14.72-17.05,12.4-7.59,10-23.17,18.66-35.64,20.15-.6.34-2.9-.03-4.49.87-3.75,2.12-12.17,9.48-16.18,8.29-4.45-1.32-12.86-24.3-18.07-27.76-3.66-.39-4.59-.91-3.1-4.65-5.18-9.16-9.96-20.61-15.26-30.02.48-2.56,14.78-9.72,18.36-11.82,7.81-10.27,22.94-19.99,35.64-21.7-.06-5.67,13.76-11.82,18.6-9.3v.02Z" style="fill: #fd5531;"/>
  <path d="M489.85,222.76c1.64,3.86.91,4.56-3.1,3.1-4.84,2.57-15.56,9.3-20.15,7.02l-103.85-179.97c-.31-1.88.34-3.18,1.44-4.62s29.03-17.96,31.07-18.6c3.21-.99,5.69-1.26,7.86,1.63l102.36,176.73c3.42,8.71-9.61,11.08-15.62,14.71h-.02Z" style="fill: #f6f9f9;"/>
  <path d="M553.39,230.51c-.05-4.56.45-5.75,4.65-3.1,5.53-2.93,15.99-10.66,20.94-6.21,33.89,60.41,70.53,119.67,103.15,180.51.08,1.46-.85,2.15-1.69,3.13-1.22,1.43-30.14,18.53-32.14,19.05-2.54.65-5.46,1.01-7.39-1.21l-102.39-178.22c-2.28-6.97,9.73-10.8,14.86-13.95h.02Z" style="fill: #f8f9f8;"/>
  <path d="M534.79,197.97c-4.74,2.59-14.99,9.93-19.36,6.18L413.57,28.63c-1.49-2.99-2.32-7.02.33-9.67,9.73-2.62,24.24-16.37,32.53-18.71,2.2-.62,4.11-.06,5.84,1.32l102.36,177.43c2.68,8.86-8.96,12.03-15.17,15.88.85,4.42-1.01,5.92-4.65,3.1l-.02-.02Z" style="fill: #f6f9f8;"/>
  <path d="M178.35,402.53c-.26,4.66-1.7,7.66-6.2,4.65-5.16,2.85-14.89,10.55-19.76,5.78L50.59,236.62c-.91-2.08-1.7-5.39-.54-7.36,1.02-1.74,33.01-19.28,35.19-19.71,2.34-.45,4,.87,5.47,2.43l102.53,178.14c1.55,6.46-10.71,9.75-14.89,12.4v.02Z" style="fill: #f7f9f9;"/>
  <path d="M192.3,438.18c-1.04-3.05.54-3.63,3.1-1.55,6-3.16,16.64-10.82,21.77-5.5l101.03,174.84c1.88,3.69,1.78,5.97-1.07,8.96-1.21,1.27-28.48,17.31-30.24,17.85-2.17.68-4.12,1.24-6.26-.06-36.19-59.53-71.12-120.48-104.78-181.38.14-3.67,12.52-10.86,16.44-13.16h0Z" style="fill: #f6f9f9;"/>
  <path d="M147.36,464.52c4.71-2.57,14.91-10,19.36-6.18l101.86,175.52c1.6,3.25,2.23,6.83-.33,9.67-1.22,1.35-28.95,16.92-31.79,17.93-2.39.85-4.43,1.24-6.57-.5l-102.34-177.48c-2.74-8.76,9.03-12.17,15.17-15.87-.81-4.4,1.04-5.97,4.65-3.1h-.02Z" style="fill: #f7f9f8;"/>
  <path d="M514.65,253.76c4.91-2.96,9.08-9.81,15.59-3.55l101.55,177.12c.56,1.15.74,2.29.43,3.55-.77,3.05-27,18.71-31.21,20.04-3.38,1.05-6.74,2.68-9.67-.33l-102.64-180.34c.08-4.22,12.48-9.42,16.64-11.84-1.19-3.64.2-4.56,4.15-2.73l5.15-1.92h0Z" style="fill: #f7f9f8;"/>
  <path d="M124.11,435.08c-5.56,2.98-16.07,10.6-20.94,6.21L.95,264.53c-2.01-3.87-.65-5.92,2.36-8.38s25.9-15.31,29.82-16.66c2.09-.71,4.94-2.17,7.04-.95l103.46,179.49c2.23,6.83-9.56,10.69-14.86,13.95.88,4.35-1.16,6.34-4.65,3.1h0Z" style="fill: #f7f9f9;"/>
  <path d="M263.59,379.29c-23.99,14.4-48.58,27.9-72.84,41.84-1.95,5.83-4.03,7.38-6.2,4.65-14.77,8.51-30.19,16.21-44.94,24.8.22,4.43-.74,6.03-4.65,3.1-8.45,4.96-22.05,9.84-26.35,18.6-4.48,1.5-13.98-8.65-7.75-10.85,8.82,3.05,20.57-6.77,28.45-11.13,1.44-.79,2.15-2.6,2.54-2.82-.98-3.78.57-4.29,4.65-1.55,15.06-8.46,31.92-16.85,44.94-27.9-.17-3.16,1.35-2.31,3.1,0l75.94-43.39c.46.81,3.6,1.89,3.1,4.65Z" style="fill: #ece9d4;"/>
  <path d="M571.99,194.87c3.25.12,3.84,1.8,3.1,4.65-7.95,5.15-16.6,9.24-24.8,13.95.25,4.4-.82,5.41-4.65,3.1-14.78,8.49-29.52,17.79-44.94,24.81,4.08,7.04,4.45,17.73,13.95,12.38-3.69,2.23-6.23,2.88-9.3,4.65-1.15-2.42-6.8-13.59-8.48-13.73-3.07-.26-46.72,26.84-53.51,30.78-7.39,2.79-6.59-7.33,0-6.2,2.87-.23,42.87-25.6,49.59-29.45.06-4.35.67-6.35,4.65-3.1,14.78-8.49,30.17-16.24,44.94-24.8,0-4.09,2.59-5.64,7.75-4.65,7.18-4.2,13.96-9.14,21.7-12.4Z" style="fill: #ede9d5;"/>
  <path d="M364.32,464.52c-14.2,6.69-27.12,14.44-38.74,23.25-2.91-.4-1.43-12.91-4.65-15.5,10.41-5.97,20.61-12.57,30.99-18.6l12.4,10.85Z" style="fill: #cbbba2;"/>
  <path d="M353.47,176.27c4.31.85.53,17.88,6.2,15.5-10.93,6.14-21.74,12.23-32.54,18.6-3.78-1.91-6.73-7.21-9.3-9.3l-.39-2.06c8.73-6.03,17.82-11.33,27.29-15.88l8.74-6.85Z" style="fill: #c9baa0;"/>
  <path d="M587.48,187.12c4.28-.67,4.29-.22,1.55,3.1,1.08,2.03,7.13,13.11,6.2,13.93-3.19-.08-6.59.45-9.75-.31-1.01-.23-8.74-3.56-10.38-4.34-2.63-1.21-3.44-1.86-3.1-4.65.03-.31,1.44-1.61,1.58-3.77.48-7.31-2-13.1,5.39-16.32.74,0,7.44,10.54,8.51,12.34v.02Z" style="fill: #efebd5;"/>
  <path d="M344.17,388.59c4-1.3,4.91,2.98,4.65,6.2-11.36,6.28-25.42,13.22-37.19,21.7-.48-2.25-1.61-6.17-3.1-7.75.05-1.04.17-2.05.57-2.93,1.32-2.9,29.83-19.95,35.07-17.22Z" style="fill: #efedd6;"/>
  <path d="M291.48,300.25c2.42-.45,3.22,2.05,2.2,4.03-.87,1.69-31.92,17.9-33.78,17.45-.9-.22-1.7-.73-2.51-1.33-.23-2.28-3.81-4.71-6.2-4.65,2.56-1.84.37-4.91,6.18,0-1.04-7.5,12.92-9.87,17.42-12.49,4.09-2.39,10.93-8.29,15.14-10.76,4.37.03,5.35,5.89,1.55,7.75Z" style="fill: #f0ebd7;"/>
  <path d="M420.11,329.69c1.15,1.7,1.89,4.82,3.1,6.2-1.52,5.84-29,21.59-32.73,21.18-.99-.11-1.95-.53-2.91-1.04-4.48.67-6.45-3.02-3.1-6.2,11.67-6.82,24.22-13.28,35.64-20.15Z" style="fill: #f0e9d3;"/>
  <path d="M296.13,306.45c4.04-.19,4.82.99,3.1,4.65-11.61,6.77-23.71,14.69-35.64,21.7-.09-1.61-2.36-7.39-3.1-7.75.03-.95.14-1.84.5-2.62.81-1.69,31.07-18.01,32.85-17.43.84.26,1.58.82,2.29,1.46Z" style="fill: #f0ead3;"/>
  <path d="M337.97,377.74c4.34.09,4.46,1.84,1.55,4.65,2.74,1.66,3.11,2.43,1.26,4.84-1.1,1.41-29.54,16.77-31.32,17.05-1.3.2-2.65.06-4.03-.19-.7-2.09-2.28-4.09-3.1-6.2,11.59-6.63,24.25-13.65,35.64-20.15Z" style="fill: #f0e9d4;"/>
  <path d="M426.31,340.54c.65,2.36,2.29,5.11,4.65,6.2-12.57,7.21-24.84,14.13-37.19,21.7-4.32-.42-5.83-4.48-3.1-7.75-.64-1.13-.93-2.53-.09-3.02,10.6-6.25,21.6-12.52,32.42-18.4.99-.54,2.34.36,3.32,1.27Z" style="fill: #f0ebd6;"/>
  <path d="M378.27,258.41c.05.29,3.18,3.04,3.1,4.65-4.73,2.7-13.62,10.27-20.66,14.21-3.87,2.17-10.72,6.9-14.99,5.94-4.25,1.22-4.9-2.03-1.55-4.65-.46-1.67.06-3.08.67-4.62.67-1.64,29.29-17.19,31.01-16.77.85.2,1.64.68,2.42,1.24Z" style="fill: #f1e9d3;"/>
  <path d="M100.86,461.42c.2.2-.23,1.74.5,2.57,1.49,1.7,6.74,6.37,7.25,8.28,1.41,5.21-.96,12.27-5.42,15.47-.74-.02-7.38-10.52-8.52-12.37-4.17.7-4.7-.34-1.55-3.1-1.15-2.08-7.56-12.66-6.2-13.93,5.56-.05,9.73-1.12,13.95,3.08Z" style="fill: #ede9d4;"/>
  <path d="M373.62,244.46c-2.68,1.13,1.12,9.03,1.55,9.3.02.9-.03,1.78-.31,2.56-.64,1.7-29.55,18.1-31.37,18.12-1.53,0-2.84-1.08-3.97-2.08-4.34,1.26-5.33-2.05-1.55-4.65,11.51-6.43,24.45-16.68,35.64-23.25Z" style="fill: #f0ebd5;"/>
  <path d="M390.67,424.23c-1.91,1.39-3.33,1.41-3.1,4.65-2.2-2.09-5.63-6.88-6.97-9.42-4.15-7.84-8.69-18.8-14.72-27.77-1.07-4.43,3.27-6.4,6.2-3.1,1.39.17,2.59.46,3.1,1.22,2.76,4.12,18.27,28.79,18.19,30.58l-2.7,3.84h0Z" style="fill: #efebd5;"/>
  <path d="M286.83,241.36c.84-.08,1.66-.09,2.42.14,1.8.53,16.97,28.34,18.69,32.28l-2.51,3.24c1.39,2.96-.15,5.39-3.1,6.2-5.22-8.59-8.97-19.71-14.01-28.21-1.81-3.05-6.8-7.89-9.24-12.09,2.48-.28,5.49-.59,7.75-1.55v-.02Z" style="fill: #efead5;"/>
  <path d="M381.37,383.94c.14,0,2.71.23,2.79.36,3.21,4.56,6.74,14.91,9.89,20.3,2.71,4.63,6.26,8.85,9.02,13.45-1.67.19-3.19.7-4.65,1.55l-4.2,1.47c-1.94-.37-18.89-29.1-18.77-33.33l4.35-3.77c.48-1.39.99-1.38,1.55,0l.02-.03Z" style="fill: #f1ecd7;"/>
  <path d="M296.13,233.61c4.77,8.4,9.3,18.74,14.26,26.84,2.5,4.06,5.04,6.12,7.44,10.35,0,4.08-1.58,4.06-4.65,1.55-4.43,2.94-7.69.71-9.76-6.71-4.6-7.55-8.93-15.34-13.06-23.15-.73-1.36.05-2.96,1.13-4.23,2.84-1.75,4.84-.2,4.65-4.65Z" style="fill: #efecd6;"/>
  <path d="M269.79,450.57c5.07,9.47,12.55,22.18,18.6,30.99l-3.87,6.2c-2.42-4.97-22.42-34.28-22.44-36.42-.03-2.94,6.11-1.74,7.72-.76v-.02Z" style="fill: #d60809;"/>
  <path d="M184.55,303.35c4.46,8.52,11.89,21.26,17.05,29.45l-3.11,6.99c-7.31-12.61-15.54-24.72-21.68-37.97l7.75,1.53Z" style="fill: #d90608;"/>
  <path d="M395.32,179.37l4.63-4.65c5.44,13.27,15.23,24.78,20.18,37.95l-6.21-.76c-4.85-9.39-13.06-23.14-18.6-32.54Z" style="fill: #d70809;"/>
  <path d="M480.55,328.15c1.72-1.07.82-7.07,4.68-3.91,2.91,2.39,8.48,14.12,10.89,18.21.54.91,2.15,1.12,2.9,2.42,1.97,3.42,2.12,9.1,6.31,11.96l-6.18,2.29c-5.19-9.83-12.65-21.09-18.6-30.99v.02Z" style="fill: #d70708;"/>
  <path d="M375.17,253.76c.74.45,4.08-.5,4.66,0,.45.4-1.77,3.25-1.57,4.63-11.62,4.74-24.87,12.01-34.09,20.15-2.15,8.9-13.45-2.51-4.65-6.2,12.61-3.16,24.32-12.2,35.64-18.6v.02Z" style="fill: #f46142;"/>
  <path d="M339.52,382.39c4.51-5.92,12.04,3.98,4.65,6.2-12.82,4.54-24.59,12.34-35.64,20.15-.33-.34-2.85-.05-3.95-1.47-.96-1.24.91-2.98.85-3.18,10.15-5.42,20.57-10.91,30.3-17.05,2.01-1.27,4.53-1.33,3.8-4.65Z" style="fill: #f36545;"/>
  <path d="M291.48,300.25c2.15-8.9,13.44,2.5,4.65,6.2-12.52,3.56-24.08,12.46-35.64,18.6-.17-.08-1.47,1.13-2.32.98-3.98-.73-.6-3.87-.77-5.63,10.8-3.49,20.46-9.86,30.02-15.78,2.01-1.24,4.96-.53,4.08-4.37Z" style="fill: #f36042;"/>
  <path d="M426.31,340.54l-35.64,20.15c-3.77,3.86-6.96-1.22-3.1-4.65,12.54-4.96,24.19-12.97,35.64-20.15.28.33,2.85.05,3.95,1.47.96,1.24-.91,2.94-.85,3.18Z" style="fill: #f46444;"/>
  <path d="M379.82,383.94c-1.39,2.05-3.35,3.29-2.51,6.23s13.02,22.32,15.64,26.42c1.75,2.73.7,3.87,5.47,3.01-2.19,1.27-6.01,3.38-7.75,4.65.67-3.41-.6-5.24-2.09-7.98-5.01-9.19-11.27-18.55-16.5-27.66-1.88-4.79,4.29-8.8,7.75-4.65v-.02Z" style="fill: #cdc2aa;"/>
  <path d="M443.36,269.26c-4.46,2.25-3.19,2.82,0,6.2-7.18,4.17-14.2,8.79-21.7,12.4-2.73-.74-2.29-3.29-3.1-4.65,5.21-4.04,11.84-6.03,17-10.15,2.29-1.83,3.02-5.02,3.32-5.24,1.38-.99,3.94,1.47,4.48,1.43v.02Z" style="fill: #e4e0cc;"/>
  <path d="M291.48,238.26c3.61,10.29,10.35,21.7,16.21,31.1,1.75,2.81.79,3.83,5.49,2.99,2.12,4.23-4.46,7.5-7.75,4.65-1.95-12.54-12.66-24.25-18.6-35.64.6-.26,3.39-2.32,4.65-3.1Z" style="fill: #cdc1aa;"/>
  <path d="M353.47,176.27l-4.11,5.97-31.54,18.83c-.36-.29-2.2.25-3.1,0-1.33-1.7,6.03-8.29,7.75-9.3.43-1.38.95-1.36,1.55,0,1.57-3.32,4.15-5.89,7.75-7.75,3.98-2.81,7.61-3.32,10.85-1.55-.84-2.65.71-3.67,4.65-3.1,1.74-.99,3.13-3.67,6.2-3.1Z" style="fill: #eae7e2;"/>
  <path d="M364.32,464.52c.06.88-6.63,7.04-7.75,7.75-.43,1.38-.95,1.36-1.55,0-1.38,3.35-3.97,5.94-7.75,7.75-4,2.81-7.62,3.33-10.85,1.55,1.5,2.91-.05,3.95-4.65,3.1-2,1.12-3.56,3.27-6.2,3.1-.88-4.8.29-3.72,3.01-5.47,7.1-4.59,20.1-12.54,27.46-15.98,2.84-1.32,5.01-2.29,8.28-1.8Z" style="fill: #eceae4;"/>
  <path d="M558.04,227.41c-1.13.6-3.11,2.15-4.65,3.1-.31-4.79-3.87-10.88-7.75-13.95,1.38-.79,2.84-2.06,4.65-3.1l7.75,13.95Z" style="fill: #b9ae9b;"/>
  <path d="M539.44,194.87c2.98,4.45,4.54,13.87,10.85,12.4-2.59,1.52-5.16,3.15-7.75,4.65.03-5.28-3.61-10.76-7.75-13.95,1.24-.68,3.08-2.14,4.65-3.1Z" style="fill: #b0a696;"/>
  <path d="M184.55,418.03c-.98-.17-2.29.25-3.1,0-3.84-1.18-5.18-9.11-9.3-10.85,1.69-.93,4.04-3.29,6.2-4.65-.02,5.78,4.09,10.37,6.2,15.5Z" style="fill: #afa490;"/>
  <path d="M136.51,445.93c-2.11,1.18-4.03,1.21-4.65,1.55l-7.75-12.4c1.63-.87,3.07-2.14,4.65-3.1,1.41,4.84,3.5,11.14,7.75,13.95Z" style="fill: #ada391;"/>
  <path d="M147.36,464.52c-1.21.67-3.02,2.12-4.65,3.1l-7.75-13.95c1.6-.95,3.05-2.17,4.65-3.1.31,4.79,3.87,10.88,7.75,13.95Z" style="fill: #b2a794;"/>
  <path d="M190.75,421.13c-4.06,5.53,3.16,10.03,4.65,15.5-1.02.54-2.11.98-3.1,1.55l-7.75-12.4c1.61-.93,3.02-2.82,6.2-4.65Z" style="fill: #b6ab97;"/>
  <path d="M497.6,236.71c-1.61.93-3.04,2.19-4.65,3.1.15-5.32-4.6-9.02-6.2-13.95.31-.17,1.47-2.11,3.1-3.1l7.75,13.95Z" style="fill: #b9ae9c;"/>
  <path d="M331.78,173.17c.06,2.81-4.43,1.63-4.12.2.28-1.33,6.07,2.12,1.02,4.45l-1.98,1.16c1.67,6.01.79,10.27-2.67,12.79-.39.22-1.16-.22-1.55,0-.99-5.15,1.39-16.04,0-20.15-2.88-3.22-.6-5.32,3.1-3.1.17.34,4.46,3.18,6.2,4.65Z" style="fill: #a8a7a1;"/>
  <path d="M356.57,492.42c3.13,2.82.51,5.38-3.1,3.1-4.76-4.51-15.42-8.35-21.7-10.85,1.39-.79,2.57-2.06,4.65-3.1,5.84,1.3,11.53,4.4,17.05,9.3-.98-5.38-1.47-10.77-1.46-16.19l3.01-2.4c.37-.23,1.18.23,1.55,0,.99,5.15-1.39,16.06,0,20.15Z" style="fill: #a5a5a3;"/>
  <path d="M353.47,495.52l3.1-3.1c.14.4,6.45,3.8,1.55,6.99-4.28,2.77-3.94-3.21-4.65-3.89Z" style="fill: #d9aa14;"/>
  <path d="M322.48,171.62c-.15-.46-7.14-5.44-.76-7.73,5.75-2.06,3.08,3.11,3.86,4.63l-3.1,3.1Z" style="fill: #d6a40f;"/>
  <path d="M347.27,179.37c-1.43.82-2.62,2.06-4.65,3.1-4.22.08-11.9-4.59-10.85-9.3,5.7,1.69,9.87,4.79,15.5,6.2Z" style="fill: #a3a2a2;"/>
  <path d="M94.67,475.37c-2.31-2.36-5.76,8.26-7.73,2.31s4.68-2.51,6.18-5.41c.57,1.04,1.08,2.34,1.55,3.1Z" style="fill: #816e2a;"/>
  <path d="M589.03,190.22c-.56-1.04-1.05-2.28-1.55-3.1,3.55.88,3.35-2.62,5.42-4.62,5.47,4.4-.06,5.18-3.87,7.72Z" style="fill: #9b871c;"/>
  <path d="M337.97,267.71c-.08,1.64,1.35,3.39,1.55,4.65.28,1.67-.67,5.15.2,6.06.74.81,3.83-.23,4.45.14.22.12,1.53,4.4,1.55,4.65.15,3.13-14.77,11.7-18.6,13.95,1.57,4.56-6.18,7.84-9.3,4.65-5.76,3.39-13.31,6.21-18.6,9.3-1.47-1.13-2.68-2.85-3.1-4.65-.37-1.61.71-5.1-.19-6.07-.73-.79-3.84.23-4.46-.12-.34-.2-1.5-6.42-1.55-7.75,1.86-1.08,13.44-5.66,13.96-6.21.91-.99-1.55-2.9-1.57-3.08-.23-4.31.25-4,3.1-6.2,1.47-1.13,5.7-3.46,7.75-4.65,1.46-.85,2.98-1.36,4.65-1.55.79,1.38,1.29,4.7,2.39,4.7,4.46-1.36,7.9-4.53,12.04-6.62,2.01-1.02,4.99-.76,5.72-1.18Z" style="fill: #212121;"/>
  <path d="M387.57,356.04c2.85,6.85,1.05,2.19,3.1,4.65,1.53,1.83,2.62,5.33,3.1,7.75-2.62,1.61-14.97,7.08-15.5,7.78-.36.45,3.61,5.58,3.1,7.72-.54.03-1.13-.11-1.55,0-4.53,1.26-4.7,2.67-7.75,4.65-1.91,1.24-4.22,1.97-6.2,3.1-1.5-2.23-.79-4.96-3.78-4.66-5.41.56-9.3,5.56-13.27,7.76-3.69-1.26-3.56-3.44-4.65-6.2-.33-.84.65-2.94-.29-4.37-.64-.96-3.52-1.04-4.35-1.83-.95-.88-1.24-3.3-1.55-4.65,4.06-2.31,11.86-9.42,17.05-12.4-1.49-4.54,6.25-7.95,9.3-4.65,6.56-3.8,13.62-7.04,20.15-10.85.95,2.11,2.22,4.08,3.1,6.2Z" style="fill: #222121;"/>
  <path d="M376.32,285.12c31.44-8.09,40.8,39.77,10.07,44.21-28.31,4.11-34.85-37.84-10.07-44.21Z" style="fill: #04d6fb;"/>
  <path d="M327.13,297.15l37.19,63.54c-3.24,1.88-6.73,3.18-9.3,4.65l-37.19-63.54c3.41-2,6.83-3.19,9.3-4.65Z" style="fill: #fbbb04;"/>
  <path d="M315.74,337.99c18.83,17.76-3.42,49.14-26.38,36.45-29.62-16.4,2.9-58.58,26.38-36.45Z" style="fill: #04d7fc;"/>
  <path d="M458.76,138.92l-30.14,16.89c-2.01-.14-18.67-27.86-17.68-31.24,1.07-3.64,25.03-12.97,28.56-17.91,1.94,0,20.49,30.51,19.28,32.25l-.02.02Z" style="fill: #02dafd;"/>
  <path d="M463.38,143.83l15.75,31.44c-5.13,1.66-27.49,17.17-30.13,16.4l-17.84-29.91c.48-2.53,30.08-19.45,32.22-17.91v-.02Z" style="fill: #03dafd;"/>
  <path d="M483.62,179.37l16.99,32.39-30.14,16.89c-1.84-.14-18.4-28.33-17.93-31.26l31.1-18.02h-.02Z" style="fill: #02dafe;"/>
  <path d="M399.93,33.68c3.91,10.77,10.72,20.52,16.78,30.24,0,3.97-25.79,15.65-29.96,19.08-2.54-.2-18.72-27.71-17.67-31.24s26.24-15.03,30.84-18.07h0Z" style="fill: #02dafd;"/>
  <path d="M437.05,103.31c-1.1,1.52-25.99,13.36-29.96,15.5l-17.87-29.94c9.17-7.21,19.88-11.93,29.91-17.85,2.14.36,19.73,29.8,17.91,32.3h0Z" style="fill: #02dafd;"/>
  <path d="M614.85,297.29c2.76-.4,4.96,5.04,6.38,7.16,2.23,3.33,13.27,22.02,12.61,24.22l-30.13,17.84-17.67-31.4c5.64-2.34,24.95-17.26,28.81-17.82h-.02Z" style="fill: #03dafd;"/>
  <path d="M596.58,261.63l17.09,30.13-31.48,17.91-17.82-30.37c4.18-2.74,29.62-19.5,32.2-17.67h0Z" style="fill: #02dafd;"/>
  <path d="M591.95,256.67l-30.06,17.06-17.91-31.46,30.37-17.81c2.85,4.51,19.34,29.23,17.61,32.22v-.02Z" style="fill: #02dafd;"/>
  <path d="M660.3,369.99l15.65,31.55c-5.21,2.62-26.02,17.34-30.05,16.3-2.09-.54-18.4-28.17-18.01-29.88,3.94-2.79,30.53-19.37,32.41-17.98Z" style="fill: #02dafd;"/>
  <path d="M623.14,382.39l-17.03-30.24c4.62-2.74,28.36-18.66,31.52-17.73l18.02,30.05c-3.83,2.93-30.75,19.23-32.51,17.91Z" style="fill: #02dafd;"/>
  <path d="M449.53,5.8c.98,7.53,16.88,25.62,15.62,31.51-.37,1.75-26.98,15.9-31.07,18.09l-17.06-31.68c4.28-2.37,30.55-19.39,32.51-17.91Z" style="fill: #02dafd;"/>
  <path d="M502.43,167.16c.9-1.43,26.05-13.41,29.88-15.57l17.78,30.14c-4.46,3.33-27.85,18.69-31.34,17.65-3.18-4.88-18.89-28.16-16.32-32.23v.02Z" style="fill: #02dafd;"/>
  <path d="M438.89,58.66l30.05-17.19,17.67,31.57-29.97,17.96c-3.73-3.72-19.28-29.72-17.74-32.33v-.02Z" style="fill: #02dafe;"/>
  <path d="M458.85,95.72l31.61-16.95,17.59,30.13c-.17,2.03-28.67,18.4-31.15,17.67l-18.05-30.84Z" style="fill: #03dafd;"/>
  <path d="M480.55,131.34l30.22-17.05,17.71,31.58-30.14,17.78c-3.22-3.3-18.89-30.84-17.78-32.33l-.02.02Z" style="fill: #02dafd;"/>
  <path d="M134.99,373.07l-17.08-32.51c6.91-.91,26.31-16.91,31.54-15.39,2.73.79,13.78,25.15,17.9,28.55,0,2.67-27.93,17.84-32.36,19.36h0Z" style="fill: #02dafd;"/>
  <path d="M71.64,262.85c-1.46-.85-15.99-28.08-15.57-29.72,2.54-3.64,27.97-18.46,29.93-17.99l17.59,30.13c-.17,2.2-29.07,19.28-31.94,17.61v-.02Z" style="fill: #02dafd;"/>
  <path d="M113.5,335.68c-1.53-.88-16.26-29.46-15.85-31.38.36-1.67,26.53-13.89,30.19-16.33l17.85,29.91c-.45,2.68-29.72,19.25-32.19,17.81Z" style="fill: #03dafd;"/>
  <path d="M76.07,267.72c10.72-3.91,20.57-10.91,30.22-17.05,3.05,4.66,18.71,28.08,17.68,31.51-.88,2.94-25.45,15.42-29.94,17.98-2.77-3.95-19.37-30.56-17.98-32.42l.02-.02Z" style="fill: #02dafd;"/>
  <path d="M155.23,408.62c-.46-6.12-18.35-28.34-15.51-32.33l29.91-15.44c2.54.48,15.78,25.37,17.82,29.82-.51,2.68-29.75,19.7-32.22,17.93v.02Z" style="fill: #03dafd;"/>
  <path d="M218.72,518.73l-17.09-30.2c.06-1.81,27.2-16.61,31.44-17.67,3.66.91,15.2,25.07,18.02,29.93-3.97,2.99-30.02,19.7-32.37,17.95h0Z" style="fill: #03dafd;"/>
  <path d="M255.81,506.37c.91,6.91,16.91,26.31,15.39,31.54-.48,1.64-26.95,17.05-29.79,16.32-2.36-.6-19.06-29.21-18.04-30.67l32.44-17.19Z" style="fill: #02dafd;"/>
  <path d="M181.54,450.71l30.16-17.11c1.8.15,18.47,28.84,17.71,31.48l-30.03,18.02c-2.63-4.03-19.06-30.62-17.84-32.39Z" style="fill: #02dafd;"/>
  <path d="M277.41,543.65c1.38.98,12.97,26.16,15.48,29.96l-29.89,17.85c-2.82-.46-18.12-27.37-17.91-32.3,6.11-.46,28.34-18.33,32.33-15.51Z" style="fill: #03dafd;"/>
  <path d="M297.5,579.37c1.33,6.63,17,26.39,15.54,31.35-.48,1.64-27.2,17.17-29.85,16.38-3.04-.9-15.79-26.1-18.07-30.84,5.8-.64,29.23-18.71,32.36-16.89h.02Z" style="fill: #02dafd;"/>
  <path d="M223.29,566.76l-31.61,16.99c-2.81-3.87-19.14-30.82-17.98-32.42,6.68-.53,27.17-16.69,31.54-15.39l18.05,30.84v-.02Z" style="fill: #02dafd;"/>
  <path d="M243.33,603.86l-30.11,17.14-17.7-31.58,29.97-17.96c3.13,4.14,19.74,29.72,17.82,32.39l.02.02Z" style="fill: #02dafd;"/>
  <path d="M201.54,531.08l-30.16,17.09c-2.74-4.62-18.66-28.36-17.73-31.52l30.02-18.01c2.9,4.15,19.43,30.22,17.87,32.44Z" style="fill: #02dafd;"/>
  <path d="M232.72,656.6l-16.88-30.16c.23-3.13,27.82-16.41,32.22-19.36.65,7.62,16.86,25.45,15.34,31.46-.62,2.46-29.18,19.09-30.67,18.04l-.02.02Z" style="fill: #02dafd;"/>
  <path d="M160.87,463.16c2.23-.36,2.7-.2,4.31,1.33,3.97,3.75,8.94,21.05,14.49,25.97l.09,2.42c-.62,2.54-28.03,18.44-29.93,17.99l-17.62-30.13c.14-1.67,27-17.34,28.65-17.61v.02Z" style="fill: #02dafd;"/>
  <path d="M606.08,394.75l-32.53,17.08c-.36-8.31-17.11-26-15.64-33.15l30.25-16.44c2.93,3.83,19.23,30.75,17.91,32.51Z" style="fill: #02dafd;"/>
  <path d="M568.65,326.8c2.76,1.61,11.67,25.54,17.22,28.47.03,3.66-27.15,16.57-31.63,19.37-2.81-4.29-19.48-30.13-17.85-32.47,6.48-.4,27.94-17.88,32.25-15.36l.02-.02Z" style="fill: #02dafd;"/>
  <path d="M526.92,253.87c.96,5.41,18.24,29.38,15.57,32.37-6.38-.4-25.94,16.4-30.02,15.42-3.29-3.98-19.73-29.66-17.87-32.28,5.94-.4,28.67-18.15,32.31-15.51h0Z" style="fill: #03dafd;"/>
  <path d="M545.11,289.56c2.15-.22,2.4.95,3.42,2.36,5.47,7.67,10.2,19.46,15.33,27.72-.23,2.79-26.38,17.25-31.17,17.67-1.74-.51-16.86-27.86-16.38-29.8.36-1.21,1.24-1.91,2.14-2.67,1.52-1.29,25.12-15.13,26.66-15.28h0Z" style="fill: #03dafd;"/>
  <path d="M610.5,399.63c1.46.85,16.12,28.16,15.64,29.79-3.38,3.16-29.29,18.97-30.78,17.95l-17.19-32.44c6.57-.28,27.94-17.85,32.31-15.31l.02.02Z" style="fill: #02dafd;"/>
  <polygon points="37.29 242.91 54.25 274.52 24.12 292.11 4.81 262.27 37.29 242.91" style="fill: #02dafd;"/>
  <path d="M100.68,353.13l17.19,30.05c-5.05,2.65-28,18.72-31.51,17.68-2.71-.81-14.99-25.85-18.02-29.99,4.04-3.3,29.69-19.29,32.33-17.74h.02Z" style="fill: #03dafd;"/>
  <path d="M58.9,280.21l17.14,30.11c-4.12,2.99-29.09,18.46-31.54,17.74l-17.67-30.2c4.04-3.05,29.6-19.4,32.06-17.64v-.02Z" style="fill: #02dafd;"/>
  <path d="M96.08,348.11l-30.13,17.02c-3.16-4.54-18.64-27.94-17.65-31.32.67-2.25,26.69-15.68,30.84-18.05l16.95,32.36h-.02Z" style="fill: #03dafd;"/>
  <path d="M90.2,405.8c1.13-1.94,26.28-13.75,30.08-17.02l17.67,31.4-30.14,17.76c-2.84-4.35-19.14-29.51-17.59-32.14h-.02Z" style="fill: #02dafe;"/>
  <path d="M331.78,173.17c4.34,3.67,10.55,5.38,10.85,9.3-3.66,1.88-6.85,4.57-10.85,1.55-4.11,1.52-6.21-3.39-3.1-6.2l-1.53-6.2c1.49.79,3.04,1.07,4.63,1.55Z" style="fill: #2d2d2c;"/>
  <path d="M328.68,177.82c.29.39,3.18,5.69,3.1,6.2-1.32,8.59-2.65,4.9-7.75,7.75v-18.58c1.46.33,3.69,3.38,4.65,4.63Z" style="fill: #282828;"/>
  <path d="M347.27,480.02c5.25-1.1,7.36,6.43,6.2,10.85-1.29,1.44-.11,2.09-3.02.76-4.29-1.97-11.47-6.09-14.03-10.06,3.67-1.83,6.82-4.6,10.85-1.55Z" style="fill: #2a2a2a;"/>
  <path d="M355.02,472.27c-.79,5.39,1.88,14.75-1.55,18.6-.17-3.6-6.4-8.34-6.2-10.85.62-7.75,2.57-4.49,7.75-7.75Z" style="fill: #242526;"/>
</svg>