<?xml version="1.0" encoding="UTF-8"?>
<svg id="Calque_1" xmlns="http://www.w3.org/2000/svg" version="1.1" viewBox="0 0 863.22 863.22">
  <!-- Generator: Adobe Illustrator 29.1.0, SVG Export Plug-In . SVG Version: 2.1.0 Build 142)  -->
  <defs>
    <style>
      .st0 {
        fill: #fffef2;
        stroke: #cbccce;
        stroke-miterlimit: 10;
      }

      .st1 {
        fill: #dedfe0;
      }

      .st2 {
        opacity: .6;
      }

      .st2, .st3, .st4 {
        isolation: isolate;
      }

      .st2, .st4 {
        fill: #c6cac9;
        mix-blend-mode: multiply;
      }

      .st5 {
        fill: #babcbd;
      }

      .st6 {
        fill: #ccccc5;
      }
    </style>
  </defs>
  <g class="st3">
    <g id="Lune">
      <g>
        <g>
          <circle class="st0" cx="431.61" cy="431.61" r="431.11"/>
          <path class="st1" d="M132.8,197.69c-6.44-2.21-13.42-1.83-20.15.07-9.77,10.15-18.96,20.9-27.24,32.29-14.64,20.16-31.95,46.04-31.72,72.03.06,6.24,2.34,20.33,10.51,21.04,9.11.79,18.83-13.69,23.4-19.76,8.65-11.48,16.09-23.82,23.86-35.9,7.13-11.1,14.97-20.41,24.16-29.88,5.34-5.5,12.91-12.61,13.09-20.87.17-8.34-8.49-16.5-15.91-19.04v.02h0Z"/>
          <path class="st1" d="M498.25,75.63c-.07-.35-.18-.69-.28-1.03-.16-.09-.27-.17-.43-.26-3.67-2-7.51-3.63-11.44-5.02-9.02-3.19-18.53-5.4-28.09-6.01-6.91-.44-14.93-.21-20.67,2.41-5.51,2.52-7.8,6.01-7.64,11.91.21,7.28,3.73,15.26,9.22,20.08,4.76,4.18,11.06,5.62,17.43,5.48,13.26-.29,27.75-7.17,36.72-16.94,1.76-1.92,3.04-3.58,4.28-6.28.07-.22.41-1.06.46-1.25.16-.55.3-1.09.4-1.65-.21,1.14-.23-2.77.04-1.43h0Z"/>
          <path class="st1" d="M599.94,145.04c0-.33-.04-.66-.06-.99-.13-.71-.3-1.41-.52-2.1-.09-.3-.21-.58-.32-.87-.03-.07-.06-.13-.09-.19-.34-.69-.72-1.35-1.14-1.99-.01-.02-.03-.04-.04-.06-1.16.17-2.4,0-3.51-.46h-.01s-.08,0-.11-.03c-.05-.02-.03,0-.06-.03-.06-.02-.07-.02-.22-.08-.34-.13-.69-.26-1.03-.38-.75-.26-1.5-.49-2.27-.7-.76-.2-1.53-.38-2.3-.54-.35-.07-.71-.14-1.07-.2-.19-.03-1.23-.16-.6-.1-.25-.02-.58-.06-.69-.07-.35-.03-.71-.06-1.06-.09-.76-.05-1.52-.08-2.29-.08-1.41,0-2.8.09-4.2.22-.09,0-.17.02-.24.03h-.09c-.32.05-.64.11-.96.17-.62.12-1.24.26-1.86.41-.64.16-1.27.35-1.9.56-.28.09-.56.19-.84.29-.04,0-.08.03-.11.04-.92.53-1.9.91-2.79,1.51-.05.03-.1.07-.15.11-.13.1-.26.22-.33.29-.28.26-.53.56-.8.83-.09.15-.19.29-.27.44-.02.04-.05.08-.07.13-.03.12-.07.26-.1.41v.27c.09.31.19.64.25.94.12.22.23.43.36.65.16.27.34.53.52.8.45.46.86.97,1.32,1.43.62.61,1.29,1.16,1.95,1.72.11.08.22.16.33.25.36.26.73.52,1.11.77,1.47.99,2.99,1.87,4.59,2.65.57.28,1.29.52,1.87.85.07.03.15.06.22.09.29.11.58.23.87.33,2.21.82,4.43,1.31,6.73,1.77.23.02.46.04.69.06.46.03.92.05,1.38.05s.96,0,1.44-.04c.13,0,.4-.03.65-.06.27-.05.67-.11.82-.15.38-.08.75-.18,1.12-.29.32-.1.64-.21.95-.33.07-.03.13-.06.19-.09.6-.3,1.15-.67,1.71-1.04.05-.04.09-.08.13-.12.25-.22.49-.45.71-.69.17-.18.33-.37.49-.56.04-.06.08-.11.12-.17.35-.52.63-1.07.91-1.63l.03-.09c.11-.31.2-.62.29-.93.09-.34.17-.68.24-1.03.02-.64.1-1.28.08-1.92l.03.02h0Z"/>
          <path class="st1" d="M319.13,195.65c-.79-.17-1.99-.56-2.88-.53h-.12c-.31-.03-.61-.07-.92-.1-.63-.07-1.27-.13-1.91-.18-1.29-.11-2.58-.18-3.88-.23-2.82-.11-5.64-.09-8.46.03-1.46.07-2.91.16-4.37.3-.71.07-1.43.15-2.14.23-.15.02-.42.05-.59.08-.16.02-.31.04-.47.07-2.26.35-4.51.8-6.7,1.45-.52.15-1.03.32-1.54.5-.1.03-.41.15-.68.25-.25.11-.7.31-.83.37-.4.2-.8.42-1.18.65-.16.1-.32.21-.48.31.26-.11.22-.26-.09.06-.12.12-.25.25-.37.36-.1.09-.02.04-.08.1-.02.03-.03.05-.05.09.02.1.05.19.09.28.21.33.4.69.59,1.02.01,0,.11.14.31.44.83.93,1.68,1.81,2.61,2.64.31.28.63.54.95.81-.01,0,.3.24.51.41.21.16.57.43.56.43.29.21.58.41.88.61,1.2.8,2.44,1.46,3.72,2.11.1.05.07.04.12.07.04,0,.02,0,.08.02.3.11.6.23.9.33.59.21,1.19.39,1.8.56.66.18,1.32.3,1.98.45.24.05.48.08.72.12-.27-.05-.38-.07-.49-.09-.2-.03-.25-.04,0,0,.18.03.41.07.54.08,1.24.08,2.47.14,3.72.07.3-.02,1.56-.17,1.49-.14.36-.06.73-.12,1.09-.19,1.17-.25,2.33-.57,3.46-.96.37-.13,2.27-.94.81-.27.51-.23,1.02-.46,1.52-.71,1.04-.52,2.04-1.1,3.01-1.74.45-.3.89-.62,1.33-.93.4-.36.43-.36.27-.22.11-.09.22-.17.32-.26.83-.71,1.62-1.46,2.36-2.26.34-.36.65-.74.97-1.12.28-.42.36-.51.32-.43.02-.02.04-.05.05-.07.56-.81,1.08-1.66,1.52-2.54.07-.14.14-.29.21-.43.12-.39.28-.77.39-1.16.04-.15.07-.3.1-.45-.36-.09-.71-.21-1.06-.28h0Z"/>
          <path class="st1" d="M153.42,358.66c-4.22.89-8.05,2.3-11.63,4.04-16.39,7.98-31.66,21.3-41.22,36.87-4.06,6.62-7.05,13.63-6.55,20.86.19,2.8,1.53,5.93,3.71,9.33,1.07,1.66,2.32,3.18,3.86,4.5.4.34.76.64,1.63,1.16.32.19,2.14,1.08,1.58.85,3.25,1.29,5.46,1.18,8.46.44,3.91-.96,7.13-2.73,10.66-5.19,7.99-5.56,14.48-13.49,19.74-21.6,5.73-8.84,10.32-18.5,12.78-28.77,1.82-7.58,2.31-16.05-.61-22.73-.81.06-1.63.07-2.41.23h0Z"/>
          <path class="st1" d="M347.74,483.69c-8.93.12-17.91,1.56-26.02,3.86-6.5,1.84-13.29,4.59-17.54,8.84-1.87,1.88-2.56,3.09-3.16,5.54-.02.1-.02.07-.04.12v.14c0,.28-.03.56-.03.84,0,.36.02.71.04,1.07,0,.07,0,.03,0,.06,0,.05,0,.02.02.08.12.61.27,1.2.45,1.8.34,1.11.41,1.16.6,1.55,3.97,8.06,12.57,14.19,20.28,18.66,3.51,2.04,7.09,3.75,11.06,4.64,2.57.58,4.77.56,7.24-.14.18-.05.23-.06.3-.08.3-.14.6-.27.88-.44.52-.31,1.03-.61,1.52-.96-.35.25.08-.02.64-.62.4-.42.79-.84,1.16-1.28.07-.13.72-1.05.86-1.28.39-.63.72-1.29,1.06-1.95.12-.24.23-.48.34-.73.02-.06.05-.12.06-.15.29-.75.55-1.51.79-2.27,2.07-6.65,2.28-12.81,1.94-20.14-.28-5.88-1.2-11.46-2.46-17.15h.01Z"/>
          <path class="st5" d="M735.24,130.07c17.73,26.15,29.75,54.69,25.35,88.86-.45,3.53-2.94,5.68-6.58,5.01-4.28-.79-8.62.57-12.97,2.05,3.08,2.87,5.97,5.94,8.53,9.38,18.15,24.36,14.89,56.06,8.01,83.83-3.92,15.82-10.35,31.29-9.27,47.87.9,13.92,6.99,26.72,10.64,40.02,3.95,14.37,6.6,32.03,1.73,46.46-4.94,14.66-16.36,25.63-28.1,35.12-12.99,10.51-25.73,22.31-40.74,29.89-14.17,7.15-30.76,11.25-46.65,11.38-18.18.15-39.19-3.07-56.01,5.59-12.01,6.19-25.87,14.95-32.89,26.84-2.74,4.64-4.41,11.33,0,15.58,3.21,3.09,8.59,3.14,12.76,3.32,9.38.4,20.83-.28,27.09,8.17,10,13.5.51,30.07-10.03,39.65-13.35,12.13-30.63,20.25-47.82,25.27-14.66,4.28-33.26,7.8-47.69.84-12.15-5.87-14.07-18.03-11.56-29.66-11.47,3.18-19.53,11.85-19.38,25.12.17,14.87,9.45,28.41,22.44,35.16,2.69,1.4,2.98,4.66,1.86,7.11-9.45,20.71-34.43,35.87-56.91,26.78-9.09-3.68-11.29-13.61-16.87-20.67-8.7-11-26.6-10.85-39.3-11.69-19.04-1.27-37.34-6.35-56.14-9.07-14.47-2.1-27.24-.02-38.5,9.84-7.26,6.36-13.72,14.06-18.76,22.28-2.87,4.69-4.88,10.33-8.74,14.34-9.32,9.69-26.76,8.24-38.41,4.81-15.99-4.71-31.39-11.06-44.94-20.84-18.92-13.65-34.87-30.74-51.68-46.8-14.73-14.07-31.32-29.56-50.68-37.06,71.73,129.7,209.87,217.56,368.56,217.56,232.48,0,420.94-188.47,420.94-420.94,0-113.12-44.71-215.73-117.31-291.37v-.02h.02Z"/>
          <path class="st2" d="M431.61.49C193.52.49.5,193.51.5,431.6s193.02,431.12,431.11,431.12,431.12-193.02,431.12-431.12S669.7.49,431.61.49ZM634.85,518.69c-28.56,62.91-74.55,117.9-133.81,153.94-63.35,38.53-140.54,54.42-214.06,45.55-69.12-8.34-133.97-40.15-180.21-92.65-47.02-53.38-71.59-122.91-75.51-193.43-4-71.96,8.97-145.24,39.54-210.67,29.81-63.8,78.35-119.39,144.19-146.7,51.8-30.35,113.29-44.8,172.69-45.95,37.85-.73,75.97,3.8,111.3,17.94,33.28,13.31,63.2,34.02,87.82,60.03,51.49,54.4,77.13,126.75,83.37,200.43,6.1,71.98-5.41,145.62-35.32,211.51h0Z"/>
          <path class="st4" d="M857.27,363.23c-.47,12.19-1.17,24.36-2.34,36.45-5.76,59.74-18.21,120.98-47.26,174.07-24.01,43.86-58.16,81.41-97.87,111.58-40.92,31.09-87.62,54.24-136.34,70.32-49.61,16.38-101.69,25.48-153.88,27.43-50.96,1.91-102.45-3.04-151.79-16.11-52.25-13.85-101.43-37.34-142.52-72.82-41.36-35.71-72.51-81.8-92.92-132.32C12.55,512.78,2.91,459.91,1.22,407.12c-.45,8.11-.74,16.26-.74,24.49,0,238.09,193.02,431.12,431.11,431.12s431.12-193.02,431.12-431.12c0-23.28-1.9-46.1-5.45-68.38h.01Z"/>
        </g>
        <path class="st6" d="M578.93,437.97c-8.75-11.09-26.63-4.54-34.58,4.23-1.25,1.38-2.33,2.9-3.32,4.49-1.74,2-3.25,4.18-4.4,6.69-1.35,2.97-2.05,6.29-2.34,9.53-.54,5.93.43,12.29,2.67,17.81,2.09,5.14,5.14,10.77,10.22,13.54,8.02,4.37,17.22,1.18,23.21-5.19,6.72-7.14,9.8-17.26,11.59-26.67.7-3.66,1-7.4.77-11.12-.28-4.59-.87-9.55-3.84-13.31h.02Z"/>
        <path class="st6" d="M626.99,444.32c-.26-.57-.52-1.15-.79-1.72-.25-.38-.68-.51-1.01-.79-.01-.05.02-.1,0-.15-.19-.42-.39-.84-.58-1.27-.41-.62-.96-1.05-1.64-1.28-.43-.27-.89-.41-1.4-.41-.79-.18-1.59-.16-2.39.05-.56.18-1.12.36-1.68.54-1.13.5-2.11,1.21-2.98,2.09.32-.27.64-.55.95-.82-.7.6-1.46,1.13-2.21,1.66-.37.27-.75.54-1.11.83-.71.57-1.39,1.17-2.08,1.77-.19.16-.38.33-.56.51-.21.27-.42.54-.63.82-.67.74-1.16,1.59-1.47,2.55-.06.29-.12.58-.18.87-.2.56-.24,1.12-.11,1.7.04.42.03.7.13,1.06.06.2.13.4.21.59.27.66.56,1.34.91,1.96.1.18.22.35.35.51.04.04.08.09.11.13.21.2.41.4.62.61.36.49.83.81,1.42.98l.8.37c.62.09,1.25.18,1.87.27h.4c.36-.02.88-.09,1.1-.11.26-.02.77-.05,1.14-.12.08-.01.15-.03.23-.05.37-.1,1.04-.34,1.13-.37.04-.01.78-.23,1.13-.37.06-.03.13-.06.19-.09.29-.14,1.86-1.03,2.14-1.21.03-.02.07-.04.1-.06.06-.04.12-.09.18-.14.35-.28,1.56-1.31,1.89-1.62.03-.03.07-.06.1-.1.05-.05.09-.1.13-.15.53-.63,1.05-1.31,1.54-1.97.19-.25.36-.52.55-.77-.14.17-.27.35-.41.53.5-.54.89-1.14,1.14-1.83.24-.33.41-.68.5-1.06.14-.67.28-1.35.42-2.02-.06-.64-.11-1.28-.17-1.93h.02Z"/>
        <path class="st6" d="M629.91,361.19c-.07-.48-.2-.96-.38-1.41-.4-1.01-.83-2.15-1.5-3.05-.11-.15-.24-.3-.37-.44-.62-.67-1.28-1.36-2-1.94-.84-.67-2.16-1.17-3.01-1.53-.33-.14-.67-.26-1.02-.33-1.14-.24-2.33-.45-3.49-.48-1.02-.03-2.07.07-3.1.23-.04-.04-.08-.08-.12-.12-.71-.5-1.49-.77-2.33-.81-1.62-.24-3.11.08-4.65.68-5.62,2.22-10.03,7.03-12.29,12.57-.72,1.76-1.14,3.76-1.15,5.66,0,1.76.16,3.64.73,5.33,1.17,3.43,3.16,6.43,6.22,8.47,3.57,2.38,7.94,3.14,12.13,2.28,1.33-.27,2.66-.68,3.88-1.28,1.04-.51,2.06-1.1,3.04-1.71.24-.15.46-.32.68-.49.91-.74,1.86-1.49,2.68-2.34.82-.84,1.5-1.83,2.2-2.76.41-.55.76-1.12,1.07-1.73.71-1.42,1.44-2.85,1.9-4.38.44-1.48.74-3.02.99-4.55.32-1.94.18-3.96-.11-5.89v.02h0Z"/>
        <path class="st6" d="M696.63,407.52c-7.98,0-15.45,14.18-4.86,14.18,7.98,0,15.45-14.18,4.86-14.18Z"/>
        <path class="st6" d="M707.33,603.88c-1.71-3.06-6.61-3.73-9.64-2.9-4.06,1.11-7.96,2.82-11.24,5.51-3.36,2.76-6.43,5.88-8.46,9.78-1.33,2.57-2.52,5.25-3.08,8.09-.45,1.04-.96,2.07-1.27,3.15-1.25,4.26-1.49,8.56.74,12.54,2.2,3.94,7.13,5.65,11.4,5.79,5.87.19,11.73-2.87,15.64-7.11,2.99-3.24,5.19-7.24,6.5-11.44,2.29-7.3,3.28-16.48-.6-23.42h.01Z"/>
        <path class="st6" d="M732.88,586.22c-8.37,0-16.2,14.87-5.1,14.87,8.37,0,16.2-14.87,5.1-14.87Z"/>
        <path class="st6" d="M609.79,685.31c-6.43,0-12.45,11.43-3.92,11.43,6.43,0,12.45-11.43,3.92-11.43Z"/>
        <g>
          <path class="st6" d="M146.7,559.17c-1.28-3.73-3.08-7.42-5.34-10.67-2.07-2.98-4.7-5.9-7.75-7.89-3.55-2.31-7.83-3.33-12.02-2.79-2.01-.37-4.14-.11-6.01.72-2.2.98-4.03,2.59-5.53,4.47-.03.02-.06.04-.09.07-.05.06-.08.13-.13.2-.32.42-.74.75-1.01,1.2.34-.44.68-.88,1.03-1.32-2.89,2.43-5.16,5.53-6.14,9.1-1.32,4.8-.34,9.64,2.95,13.44.54.62,1.13,1.26,1.75,1.89.02.08.03.16.05.25,1.06,4.1,2.56,8.02,4.43,11.82,1.5,3.06,3.57,6.04,6.39,8.02,5.39,3.79,12.47,2.34,17.6-1.16,2.78-1.89,4.97-4.43,6.84-7.2,2.08-3.09,3.64-6.55,4.19-10.24.49-3.24-.16-6.84-1.21-9.92h0Z"/>
          <path class="st6" d="M110.26,542.65c-.13.17-.27.34-.4.51.04-.03.08-.06.11-.08.11-.14.17-.3.29-.43Z"/>
        </g>
        <path class="st6" d="M172.32,603.15c-8.75,0-16.95,15.56-5.33,15.56,8.75,0,16.95-15.56,5.33-15.56Z"/>
        <path class="st6" d="M141.72,628.92c-6.27,0-12.15,11.15-3.82,11.15,6.27,0,12.15-11.15,3.82-11.15Z"/>
        <path class="st6" d="M89.28,468.65c-.85-3.3-2.23-6.48-3.79-9.51-1.32-2.56-3.08-4.73-5.31-6.57-2.72-2.24-7.31-1.45-10.21-.19-1.11.49-2.12,1.12-3.07,1.83-.76.09-1.52.3-2.24.62-2.41,1.04-4.65,2.77-6.05,4.98-.87,1.37-1.56,2.87-2.15,4.38-1.12,2.85-1.6,5.93-1.64,8.98-.04,3.12.23,6.38,1.09,9.39.78,2.72,2.02,5.57,3.99,7.64,1.81,1.9,3.26,2.91,5.69,3.93,1.66.69,3.57.93,5.35.99,5.39.17,10.69-2.24,14.38-6.1,5.31-5.54,5.79-13.29,3.96-20.37h0Z"/>
        <path class="st6" d="M198.74,658.32c-1.02-2.53-2.25-5.15-3.85-7.38-.81-1.12-1.74-2.09-2.73-3.05-.99-.98-1.97-1.91-3.14-2.67-.71-.33-1.43-.66-2.14-.99-1.28-.39-2.56-.47-3.86-.23-.96,0-1.88.19-2.75.59-1.5.38-2.88,1.05-4.13,2-.29.21-.56.44-.84.66-.21.08-.43.12-.64.21-1.37.61-2.58,1.46-3.62,2.54-.95.98-1.65,2.11-2.11,3.38-.26,1.25-.46,2.4-.55,3.56-.04.19-.08.38-.12.58-.05.62.05,1.21.15,1.79.02.16-.02.29,0,.45.14.92.37,1.83.71,2.7.51,1.32,1.1,2.67,1.9,3.84.8,1.17,1.86,2.2,2.93,3.11,2.18,1.88,5.12,2.66,7.93,2.86,4.27.3,8.34-1.52,11.87-3.7.7-.6,1.4-1.2,2.1-1.8.93-.9,1.63-1.94,2.1-3.12.7-1.47,1.45-3.71.79-5.33h0Z"/>
      </g>
    </g>
  </g>
</svg>