<?xml version="1.0" encoding="UTF-8"?>
<svg id="Calque_1" xmlns="http://www.w3.org/2000/svg" version="1.1" viewBox="0 0 863.22 863.22">
  <!-- Generator: Adobe Illustrator 29.1.0, SVG Export Plug-In . SVG Version: 2.1.0 Build 142)  -->
  <defs>
    <style>
      .st0 {
        opacity: .15;
      }

      .st1 {
        isolation: isolate;
      }

      .st2 {
        fill: #cf653d;
      }

      .st3 {
        fill: #b75737;
      }
    </style>
  </defs>
  <g class="st1">
    <g id="Mars">
      <g>
        <circle class="st2" cx="431.61" cy="431.61" r="431.61"/>
        <path class="st3" d="M669.82,773.78c-15.24-51.9-36.27-109.98-86.22-130.82-35.8-14.93-76.38-6.01-115.15-4.45-38.76,1.57-84.48-9.58-99.05-45.54-12.77-31.55,4.33-69.34-8.61-100.83-11.12-27.06-41.85-41.41-71.04-43.5-29.18-2.09-58.06,5.45-87.05,9.48-68.58,9.54-139.77-1.4-202.68-30.23,0,1.24,0,2.48,0,3.74,0,238.35,193.23,431.58,431.6,431.58,89.97,0,173.52-27.53,242.66-74.63-1.53-4.97-3.03-9.92-4.45-14.81h0ZM237.88,528.69c-.1.07-.22.14-.31.22-14.11,9.66-32.44,11.03-49.36,8.61-5.08-.72-10.24-1.81-14.59-4.51-4.37-2.7-7.84-7.32-7.96-12.46-.13-5.31,3.35-10.19,7.8-13.1s9.74-4.16,14.95-5.17c12.66-2.46,25.47-3.75,38.35-4.55,17.15-1.06,25.2,21.12,11.12,30.96h0Z"/>
        <path class="st3" d="M539.63,13.63C505.1,4.73,468.91,0,431.6,0c-103.13,0-197.8,36.16-272.03,96.52,1.06,1.72,2.2,3.4,3.45,5.02,10.23,13.4,25.37,23.7,30.73,39.69,10.06,29.96-18.78,57.69-28.8,87.67-12.09,36.19,5.5,77.5,34.77,102,29.27,24.49,67.92,34.79,105.82,39.23,34.99,4.11,72.43,3.32,102.75-14.63,30.32-17.93,50.03-57.49,35.82-89.73-11.02-24.99-40.08-43.73-37.42-70.91,1.54-15.95,14.42-28.7,28.53-36.33,14.12-7.62,29.94-11.54,44.35-18.58,38.06-18.62,63.66-60.24,63.1-102.57-.1-8-1.15-15.95-3-23.71v-.02l-.04-.02ZM459.96,80.14c-4.1,11.43-18.84,18.28-29.52,12.54-10.66-5.74-13.27-21.07-7.77-31.86,3.71-7.27,10.12-12.66,17.47-16.41,2.89.94,5.66,2.26,8.2,3.98,10.07,6.8,15.73,20.34,11.61,31.75h.01,0Z"/>
        <path class="st3" d="M863.22,431.62c0,84.02-24.01,162.44-65.54,228.75-52.6-31.46-102.68-67.13-149.57-106.6-17.59-14.81-35.08-30.58-46.08-50.76-11-20.2-14.49-45.85-3.53-66.04,10.03-18.47,31.81-34.8,25.96-55-7.48-25.81-47.77-20.14-67.61-38.26-13.77-12.57-14.44-34.92-6.62-51.84.34-.71.66-1.4,1.01-2.1,9.44-18.76,1.62-41.43-17.56-49.96-13.24-5.9-23.67-15.06-27.53-29.18-7.2-26.37,14.64-51.3,36.07-68.28,38.12-30.22,81.01-54.39,126.56-71.39,117.14,77.18,194.44,209.89,194.44,360.66h0Z"/>
        <g class="st0">
          <path d="M863.22,431.62c0,238.37-193.23,431.6-431.62,431.6-137.8,0-260.53-64.59-339.55-165.15,73.37,57.61,165.86,91.97,266.37,91.97,238.37,0,431.62-193.23,431.62-431.62,0-100.54-34.38-193.06-92.02-266.42,100.58,79.02,165.18,201.77,165.18,339.61h.02Z"/>
        </g>
      </g>
      <ellipse class="st2" cx="303.51" cy="209.73" rx="47.61" ry="56.18"/>
      <path class="st3" d="M135.8,403.35s-49.75,8.89-58.64,0-33.77-64.09-33.77-64.09c0,0,44.43,29.58,56.87,26.4s96.49,18.14,105.11,18.14,3.58,3.55,50.53,3.55,77.16,24.88,139.36,28.43,95.96,39.09,101.3,0,7.54-44.67,8.21-76.54,18.44-23.22,29.11,0c10.66,23.22,12.24,37.45,8.79,60.54-3.45,23.1-42.55-38.15-7.01,56.45,35.54,94.6,19.55,94.6,40.87,107.05s60.43,19.55,67.53,33.77c7.1,14.22,26.66,14.22-8.89,26.66-35.54,12.44-37.32,8.89-53.32,0s-19.55-35.89-69.3-37.49-49.56,9.06-55.88-22.92-15.16-47.66-16.08-65.59c-.92-17.93,9.61-36.54-8.98-41.46-18.58-4.92-88.62-21.25-94.47-24.64s-.99-.52-33.63-3.72c-32.64-3.2-91.3-12.09-98.41-12.09s-11.38,13.51-39.45,12.09c-28.07-1.43-56.51,0-56.51,0l26.66-24.52h0v-.02Z"/>
    </g>
  </g>
</svg>