<?xml version="1.0" encoding="UTF-8"?>
<svg id="Calque_1" xmlns="http://www.w3.org/2000/svg" version="1.1" viewBox="0 0 857.79 860.36">
  <!-- Generator: Adobe Illustrator 29.1.0, SVG Export Plug-In . SVG Version: 2.1.0 Build 142)  -->
  <defs>
    <style>
      .st0 {
        fill: #e38f00;
      }

      .st1 {
        fill: #d97400;
      }

      .st2 {
        opacity: .15;
      }

      .st3 {
        fill: #8a4400;
      }

      .st4 {
        isolation: isolate;
      }

      .st5 {
        fill: #a15100;
      }

      .st6 {
        fill: #c86600;
      }
    </style>
  </defs>
  <g class="st4">
    <g id="Mercure">
      <g>
        <path class="st6" d="M857.55,430.19c0,237.58-191.96,430.17-428.78,430.17-57.03,0-111.49-11.18-161.27-31.48-89.88-36.63-164.57-102.94-211.97-186.84-23.57-41.68-40.39-87.7-48.99-136.59-4.3-24.44-6.54-49.59-6.54-75.27C0,192.59,191.97,0,428.77,0c99.89,0,191.81,34.27,264.69,91.74,33.75,26.6,63.45,58.19,87.95,93.66,46.41,67.16,74.22,148.2,76.04,235.68.07,3.02.1,6.07.1,9.11h-.01.01Z"/>
        <path class="st0" d="M857.45,421.07c-13.76,32.08-36.63,59.24-65.93,73.93-9.93,4.99-20.35,8.65-30.73,12.3l-61.48,21.59c-24.31,8.55-44.36,26.73-54.18,50.64-3.11,7.57-7.6,14.51-13.06,20.33-14.45,15.38-24.92,33.9-30.98,54.15-2.36,7.9-6.82,15.14-12.94,19.77-16.94,12.82-39.56,10.67-59.51,5.41-30.33-8.01-67.06-20.2-88.94,4.4-9.12,10.26-13.02,24.78-20.43,36.61-2.77,4.43-6.55,8.51-10.77,11.48-10.38,7.33-19.01,16.94-24.03,28.62-2.07,4.81-4.95,9.27-8.34,12.98-9.25,10.12-21.6,15.86-33.62,21.35-25,11.42-49.99,22.85-74.98,34.27-20.15-8.2-39.52-17.91-58-28.97-30.74-18.39-58.99-40.52-84.12-65.77-27.19-27.3-50.72-58.28-69.84-92.1,20.04-19.34,49.62-31.04,77.86-34.97,44.55-6.22,90.68.23,134.26-10.96,30.35-7.8,60.25-28.77,73.31-55.87,9.43-19.57,29.07-31.73,50.29-31.73,2.5,0,5.03.18,7.56.52,22.85,3.12,45.18-8.21,56.39-28.43,3.72-6.72,8.99-12.74,15.05-17.21,16.28-12.03,36.83-16.21,56.23-21.95,43.15-12.79,83.51-34.96,117.51-64.55,36.83-32.05,65.7-72.13,94.23-111.83,17.17-23.9,34.72-51.61,43.2-79.65,46.41,67.16,74.22,148.2,76.04,235.68l-.03-.03h-.02Z"/>
        <path class="st1" d="M693.46,91.75c-21.8,21.49-49.23,37.28-79.04,44.19-27.29,6.34-57.07,6.15-80.79,21.11-27.29,17.18-39.61,49.83-56.08,77.63-38.73,65.34-109.51,110.47-184.91,117.91-45.32,4.47-91.56-3.86-136.34,4.38-44.38,8.17-85.49,33.08-113.37,68.67-18.21,23.21-30.66,50.87-36.38,79.84C2.25,481.04,0,455.89,0,430.21,0,192.61,191.97.01,428.77.01c99.89,0,191.81,34.27,264.69,91.74h0Z"/>
        <path class="st5" d="M149.15,365.32c-11.37,19.31-24.46,38.97-25.76,61.36-.46,7.9.58,15.99-1.37,23.67-1.97,7.67-8.21,15.14-16.09,14.93-11.11-.29-16.13-13.82-18.19-24.77-6.62-35.05-12.59-71.31-4.91-106.13,3.68-16.71,11.24-33.1,21.95-46.46,18.07-22.56,54.44-14.72,61.09,13.44.04.17.08.35.11.51,4.88,21.88-5.44,44.12-16.81,63.44h-.02Z"/>
        <path class="st3" d="M136.47,328.15c-3.36,4.54-7.41,8.58-11.94,11.92-1.88,1.38-3.92,2.7-6.23,3.21-2.28.5-4.9.13-6.59-1.52-2.88-2.75-2.01-7.51-.64-11.25,1.57-4.22,7.34-14.96,10.15-20.1,2.05-3.77,6.11-6.2,10.37-5.76.64.06,1.26.19,1.88.37,3.68,1.1,6.69,4.24,7.61,7.97,1.32,5.3-1.38,10.76-4.63,15.14h.02v.02Z"/>
        <path class="st6" d="M736.23,422.22c-12.25,14.38-30.04,23.9-48.77,26.09-6.53.75-13.42.61-19.32-2.34-5.89-2.95-10.46-9.25-9.76-15.82.71-6.45,5.95-11.3,10.83-15.53,11.46-9.9,22.93-19.79,34.38-29.7.72-.63,1.46-1.26,2.21-1.87,11.07-9.25,27.97-7.53,36.29,4.26,1.52,2.16,2.68,4.55,3.36,7.21,2.5,9.82-2.66,20-9.22,27.71h.01-.01Z"/>
        <path class="st5" d="M255.23,255.45c-8.14,6.28-17.17,11.39-26.72,15.1-5.39,2.1-11.83,3.64-16.66.47-5.39-3.55-6.08-11.27-4.75-17.59,1.9-8.97,7-17.05,13.9-23.04,11.61-10.09,28.87-10.78,40.89-1.18,2.43,1.95,4.23,4.01,4.64,6.01,1.6,8.01-4.85,15.27-11.3,20.25h-.01v-.02Z"/>
        <path class="st6" d="M341.05,694.41c-7.82,12.1-22.22,17.72-35.23,23.82-38.54,18.06-71.97,46.71-96.31,81.69-30.74-18.39-58.99-40.52-84.12-65.77,33.51-25.99,74.67-42.14,116.97-44.92,19.82-1.31,41.35-.31,57.49-11.91,9.71-6.98,18.37-18.67,30.25-17.33,14.27,1.63,18.79,22.32,10.96,34.43h0Z"/>
        <path class="st5" d="M585.52,746.31c-9.27,11.91-23.43,18.81-37.4,24.35-25.2,9.97-51.61,16.82-78.46,20.43-22.52,3.02-33.58-26.61-14.74-39.37,9.67-6.54,20.7-10.95,32.39-12.33,19.89-2.35,40.05,3.06,59.99,1.03,8.57-.88,17.48-3.95,24.79-8.77,9.46-6.24,20.58,5.26,13.73,14.29-.09.12-.19.24-.27.36h-.03Z"/>
        <path class="st5" d="M376.95,122.14c-9.05,6.94-20.13,10.57-31.09,13.7-38.24,10.91-77.8,17.18-117.54,18.64-10.69.39-24.27-1.59-27.16-11.91-2.47-8.77,4.94-17.07,12.33-22.35,25.29-18.08,56.73-24.53,86.44-33.62,14.49-4.43,29.22-9.96,42.38-17.57,12.58-7.27,28.58-6.15,39.24,3.74,4.85,4.5,8.86,10.95,10.48,20.17,1.99,11.25-6.02,22.29-15.07,29.21h0Z"/>
        <path class="st5" d="M455.73,417.82c-19.9,16.84-46.12,24.91-72.11,26.34-11.43.64-26.15-2.57-27.96-13.93-.94-5.8,2.17-11.39,5.16-16.43,16.06-27.1,33.74-55.73,62.19-69.17.19-.09.38-.18.57-.26,29.55-13.64,60.35,16.15,48.57,46.57-4.29,11.08-9.75,21.23-16.44,26.89h.02Z"/>
        <path class="st5" d="M637.58,245.92c-5.6.2-10.69-3.69-13.65-8.48-2.95-4.77-4.26-10.37-5.8-15.76-8.98-31.34-28.34-59.59-54.29-79.22-8.05-6.1-17.01-11.72-22.01-20.51-4.99-8.8-3.99-22.08,5.01-26.65,7.8-3.97,17.12.27,24.62,4.78,22.49,13.54,65.93,34.32,76.75,56.35,10.81,22.04,12.93,48.22,5.8,71.73-2.5,8.27-7.83,17.43-16.43,17.76h.01-.01Z"/>
        <g class="st2">
          <path d="M857.79,430.19c0,237.58-191.96,430.17-428.78,430.17-136.9,0-258.81-64.38-337.31-164.6,72.89,57.41,164.77,91.67,264.62,91.67,236.8,0,428.78-192.59,428.78-430.18,0-100.2-34.16-192.42-91.41-265.53,99.92,78.77,164.1,201.1,164.1,338.47h0Z"/>
        </g>
      </g>
    </g>
  </g>
</svg>