<?xml version="1.0" encoding="UTF-8"?>
<svg id="Calque_1" xmlns="http://www.w3.org/2000/svg" version="1.1" viewBox="0 0 853.23 853.22">
  <!-- Generator: Adobe Illustrator 29.1.0, SVG Export Plug-In . SVG Version: 2.1.0 Build 142)  -->
  <defs>
    <style>
      .st0 {
        fill: #00aedc;
      }

      .st1 {
        fill: #0088b1;
      }

      .st2 {
        opacity: .15;
      }

      .st3 {
        isolation: isolate;
      }

      .st4 {
        fill: #0095cf;
      }
    </style>
  </defs>
  <g class="st3">
    <g id="Neptune">
      <g>
        <g>
          <path class="st4" d="M847.55,495.6c-2.74,16.73-6.42,33.07-11,48.99-4.2,14.61-9.11,28.87-14.73,42.71-73.22,180.58-263.84,293.08-464.21,260.24-108.82-17.84-201.25-75.4-264.84-155.43-10.28-12.94-19.81-26.45-28.54-40.51-24.68-39.69-42.92-83.53-53.55-129.82-4.27-18.67-7.3-37.73-9.02-57.09-1.04-11.55-1.59-23.21-1.65-34.93-.09-12.58.4-25.24,1.44-37.97.95-11.33,2.36-22.75,4.22-34.16,13.27-80.94,48.49-152.78,98.6-210.46,37.1-42.72,82.37-77.67,132.91-102.76C314.44,6.04,403.99-9.33,495.59,5.68c19.26,3.16,38.01,7.57,56.16,13.12,39.68,12.11,76.59,29.73,109.98,51.8,69.24,45.79,123.47,110.85,156.26,186.32,19.97,45.93,31.99,95.69,34.66,147.29.44,8.27.62,16.59.55,24.93-.08,10.97-.58,22.03-1.53,33.12-.94,11.08-2.3,22.19-4.13,33.35h.01Z"/>
          <path class="st1" d="M757.5,157.42c-14.6,46.21-35.45,89.87-73.59,118.23-33.83,25.15-76.61,34.38-118.12,41.69-75.38,13.27-151.51,22.3-227.91,27.07-61.93,3.85-124.94,4.81-185.06-10.52-45.3-11.56-89.18-33.36-122.31-65.79,17.91-44.86,43.04-85.58,73.77-120.94,19.75-22.74,41.81-43.27,65.73-61.28,62.81,15.76,141.64,29.36,217.58,25.45,50.19-2.58,168.39-46.27,225.53-68.44,16.91,8.22,33.14,17.49,48.61,27.71,36.38,24.05,68.6,53.42,95.75,86.83h.02Z"/>
          <path class="st0" d="M661.75,70.6c-.96,1.19-2.57,2-2.93,3.46-15.97,64.4-122.87,101.53-183.6,112.02-128.52,22.18-281.38,25.12-370.94-38.92,37.1-42.72,82.37-77.67,132.91-102.76,67.45,17.19,134.28,35.09,200.77,19.04,39.27-9.48,76.06-30.52,113.79-44.64,39.68,12.11,76.59,29.73,109.98,51.8h.02Z"/>
          <path class="st0" d="M851.68,462.25c-16.11,17.84-37.57,31.01-59.44,41.54-71.8,34.56-152.29,46.14-231.64,53.51-84.62,7.87-169.58,11.47-254.48,15.07-72.88,3.07-147.37,5.96-217.21-15.09-27.49-8.28-53.83-20.3-78.22-35.5C3.87,491.98.21,461.16.02,429.75c-.09-12.58.4-25.24,1.44-37.97,65.31,34.63,137.65,55.98,211.33,62.19,60.4,5.09,121.16.17,181.58-4.76,54.97-4.47,110.03-8.97,164.49-17.63,61.83-9.85,124.35-25.73,175.83-61.38,39.25-27.2,71.24-67.79,83.31-113.3,19.97,45.93,31.99,95.69,34.66,147.29.99,19.14.68,38.51-.98,58.05h0Z"/>
          <path class="st1" d="M847.55,495.6c-2.74,16.73-6.42,33.07-11,48.99-4.2,14.61-9.11,28.87-14.73,42.71-38.11,39.27-73.18,84.33-123.44,103.55-72.41,27.71-154.72-6.17-230.81,8.78-30.58,6-59.12,19.71-89.45,26.84-58.49,13.72-119.58,2.21-178.56-9.32-35.86-7-72.01-14.12-106.8-25.03-10.28-12.94-19.81-26.45-28.54-40.51-24.68-39.69-42.92-83.53-53.55-129.82-4.27-18.67-7.3-37.73-9.02-57.09,37.52,33.68,86.31,55.85,136.1,66.14,74.32,15.31,151.39,7.32,226.35-4.54,74.96-11.84,149.82-27.56,225.7-27.53,43.73.02,87.89,5.23,130.94-2.33,49.46-8.71,94.42-34,132.46-67.28-.08,10.97-.58,22.03-1.53,33.12-.94,11.08-2.3,22.19-4.13,33.35h0v-.03Z"/>
          <path class="st0" d="M717.3,738.78c-93.27,86.75-224.26,130.96-359.69,108.76-72.26-11.84-137.28-41.2-191.44-83.02,178.35,51.31,371.89,42.52,551.13-25.74Z"/>
        </g>
        <g class="st2">
          <path d="M847.55,495.61c-38.11,232.47-257.44,390.03-489.93,351.93-134.39-22.03-243.76-104.64-304.74-215.34,62.35,67.91,147.06,116.21,245.08,132.27,232.47,38.11,451.83-119.45,489.93-351.94,16.07-98.05-2.68-193.78-47.15-274.53,85.45,93.15,128.85,223.18,106.81,357.6h0Z"/>
        </g>
      </g>
    </g>
  </g>
</svg>