<?xml version="1.0" encoding="UTF-8"?>
<svg id="Calque_1" xmlns="http://www.w3.org/2000/svg" version="1.1" viewBox="0 0 1762.49 591.66">
  <!-- Generator: Adobe Illustrator 29.1.0, SVG Export Plug-In . SVG Version: 2.1.0 Build 142)  -->
  <defs>
    <style>
      .st0 {
        fill: #fff;
      }

      .st1 {
        fill: #bde2f4;
      }
    </style>
  </defs>
  <g>
    <path class="st0" d="M996.97,371.21c46.3-6.92,89.35,6.12,122.43,31.5,8.83-33.94,39.41-59.11,76.11-59.11,3.06,0,5.97.56,8.94.9-1.58-8.66-2.5-17.55-2.5-26.67,0-80.06,63.46-144.97,141.75-144.97s135.6,58.97,141.19,133.79c18.66-5.17,38.23-8.15,58.54-8.15,120.98,0,219.06,98.08,219.06,219.06,0,26.05-4.78,50.92-13.12,74.09h-876.8c-10.64-25.88-14.86-55.08-10.27-85.7,10.36-69.09,65.56-124.42,134.66-134.74h.01Z"/>
    <path class="st1" d="M958.11,382.36c-14.95,21.5-22.89,48.24-20.3,76.95,4.93,54.83,48.98,99.46,103.76,104.96,45.12,4.53,85.64-16.77,108.57-50.88,12.91,11.51,29.88,18.56,48.53,18.56,20.5,0,39.01-8.47,52.27-22.08,27.51,17.23,60.01,27.22,94.86,27.22,40.76,0,78.32-13.65,108.42-36.59,27.08,29.05,67.41,45.57,111.49,39.43,56.45-7.86,101.48-53.74,108.38-110.31,5.54-45.48-12.92-86.89-44.34-113.44,78.06,33.51,132.74,111.04,132.74,201.37,0,26.05-4.78,50.92-13.12,74.09h-876.79c-7.77-18.88-12.11-39.53-12.11-61.21,0-66.43,40.22-123.45,97.64-148.08h0Z"/>
  </g>
  <g>
    <path class="st0" d="M1362.79,393.11c-30.96,0-59.36,10.97-81.53,29.24-13.54-39.2-50.62-67.4-94.39-67.53-10.63-43.94-50.11-76.62-97.32-76.62-55.36,0-100.23,44.87-100.23,100.23,0,3.4.18,6.77.51,10.09-3.32-.31-6.68-.51-10.08-.51-18,0-34.94,4.47-49.86,12.27-7.01-74.56-69.73-132.93-146.13-132.93-31.52,0-60.65,10.02-84.58,26.93-21.24-77.31-91.84-134.18-175.89-134.18-89.05,0-163.11,63.78-179.23,148.13-79.22.21-146.4,50.93-171.46,121.61-8.94-2.22-18.25-3.53-27.88-3.53-63.82,0-115.55,51.73-115.55,115.55,0,17.86,4.17,34.7,11.4,49.8h1429.56c13.23-20.18,20.99-44.29,20.99-70.23,0-70.87-57.45-128.32-128.32-128.32h-.01Z"/>
    <path class="st1" d="M1400.36,398.73c9.68,15.06,15.36,32.94,15.36,52.17,0,53.42-43.3,96.72-96.72,96.72-41.97,0-77.59-26.78-90.98-64.15-12.14,4.16-25.12,6.53-38.67,6.53-28.04,0-53.77-9.74-74.15-25.93-28.59,31.11-69.6,50.62-115.18,50.62-29.64,0-57.31-8.31-80.93-22.64-29.43,36.39-74.41,59.68-124.86,59.68-62.76,0-117.07-36.04-143.46-88.53-21.32,7.99-44.39,12.39-68.5,12.39-35.05,0-67.92-9.27-96.37-25.42-33.07,47.68-88.16,78.93-150.58,78.93-70.91,0-132.36-40.32-162.8-99.27-8.93-2.21-18.22-3.52-27.84-3.52-63.82,0-115.55,51.73-115.55,115.55,0,17.86,4.17,34.7,11.4,49.8h1429.56c13.23-20.18,20.99-44.29,20.99-70.23,0-57.79-38.22-106.63-90.75-122.7h.03Z"/>
  </g>
  <g>
    <g>
      <path class="st0" d="M1092.77,470.07c-11.08,0-21.56,2.27-31.38,5.88-9.52-117.59-107.78-210.1-227.82-210.1-16.62,0-32.79,1.87-48.41,5.24-49.33-91.93-146.29-154.48-257.92-154.48-128.68,0-237.7,83.18-276.88,198.62-23.13-11.39-49.05-17.96-76.58-17.96C77.8,297.27,0,375.07,0,471.05c0,46,18.01,87.71,47.19,118.8h250.2c.46.59.88,1.22,1.35,1.8.56-.58,1.08-1.21,1.64-1.8h878.72c2.98-9.01,4.98-18.47,4.98-28.47,0-50.43-40.88-91.31-91.31-91.31h0Z"/>
      <path class="st1" d="M1109.19,471.62c6.21,9.63,9.85,21.07,9.85,33.38,0,34.1-27.64,61.74-61.74,61.74-23.42,0-43.8-13.05-54.26-32.27-28.43,17.8-62,28.15-98.02,28.15-78.15,0-144.95-48.43-172.14-116.89-22.82,21.39-53.41,34.58-87.15,34.58-45.7,0-85.67-24.1-108.2-60.21-28.44,38.98-74.45,64.32-126.4,64.32-16.15,0-31.73-2.45-46.38-7-27.22,46.05-77.34,76.96-134.71,76.96-86.38,0-156.4-70.02-156.4-156.4,0-30.57,8.8-59.07,23.96-83.16C39.82,343.06,0,402.4,0,471.05c0,46,18.01,87.71,47.19,118.8h250.2c.46.59.88,1.22,1.35,1.8.56-.58,1.08-1.21,1.64-1.8h878.72c2.98-9.01,4.98-18.47,4.98-28.47,0-44.82-32.31-82.02-74.9-89.76h.01Z"/>
    </g>
    <path class="st0" d="M233.99,63.72c-5.14-1.88-10.12-2.34-14.83-1.87-2.01-28.78-25.97-51.51-55.26-51.51s-55.41,24.81-55.41,55.41c0,2.44.17,4.84.48,7.2-1.23-.16-2.47-.28-3.74-.28-15.6,0-28.24,12.64-28.24,28.24v.1c.02,5.48,4.71,9.8,10.18,9.8h44.47s.02-.01.03,0h106.85c10.38,0,18.72-8.94,17.56-19.25-.01-.13-.03-.26-.05-.38-1.55-12.48-10.24-23.14-22.05-27.46h0Z"/>
    <path class="st0" d="M1407.14,119.29c-1.31,0-2.6.07-3.88.2-2.28-32.74-29.55-58.6-62.87-58.6-2.13,0-4.23.11-6.31.32-11.91-35.57-45.47-61.21-85.04-61.21-49.33,0-89.35,39.83-89.67,89.09-9.31-8.66-21.75-14-35.47-14-28.8,0-52.14,23.35-52.14,52.14,0,6.63,1.29,12.94,3.54,18.77h97.21c.8-2.08,1.47-4.22,2.01-6.42,1.49,2.22,3.08,4.35,4.75,6.42h264.45c-4.94-15.49-19.44-26.71-36.56-26.71h-.02Z"/>
  </g>
</svg>