<?xml version="1.0" encoding="UTF-8"?>
<svg id="Calque_1" data-name="Calque 1" xmlns="http://www.w3.org/2000/svg" viewBox="0 0 1004.78 701.84">
  <defs>
    <style>
      .cls-1 {
        fill: #b8a43e;
      }

      .cls-2 {
        fill: #97862a;
      }

      .cls-3 {
        fill: #d7c046;
      }

      .cls-4 {
        fill: #c8b33e;
      }

      .cls-5 {
        fill: #e9d47d;
      }

      .cls-6 {
        fill: #f2e5c4;
      }

      .cls-7 {
        fill: #ad9934;
      }

      .cls-8 {
        fill: #645c2f;
      }

      .cls-9 {
        opacity: .1;
      }
    </style>
  </defs>
  <path class="cls-1" d="M856.57,350.92c0,53.92-12.12,105.01-33.76,150.65-10.89,22.98-24.2,44.58-39.6,64.46-63.94,82.64-163.89,135.81-276.2,135.81-23.38,0-46.21-2.3-68.3-6.7-23.23-4.61-45.62-11.54-66.94-20.53-125.91-53.07-214.33-178.01-214.33-323.69C157.43,157.12,313.94,0,507,0s349.57,157.12,349.57,350.92Z"/>
  <path class="cls-3" d="M687.4,53.08c-36.8,42.56-94.76,95.7-179.4,137.78-104.75,52.08-196.09,64.66-259.93,64.66s-59.13-3.41-75.36-6.47c1.53-4.94,3.17-9.88,4.94-14.81,3.17-8.93,6.82-17.87,10.7-26.45,3.53-7.64,7.17-15.05,11.17-22.45,2.94-5.41,6.11-10.82,9.4-16.11s6.7-10.58,10.23-15.64c11.76.94,25.98,1.41,42.2.94,45.97-1.53,118.39-12.23,202.91-54.31,55.02-27.39,95.93-60.19,124.03-87.7,8.58,2.12,17.16,4.47,25.51,7.17,7.99,2.59,15.99,5.41,23.75,8.58,4.11,1.65,8.11,3.41,12.11,5.17,6.58,2.94,13.05,6.11,19.52,9.52,6.11,3.17,12.11,6.58,17.99,10.11h.24Z"/>
  <path class="cls-6" d="M852.46,298.66c-15.87,47.97-18.57,91.93-265.69,207.26-293.79,137.08-371.03,40.56-371.03,40.56-3.88-5.76-7.52-11.52-10.93-17.52-8.23-14.11-15.52-28.8-21.75-44.09-5.88-14.58-10.93-29.51-14.93-45.03-2.35-9.17-4.35-18.57-6-28.1-.35-2.23-.71-4.47-1.06-6.82-1.06-6.82-1.88-13.64-2.47-20.57,12.11,3.29,48.79,11.76,102.98,12.34h5.41c87.82,0,178.34-20.22,269.45-60.07,97.93-42.91,164.59-99.46,203.27-139.31,22.1-22.69,37.38-42.32,46.55-55.14,3.64,4.82,7.05,9.64,10.46,14.58,1.53,2.23,2.94,4.35,4.35,6.58,22.22,34.56,38.56,73.12,47.61,114.62.24,1.06.47,2,.59,3.06,1.18,5.64,2.23,11.29,3.06,17.05v.47l.12.12Z"/>
  <path class="cls-4" d="M778.16,131.96c-46.2,55.84-118.15,124.85-220.9,177.75-55.49,28.57-112.27,49.38-168.47,61.84-42.44,9.4-84.64,14.23-125.79,14.23s-6.58,0-9.88,0c-40.44-.71-72.89-6.11-95.23-11.29-.35-5.76-.59-11.64-.59-17.52v-4.23c0-36.09,5.41-70.89,15.64-103.57,1.53-4.94,3.17-9.88,4.94-14.81,10.35,3.17,40.56,10.82,85.12,10.82h.12c74.53,0,151.89-20.34,229.95-60.54,82.06-42.2,138.84-97.46,171.99-136.37,1.53-1.76,3.06-3.53,4.47-5.29,6.11,3.17,12.11,6.58,17.99,10.11,29.63,17.87,56.43,40.09,79.47,65.72,3.88,4.35,7.64,8.7,11.4,13.28l-.24-.12Z"/>
  <path class="cls-7" d="M796.74,156.88c-9.64,12.23-22.22,26.8-38.09,42.79-39.62,39.97-108.16,97.11-210.2,142.13-122.38,54.08-228.31,67.01-295.55,68.42-4.47,0-8.82.12-13.05.12-33.62,0-60.31-2.7-78.65-5.29-1.06-6.82-1.88-13.64-2.47-20.57,0-1.18-.24-2.35-.35-3.53-.12-2.12-.35-4.35-.47-6.47-.35-5.76-.59-11.64-.59-17.52,17.16,3.06,50.9,7.52,96.75,6.35,62.54-1.53,161.06-13.87,275.45-64.31,94.4-41.73,157.89-94.17,194.45-130.85,19.52-19.52,33.62-36.8,43.03-49.38,3.88,4.35,7.64,8.7,11.4,13.28,2.7,3.41,5.41,6.82,7.99,10.23,3.64,4.82,7.05,9.64,10.46,14.58h-.12Z"/>
  <path class="cls-2" d="M856.57,331.64c-.12.13-.24.25-.35.38-44.44,48.25-121.44,117.27-236.18,171.73-137.78,65.47-256.87,81.05-332.47,82.82-5.06,0-9.99.13-14.81.13-9.17,0-17.87-.13-26.22-.51-1.06-1.27-2-2.41-3.06-3.67-5.76-7.09-11.29-14.44-16.58-22.04-2.59-3.67-5.06-7.47-7.52-11.27,18.93,1.77,42.2,2.91,68.89,2.15,72.3-1.77,186.34-16.97,318.59-79.78,109.45-51.92,182.81-117.4,225.13-163.24,7.88-8.48,15.05-16.72,21.4-24.44.71,5.45,1.29,11.02,1.76,16.59,0,1.39.24,2.91.35,4.31.59,8.86,1.06,17.73,1.06,26.72v.13Z"/>
  <path class="cls-3" d="M852.46,406.35c-.71,4.35-1.41,8.58-2.23,12.93-.71,3.64-1.41,7.41-2.35,11.05-1.88,8.11-4,16.11-6.35,24.1h0c-2.35,2.12-4.7,4.11-7.17,6.35-39.27,33.86-107.33,82.29-208.56,120.5-121.56,45.85-226.54,56.9-293.2,58.08h-26.22c-10.23-7.17-19.99-14.81-29.27-22.92-1.65-1.53-3.41-3.06-5.06-4.47-.35-.24-.59-.59-.94-.82,17.05,1.29,37.97,2.12,62.07,1.65,64.31-1.18,165.65-11.99,283.21-56.31,96.99-36.56,162.12-82.65,199.62-114.98,15.28-13.17,27.39-25.04,36.44-34.92v-.24Z"/>
  <path class="cls-3" d="M822.67,501.51c-10.93,22.98-24.3,44.59-39.77,64.48-40.62,26.19-92.18,53.77-155.57,77.71-69.51,26.22-134.1,42.08-190.38,51.45-23.32-4.61-45.81-11.54-67.22-20.54,66.66-6.41,152.13-22.3,247.27-58.17,95.63-36.04,163.06-80.51,205.68-114.93Z"/>
  <path class="cls-3" d="M876.41,451.46v.26s-.04.04-.05.06c.01-.11.04-.21.05-.32Z"/>
  <path class="cls-5" d="M854.81,373.32c-.35,6.47-.94,12.81-1.76,19.28-.47,4.23-1.06,8.46-1.76,12.58h0c-.71,4.35-1.41,8.58-2.23,12.93-6.23,6.11-13.28,12.46-21.16,19.28-39.27,33.86-107.33,82.29-208.56,120.5-121.56,45.85-226.54,56.9-293.2,58.08h-13.05c-13.52,0-25.98-.35-37.15-.94-1.65-1.53-3.41-3.06-5.06-4.47-.35-.24-.59-.59-.94-.82-8.23-7.52-16.11-15.4-23.63-23.75,19.28,2.12,46.67,3.88,80.41,3.29,64.31-1.18,165.65-11.99,283.21-56.31,141.19-53.26,216.43-126.73,244.88-159.53v-.12Z"/>
  <path class="cls-5" d="M637.79,28.27c-.82.94-1.65,1.88-2.59,2.94-30.33,33.98-83,82.53-161.41,120.85-94.29,46.08-175.87,57.14-227.72,58.31h-10.11c-18.81,0-34.68-1.18-47.38-2.7,3.53-7.64,7.17-15.05,11.17-22.45,12.93,1.18,28.69,2,46.91,1.53,49.26-1.18,126.73-11.99,216.79-55.96,72.07-35.27,121.21-79.35,150.6-111.33,7.99,2.59,15.99,5.41,23.75,8.58v.24Z"/>
  <g class="cls-9">
    <path d="M842.31,254.94c9.45,34.25,20.37,93.03,6.74,163.17-5.31,27.34-27.36,123.27-114.64,198.86-18.55,16.06-60.28,48.73-122.71,68.54-96.52,30.62-177.29,9.8-197.09,4.2-53.63-15.15-92.24-40.61-114.64-57.91,69.89,27.76,149.49,33.47,227.85,10.99,47.44-13.61,89.81-36.23,125.73-65.4,146.91-119.32,119.47-334.78,115.68-362.17-5.96-43.05-15.56-105.65-66.73-149.42-23.09-19.75-47.29-29.37-63.58-34.32,38.14,16.31,117.98,57.22,169.99,145.38,16.41,27.82,26.75,54.75,33.4,78.1Z"/>
  </g>
  <path class="cls-8" d="M1003.84,166.43c-.05-.4-.15-.81-.3-1.19-17.62-46.24-84.67-63.45-199.4-51.15-9.1.98-18.46,2.17-28.05,3.5-3.93.55-5.69,5.22-3.13,8.24,1.76,2.07,3.49,4.16,5.2,6.25.59.71,1.18,1.41,1.76,2.23,2.12,2.7,4.23,5.41,6.23,8.11,3.17,4.23,6.23,8.46,9.17,12.81.47.59.82,1.18,1.29,1.76,1.53,2.23,2.94,4.35,4.35,6.58,1.06,1.59,2.07,3.19,3.07,4.81s2.92,2.58,4.86,2.36c.41-.05.82-.09,1.24-.12,23.51-2.47,43.26-3.53,59.96-3.53,29.27,0,48.79,3.17,61.37,7.05,12.46,3.88,17.99,8.46,19.05,11.4,2.82,7.52-9.05,42.44-96.75,102.75-.94.59-1.76,1.29-2.7,1.88-79,53.84-189.86,108.39-312.72,153.77-120.85,44.67-238.53,75.24-332.7,86.29-2.7.35-5.41.59-7.99.94-105.81,11.29-137.55-7.52-140.25-14.93-2.82-7.52,9.05-42.44,96.75-102.75,1.62-1.16,3.3-2.32,4.99-3.45,1.6-1.07,2.4-2.95,2.18-4.87,0-.01,0-.02,0-.03-.82-5.17-1.41-10.35-2-15.64-.12-1.65-.35-3.29-.47-4.94,0-1.18-.24-2.35-.35-3.53-.12-2.12-.35-4.35-.47-6.47-.24-3.64-.35-7.29-.47-10.93,0-2.23,0-4.35-.12-6.58v-4.42c0-3.96-4.38-6.37-7.72-4.24-9.66,6.14-18.95,12.26-27.79,18.31C26.35,432.21-13.27,489.11,3.89,535.79c13.64,36.91,58.66,55.61,134.02,55.61s41.62-1.29,65.6-3.88c12.81-1.41,26.1-3.06,39.62-5.17,92.64-13.99,202.68-43.73,314.83-85.23,114.04-42.2,218.55-92.29,298.61-142.84,1.17-.74,13.45-8.1,29.27-19.28,46.25-32.68,113.32-80.07,118.6-146.19.42-5.28.63-12.95-.6-22.37Z"/>
  <path class="cls-5" d="M987.77,171.7c-17.75-47.85-108.63-48.55-181.75-40.68-8.46.94-17.16,2-25.98,3.17,2.12,2.7,4.23,5.41,6.23,8.11,3.17,4.23,6.23,8.46,9.17,12.81,4.35-.59,8.7-1.06,12.93-1.53,22.69-2.47,43.15-3.64,61.6-3.64s36.33,1.29,50.67,4c8.93,1.65,18.93,4.23,27.51,8.35,8.58,4.11,15.52,9.64,18.34,17.28,5.64,15.17-6.82,35.15-18.1,49.26-17.87,22.22-46.44,46.91-84.88,73.36-3.17,2.12-6.35,4.35-9.52,6.47-79.59,53.14-189.04,106.51-309.66,151.19-118.62,43.97-234.54,74.3-328.7,86.29-5.53.71-10.93,1.29-16.22,1.88-46.44,4.94-84.17,4.82-112.27-.35-17.87-3.29-40.21-10.46-45.85-25.63s6.82-35.15,18.1-49.26c17.87-22.22,46.44-46.91,84.88-73.36,4.82-3.29,9.76-6.58,14.81-9.99-.12-1.65-.35-3.29-.47-4.94,0-1.18-.24-2.35-.35-3.53-.12-2.12-.35-4.35-.47-6.47-.24-3.64-.35-7.29-.47-10.93-8.93,5.76-17.63,11.4-25.98,17.16-60.54,41.62-129.08,101.34-111.45,149.19,12.7,34.45,63.37,44.44,118.03,44.44s43.26-1.53,63.84-3.76c9.4-1.06,19.05-2.23,28.8-3.64,93.58-13.17,206.32-43.26,321.53-85.82,117.21-43.38,224.07-94.99,304.02-146.84,6.94-4.47,13.64-8.93,20.1-13.4,60.66-41.73,129.2-101.46,111.57-149.3v.12Z"/>
</svg>