<?xml version="1.0" encoding="UTF-8"?>
<svg id="Calque_1" xmlns="http://www.w3.org/2000/svg" version="1.1" viewBox="0 0 857.1 594.9">
  <!-- Generator: Adobe Illustrator 29.1.0, SVG Export Plug-In . SVG Version: 2.1.0 Build 142)  -->
  <defs>
    <style>
      .st0 {
        fill: #b8a43e;
      }

      .st1 {
        fill: #97862a;
      }

      .st2 {
        fill: #d7c046;
      }

      .st3 {
        opacity: .1;
      }

      .st4 {
        fill: #c8b33e;
      }

      .st5 {
        fill: #e9d47d;
      }

      .st6 {
        fill: #f2e5c4;
      }

      .st7 {
        fill: #ad9934;
      }

      .st8 {
        fill: #645c2f;
      }
    </style>
  </defs>
  <path class="st0" d="M728.6,297.5c0,6.2-.2,12.4-.6,18.6-.3,5.5-.8,10.9-1.5,16.4-.4,3.6-.9,7.2-1.5,10.7h0c-.6,3.7-1.2,7.3-1.9,11-.6,3.1-1.2,6.3-2,9.4-1.6,6.9-3.4,13.7-5.4,20.5h0c-8,26.3-19.5,51-33.9,73.6,0,0,0,0,0,0-52.8,82.6-145.4,137.4-250.7,137.4s-51.7-3.4-76-9.8c-34.3-9.1-66.3-24.1-94.6-43.9-8.7-6.1-17-12.6-24.9-19.5-1.4-1.3-2.9-2.6-4.3-3.8-.3-.2-.5-.5-.8-.7-7-6.4-13.7-13.1-20.1-20.2h0c-.2-.3-.5-.5-.7-.8-.9-1-1.7-1.9-2.6-2.9-4.9-5.6-9.6-11.4-14.1-17.4-2.2-2.9-4.3-5.9-6.4-8.9-1.1-1.5-2.1-3.1-3.2-4.6-3.3-4.9-6.4-9.8-9.3-14.9-7-12-13.2-24.5-18.5-37.5-5-12.4-9.3-25.1-12.7-38.3-2-7.8-3.7-15.8-5.1-23.9-.3-1.9-.6-3.8-.9-5.8-.9-5.8-1.6-11.6-2.1-17.5,0-1-.2-2-.3-3-.1-1.8-.3-3.7-.4-5.5-.3-4.9-.5-9.9-.5-14.9,0-1.2,0-2.4,0-3.6,0-30.7,4.6-60.3,13.3-88.1,1.3-4.2,2.7-8.4,4.2-12.6,2.7-7.6,5.8-15.2,9.1-22.5,3-6.5,6.1-12.8,9.5-19.1,2.5-4.6,5.2-9.2,8-13.7,2.8-4.5,5.7-9,8.7-13.3,19.4-28,43.5-52.5,71.2-72.4C306.5,20.7,366.4,0,431.2,0s27,.9,40.1,2.7c9.9,1.3,19.7,3.2,29.3,5.4,7.3,1.8,14.6,3.8,21.7,6.1,6.8,2.2,13.6,4.6,20.2,7.3,3.5,1.4,6.9,2.9,10.3,4.4,5.6,2.5,11.1,5.2,16.6,8.1,5.2,2.7,10.3,5.6,15.3,8.6,25.2,15.2,48,34.1,67.6,55.9,3.3,3.7,6.5,7.4,9.7,11.3,2.3,2.9,4.6,5.8,6.8,8.7,3.1,4.1,6,8.2,8.9,12.4,1.3,1.9,2.5,3.7,3.7,5.6,18.9,29.4,32.8,62.2,40.5,97.5.2.9.4,1.7.5,2.6,1,4.8,1.9,9.6,2.6,14.5,0,.1,0,.3,0,.4.3,2,.6,4,.9,6,.6,4.3,1.1,8.7,1.5,13.1,0,1.1.2,2.3.3,3.4.5,7,.9,14,.9,21.1,0,.8,0,1.6,0,2.4Z"/>
  <path class="st2" d="M584.7,42.6c-31.3,36.2-80.6,81.4-152.6,117.2-89.1,44.3-166.8,55-221.1,55s-50.3-2.9-64.1-5.5c1.3-4.2,2.7-8.4,4.2-12.6,2.7-7.6,5.8-15.2,9.1-22.5,3-6.5,6.1-12.8,9.5-19.1,2.5-4.6,5.2-9.2,8-13.7,2.8-4.5,5.7-9,8.7-13.3,10,.8,22.1,1.2,35.9.8,39.1-1.3,100.7-10.4,172.6-46.2,46.8-23.3,81.6-51.2,105.5-74.6,7.3,1.8,14.6,3.8,21.7,6.1,6.8,2.2,13.6,4.6,20.2,7.3,3.5,1.4,6.9,2.9,10.3,4.4,5.6,2.5,11.1,5.2,16.6,8.1,5.2,2.7,10.3,5.6,15.3,8.6Z"/>
  <path class="st6" d="M725.1,251.5c-13.5,40.8-15.8,78.2-226,176.3-249.9,116.6-315.6,34.5-315.6,34.5-3.3-4.9-6.4-9.8-9.3-14.9-7-12-13.2-24.5-18.5-37.5-5-12.4-9.3-25.1-12.7-38.3-2-7.8-3.7-15.8-5.1-23.9-.3-1.9-.6-3.8-.9-5.8-.9-5.8-1.6-11.6-2.1-17.5,10.3,2.8,41.5,10,87.6,10.5,1.5,0,3.1,0,4.6,0,74.7,0,151.7-17.2,229.2-51.1,83.3-36.5,140-84.6,172.9-118.5,18.8-19.3,31.8-36,39.6-46.9,3.1,4.1,6,8.2,8.9,12.4,1.3,1.9,2.5,3.7,3.7,5.6,18.9,29.4,32.8,62.2,40.5,97.5.2.9.4,1.7.5,2.6,1,4.8,1.9,9.6,2.6,14.5,0,.1,0,.3,0,.4Z"/>
  <path class="st4" d="M661.9,109.7c-39.3,47.5-100.5,106.2-187.9,151.2-47.2,24.3-95.5,42-143.3,52.6-36.1,8-72,12.1-107,12.1s-5.6,0-8.4,0c-34.4-.6-62-5.2-81-9.6-.3-4.9-.5-9.9-.5-14.9,0-1.2,0-2.4,0-3.6,0-30.7,4.6-60.3,13.3-88.1,1.3-4.2,2.7-8.4,4.2-12.6,8.8,2.7,34.5,9.2,72.4,9.2h.1c63.4,0,129.2-17.3,195.6-51.5,69.8-35.9,118.1-82.9,146.3-116,1.3-1.5,2.6-3,3.8-4.5,5.2,2.7,10.3,5.6,15.3,8.6,25.2,15.2,48,34.1,67.6,55.9,3.3,3.7,6.5,7.4,9.7,11.3Z"/>
  <path class="st7" d="M677.7,130.9c-8.2,10.4-18.9,22.8-32.4,36.4-33.7,34-92,82.6-178.8,120.9-104.1,46-194.2,57-251.4,58.2-3.8,0-7.5.1-11.1.1-28.6,0-51.3-2.3-66.9-4.5-.9-5.8-1.6-11.6-2.1-17.5,0-1-.2-2-.3-3-.1-1.8-.3-3.7-.4-5.5-.3-4.9-.5-9.9-.5-14.9,14.6,2.6,43.3,6.4,82.3,5.4,53.2-1.3,137-11.8,234.3-54.7,80.3-35.5,134.3-80.1,165.4-111.3,16.6-16.6,28.6-31.3,36.6-42,3.3,3.7,6.5,7.4,9.7,11.3,2.3,2.9,4.6,5.8,6.8,8.7,3.1,4.1,6,8.2,8.9,12.4Z"/>
  <path class="st1" d="M728.6,295.1c-.1.1-.2.2-.3.3-37.8,38.1-103.3,92.6-200.9,135.6-117.2,51.7-218.5,64-282.8,65.4-4.3,0-8.5.1-12.6.1-7.8,0-15.2-.1-22.3-.4-.9-1-1.7-1.9-2.6-2.9-4.9-5.6-9.6-11.4-14.1-17.4-2.2-2.9-4.3-5.9-6.4-8.9,16.1,1.4,35.9,2.3,58.6,1.7,61.5-1.4,158.5-13.4,271-63,93.1-41,155.5-92.7,191.5-128.9,6.7-6.7,12.8-13.2,18.2-19.3.6,4.3,1.1,8.7,1.5,13.1,0,1.1.2,2.3.3,3.4.5,7,.9,14,.9,21.1Z"/>
  <path class="st2" d="M725.1,343.1c-.6,3.7-1.2,7.3-1.9,11-.6,3.1-1.2,6.3-2,9.4-1.6,6.9-3.4,13.7-5.4,20.5h0c-2,1.8-4,3.5-6.1,5.4-33.4,28.8-91.3,70-177.4,102.5-103.4,39-192.7,48.4-249.4,49.4-3.8,0-7.5,0-11.1,0s-7.6,0-11.2,0c-8.7-6.1-17-12.6-24.9-19.5-1.4-1.3-2.9-2.6-4.3-3.8-.3-.2-.5-.5-.8-.7,14.5,1.1,32.3,1.8,52.8,1.4,54.7-1,140.9-10.2,240.9-47.9,82.5-31.1,137.9-70.3,169.8-97.8,13-11.2,23.3-21.3,31-29.7Z"/>
  <path class="st5" d="M681.9,457.6c-52.8,82.6-145.4,137.4-250.7,137.4s-51.7-3.4-76-9.8c48.4-5.8,107.9-18.1,173.4-42.8,41.2-15.6,99.9-42.5,153.3-84.8Z"/>
  <path class="st5" d="M728.1,316c-.3,5.5-.8,10.9-1.5,16.4-.4,3.6-.9,7.2-1.5,10.7h0c-.6,3.7-1.2,7.3-1.9,11-5.3,5.2-11.3,10.6-18,16.4-33.4,28.8-91.3,70-177.4,102.5-103.4,39-192.7,48.4-249.4,49.4-3.8,0-7.5,0-11.1,0-11.5,0-22.1-.3-31.6-.8-1.4-1.3-2.9-2.6-4.3-3.8-.3-.2-.5-.5-.8-.7-7-6.4-13.7-13.1-20.1-20.2,16.4,1.8,39.7,3.3,68.4,2.8,54.7-1,140.9-10.2,240.9-47.9,120.1-45.3,184.1-107.8,208.3-135.7Z"/>
  <path class="st5" d="M542.5,21.5c-.7.8-1.4,1.6-2.2,2.5-25.8,28.9-70.6,70.2-137.3,102.8-80.2,39.2-149.6,48.6-193.7,49.6-2.9,0-5.8,0-8.6,0-16,0-29.5-1-40.3-2.3,3-6.5,6.1-12.8,9.5-19.1,11,1,24.4,1.7,39.9,1.3,41.9-1,107.8-10.2,184.4-47.6,61.3-30,103.1-67.5,128.1-94.7,6.8,2.2,13.6,4.6,20.2,7.3Z"/>
  <g class="st3">
    <path d="M728.6,297.5c0,164.3-133.2,297.5-297.5,297.5s-179.6-44.5-234-113.8c50.6,39.7,114.3,63.4,183.6,63.4,164.3,0,297.5-133.2,297.5-297.5s-23.7-133.1-63.4-183.6c69.3,54.5,113.8,139.1,113.8,234Z"/>
  </g>
  <path class="st8" d="M853.8,138.5c-14.7-39.7-71.8-54.5-169.8-44-10.2,1.1-20.8,2.5-31.7,4.1,3.3,3.6,6.5,7.4,9.6,11.2.5.6,1,1.2,1.5,1.9,1.8,2.3,3.6,4.6,5.3,6.9,2.7,3.6,5.3,7.2,7.8,10.9.4.5.7,1,1.1,1.5,1.3,1.9,2.5,3.7,3.7,5.6,1.4,2.1,2.7,4.2,4,6.4,1.3-.1,2.5-.3,3.8-.4,20-2.1,36.8-3,51-3,24.9,0,41.5,2.7,52.2,6,10.6,3.3,15.3,7.2,16.2,9.7,2.4,6.4-7.7,36.1-82.3,87.4-.8.5-1.5,1.1-2.3,1.6-67.2,45.8-161.5,92.2-266,130.8-102.8,38-202.9,64-283,73.4-2.3.3-4.6.5-6.8.8-90,9.6-117-6.4-119.3-12.7-2.4-6.4,7.7-36.1,82.3-87.4,2.1-1.5,4.3-3,6.5-4.4-.1-.9-.3-1.8-.4-2.7-.7-4.4-1.2-8.8-1.7-13.3-.1-1.4-.3-2.8-.4-4.2,0-1-.2-2-.3-3-.1-1.8-.3-3.7-.4-5.5-.2-3.1-.3-6.2-.4-9.3,0-1.9,0-3.7-.1-5.6,0-1.2,0-2.4,0-3.6,0-2.6,0-5.3,0-7.9-10.6,6.6-20.7,13.2-30.2,19.7C22.4,365.1-11.3,413.5,3.3,453.2c11.6,31.4,49.9,47.3,114,47.3s35.4-1.1,55.8-3.3c10.9-1.2,22.2-2.6,33.7-4.4,78.8-11.9,172.4-37.2,267.8-72.5,97-35.9,185.9-78.5,254-121.5,8.7-5.5,17-10.9,24.9-16.4,68.9-47.3,103.6-89.3,103.6-125.2s-1.1-12.7-3.3-18.7Z"/>
  <path class="st5" d="M840.2,143.5c-15.1-40.7-92.4-41.3-154.6-34.6-7.2.8-14.6,1.7-22.1,2.7,1.8,2.3,3.6,4.6,5.3,6.9,2.7,3.6,5.3,7.2,7.8,10.9,3.7-.5,7.4-.9,11-1.3,19.3-2.1,36.7-3.1,52.4-3.1s30.9,1.1,43.1,3.4c7.6,1.4,16.1,3.6,23.4,7.1,7.3,3.5,13.2,8.2,15.6,14.7,4.8,12.9-5.8,29.9-15.4,41.9-15.2,18.9-39.5,39.9-72.2,62.4-2.7,1.8-5.4,3.7-8.1,5.5-67.7,45.2-160.8,90.6-263.4,128.6-100.9,37.4-199.5,63.2-279.6,73.4-4.7.6-9.3,1.1-13.8,1.6-39.5,4.2-71.6,4.1-95.5-.3-15.2-2.8-34.2-8.9-39-21.8-4.8-12.9,5.8-29.9,15.4-41.9,15.2-18.9,39.5-39.9,72.2-62.4,4.1-2.8,8.3-5.6,12.6-8.5-.1-1.4-.3-2.8-.4-4.2,0-1-.2-2-.3-3-.1-1.8-.3-3.7-.4-5.5-.2-3.1-.3-6.2-.4-9.3-7.6,4.9-15,9.7-22.1,14.6C60.2,356.7,1.9,407.5,16.9,448.2c10.8,29.3,53.9,37.8,100.4,37.8s36.8-1.3,54.3-3.2c8-.9,16.2-1.9,24.5-3.1,79.6-11.2,175.5-36.8,273.5-73,99.7-36.9,190.6-80.8,258.6-124.9,5.9-3.8,11.6-7.6,17.1-11.4,51.6-35.5,109.9-86.3,94.9-127Z"/>
</svg>