<?xml version="1.0" encoding="UTF-8"?>
<svg id="Calque_2" xmlns="http://www.w3.org/2000/svg" version="1.1" viewBox="0 0 1027.58 311.31">
  <!-- Generator: Adobe Illustrator 29.1.0, SVG Export Plug-In . SVG Version: 2.1.0 Build 142)  -->
  <defs>
    <style>
      .st0, .st1 {
        fill: #969696;
      }

      .st0, .st2 {
        display: none;
      }

      .st2, .st3 {
        fill: #fefefe;
      }
    </style>
  </defs>
  <path class="st1" d="M532.18.02c.11,0,.23.07.26.18l31.45,114.54c.04.15.21.23.35.17,4.58-2.04,8.44-5.5,13.28-7.18,20.4-7.1,39.44,1.6,50.27,19.56.04.06.09.1.16.11,1.69.2,9.84-4.4,12.65-5.11,22.68-5.73,48.09,10.04,49.69,34.06.01.19.22.29.38.19,13.3-8.41,26.75-7.76,41.03-2.16.16.06.34-.05.35-.23,2.93-59.34,87.03-56.76,85.74,2.22,0,.18.18.31.34.24,25.26-10.11,53.81,3.36,59.54,30.29.02.1.1.18.21.19,34.67,3.82,63.32,30.69,71.98,64.08.03.11.13.19.24.19,6.62.21,12.62-1.38,19.44-1.01,30.53,1.66,58.35,29.64,58.05,60.7,0,.14-.12.25-.26.25H.25c-.16,0-.28-.15-.25-.3,10.71-57.39,72.48-89.77,126.55-67.6.11.04.24,0,.3-.09,9.09-13.39,21.49-18.25,37.45-14.43.17.04.32-.09.32-.26-1.12-32.25,20.46-52.2,52.46-50.41,2.48.14,6.5,2.03,7.95,1.83,1.09-.15,8.2-7.11,10.29-8.42,8.32-5.21,18.5-7.69,28.29-6.97.16.01.29-.12.27-.28-3.27-29.04,19.39-61.68,46.88-50.51,4.9,1.99,10.33-2.96,10.33-2.96,4.27-3.96,18.68-15.95,40.43-15.93,20.98.02,23.89,3.81,32.92,10.12,4.41,3.08,8.77,9.91,9.66,15.22l.77,4.58c.03.15.19.24.33.19,19.44-7.28,38.22-3.54,51.42,11.76,1.08,1.25,3.09.86,3.59-.71C466.59,115.79,501.09,4.6,501.88.2c.02-.13.13-.21.27-.2,2.38.23,21.89.55,30.03.02Z"/>
  <path class="st3" d="M531.77,35.33c.12-.01.21.06.24.18.7,3.9,31.29,102.47,36.94,120.49.44,1.4,2.23,1.73,3.18.63,11.71-13.56,28.36-16.88,45.59-10.42.13.05.27-.03.29-.17l.68-4.06c.79-4.71,4.65-10.76,8.56-13.49,8.01-5.6,10.59-8.96,29.18-8.97,19.28-.01,32.06,10.61,35.84,14.12,0,0,4.81,4.39,9.16,2.62,24.37-9.9,44.46,19.03,41.56,44.78-.02.14.1.26.24.25,8.68-.64,17.7,1.56,25.08,6.18,1.86,1.16,8.16,7.33,9.13,7.47,1.29.18,4.85-1.5,7.05-1.62,28.36-1.59,47.49,16.1,46.5,44.69,0,.15.13.26.28.23,14.15-3.39,25.14.93,33.2,12.79.06.09.17.12.27.08,47.93-19.66,102.69,9.05,112.18,59.93.03.14-.08.27-.22.27H66.19c-.12,0-.23-.1-.23-.22-.26-27.54,24.4-52.34,51.46-53.81,6.04-.33,11.36,1.08,17.23.9.1,0,.19-.07.21-.17,7.68-29.59,33.08-53.42,63.81-56.8.09,0,.16-.08.18-.17,5.08-23.88,30.38-35.82,52.78-26.85.15.06.31-.05.31-.21-1.14-52.28,73.4-54.58,76.01-1.97,0,.16.16.26.31.2,12.66-4.97,24.59-5.55,36.37,1.91.14.09.33,0,.34-.17,1.41-21.29,23.94-35.27,44.05-30.19,2.49.63,9.71,4.7,11.21,4.53.06,0,.11-.05.14-.1,9.6-15.93,26.48-23.64,44.56-17.34,4.29,1.49,7.71,4.56,11.78,6.37.13.06.27-.02.31-.15l27.88-101.54c.03-.09.13-.17.23-.16,7.22.47,24.51.19,26.62-.02Z"/>
  <path class="st0" d="M715.9,18.22l-38.83.1-.89,153.39c-17.04-14.71-43.87-18.68-64.69-6.3-2.37,1.41-6.87,6.07-9.02,6.32-2.04.23-11.53-2.37-15.07-2.78-5.34-.63-11.1-.85-16.5-.78-12.2-24.01-36.86-40.74-69.1-44.16-45.47-4.82-85.31,19.61-94.67,55.25-14.03-.36-26.34.67-39.18,5.4-1.47.54-4.55.98-4.11,2.74h564.69c-11.39-9.76-30.1-11.45-45.84-9.29-14-33.21-64.27-46.82-100.91-27.68-2.87,1.5-10.91,7.88-12.68,8.29-4.29,1.01-11.28.38-15.69.87-6.88.75-16.92,3.19-23.38,5.35-4.58,1.54-8.58,4.02-13.25,5.34l-.88-152.07Z"/>
  <path class="st2" d="M684.26,42.32l33.28.09.76,131.47c14.61-12.6,37.6-16.01,55.44-5.4,2.03,1.21,5.88,5.21,7.73,5.41,1.74.2,9.88-2.03,12.91-2.38,4.57-.54,9.51-.73,14.14-.67,10.46-20.58,31.59-34.92,59.22-37.85,38.97-4.14,73.11,16.81,81.14,47.36,12.03-.31,22.57.57,33.58,4.63,1.26.46,3.9.84,3.52,2.35h-483.98c9.76-8.37,25.8-9.82,39.29-7.97,12-28.47,55.08-40.13,86.49-23.72,2.46,1.29,9.35,6.75,10.87,7.11,3.68.86,9.67.33,13.45.74,5.9.64,14.5,2.73,20.04,4.59,3.92,1.32,7.36,3.44,11.35,4.57l.76-130.33Z"/>
  <path class="st0" d="M1001.74,187.9H379.33c7.68-24.48,42.91-38.15,75.47-33.59,2.15-15.57,17.95-30,38.96-33.31,3.06-.48,13.4-.7,14.43-1.16.72-.32,6.94-8.77,8.9-10.52,2.25-2.02,7.86-6.1,10.64-7.58,20.08-10.69,53.5-11.31,72.87.66.55.34,5.12,4.01,6.26,4.9,1.28,1,6.51,7.06,7.94,6.28.39-1.53,1.47-3.05,2.53-4.38,2.16-2.73,5.78-7.83,8.15-10.08.16-.16,2.71-1.98,3.55-2.63,40.81-31.44,113.31-17.32,126.23,24.96,15.5.46,30.41,4.02,43.2,10.45,13.73-7.21,28.2-9.78,44.95-7.61,2.22.29,5.56,1.83,7.36,1.76.88-.03,6.39-2.39,8.45-2.89,39.92-9.65,78.48,8.31,84.32,38.82,21.31-.23,43.27,4.07,57.82,16.07l4.2,4.24c2.31,2.33.06,5.62-3.85,5.62Z"/>
  <path class="st2" d="M445.18,187.42h499.32c-6.16-26.54-34.42-41.35-60.55-36.41-1.72-16.88-14.4-32.52-31.26-36.11-2.46-.52-10.75-.76-11.57-1.26-.57-.35-5.57-9.51-7.14-11.4-1.81-2.19-6.31-6.61-8.54-8.21-16.11-11.59-42.92-12.26-58.46.71-.44.37-4.11,4.34-5.02,5.31-1.02,1.08-5.22,7.65-6.37,6.8-.31-1.66-1.18-3.31-2.03-4.75-1.74-2.96-4.64-8.49-6.54-10.93-.13-.17-2.18-2.15-2.85-2.85-32.74-34.08-90.9-18.77-101.27,27.06-12.44.5-24.4,4.35-34.66,11.32-11.02-7.81-22.62-10.6-36.06-8.25-1.78.31-4.46,1.98-5.91,1.91-.71-.03-5.13-2.59-6.78-3.13-32.02-10.46-62.96,9.01-67.65,42.08-17.09-.25-34.72,4.41-46.39,17.42l-3.37,4.6c-1.86,2.53-.05,6.1,3.09,6.1Z"/>
</svg>