<?xml version="1.0" encoding="UTF-8"?>
<svg id="Calque_4" data-name="Calque 4" xmlns="http://www.w3.org/2000/svg" viewBox="0 0 1022.59 311.32">
  <defs>
    <style>
      .cls-1 {
        fill: #969696;
      }

      .cls-2 {
        fill: #fefefe;
      }
    </style>
  </defs>
  <path class="cls-1" d="M532.75,142.14l-37.64.1c-.66,0-1.19.53-1.2,1.19l-.87,149.69c0,.99-1.15,1.55-1.93.94-17.09-13.4-42.72-16.65-62.78-4.72-2.37,1.41-6.87,6.07-9.02,6.32-2.04.23-11.53-2.37-15.07-2.78-5.1-.6-10.59-.83-15.78-.79-.45,0-.85-.24-1.06-.64-12.31-23.66-36.82-40.12-68.77-43.51-45.09-4.78-84.64,19.2-94.43,54.35-.15.53-.63.89-1.18.87-13.64-.29-25.69.8-38.25,5.42-.35.13-.8.25-1.26.39-1.33.39-1.05,2.35.34,2.35h557.95c1.18,0,1.66-1.53.68-2.19-11.26-7.65-27.8-9.03-42.08-7.21-.53.07-1.02-.22-1.24-.7-14.48-32.61-64.22-45.84-100.56-26.86-2.87,1.5-10.91,7.88-12.68,8.29-4.29,1.01-11.28.38-15.69.87-6.88.75-16.92,3.19-23.38,5.35-4.05,1.36-7.65,3.46-11.66,4.84-.78.27-1.59-.31-1.6-1.13l-.87-150.44h0Z"/>
  <path class="cls-2" d="M501.1,166.24l32.09.09c.66,0,1.19.53,1.2,1.19l.74,127.79c0,.99,1.14,1.54,1.92.94,14.65-11.31,36.45-14,53.53-3.84,2.03,1.21,5.88,5.21,7.73,5.41,1.74.2,9.88-2.03,12.91-2.38,4.33-.51,9-.71,13.42-.68.45,0,.85-.24,1.06-.64,10.57-20.23,31.55-34.3,58.89-37.2,38.59-4.1,72.44,16.4,80.9,46.47.15.53.63.88,1.17.87,11.65-.24,21.92.7,32.65,4.65.01,0,.03,0,.04.01,1.28.46.98,2.34-.38,2.34h-476.5c-1.19,0-1.66-1.56-.67-2.2,9.61-6.26,23.46-7.39,35.46-5.88.52.07,1.02-.22,1.23-.7,12.47-27.88,55.03-39.16,86.14-22.91,2.46,1.29,9.35,6.75,10.87,7.11,3.68.86,9.67.33,13.45.74,5.9.64,14.5,2.73,20.04,4.59,3.39,1.14,6.42,2.88,9.75,4.06.78.28,1.6-.3,1.61-1.13l.75-128.69h0Z"/>
</svg>