<?xml version="1.0" encoding="UTF-8"?>
<svg id="Calque_2" xmlns="http://www.w3.org/2000/svg" version="1.1" viewBox="0 0 622.22 169.19">
  <!-- Generator: Adobe Illustrator 29.1.0, SVG Export Plug-In . SVG Version: 2.1.0 Build 142)  -->
  <defs>
    <style>
      .st0, .st1 {
        fill: #969696;
      }

      .st0, .st2 {
        display: none;
      }

      .st2, .st3 {
        fill: #fefefe;
      }
    </style>
  </defs>
  <path class="st1" d="M352.1,0l-38.83.1-.89,153.39c-17.04-14.71-43.87-18.68-64.69-6.3-2.37,1.41-6.87,6.07-9.02,6.32-2.04.23-11.53-2.37-15.07-2.78-5.34-.63-11.1-.85-16.5-.78-12.2-24.01-36.86-40.74-69.1-44.16-45.47-4.82-85.31,19.61-94.67,55.25-14.03-.36-26.34.67-39.18,5.4-1.47.54-4.55.98-4.11,2.74h564.69c-11.39-9.76-30.1-11.45-45.84-9.29-14-33.21-64.27-46.82-100.91-27.68-2.87,1.5-10.91,7.88-12.68,8.29-4.29,1.01-11.28.38-15.69.87-6.88.75-16.92,3.19-23.38,5.35-4.58,1.54-8.58,4.02-13.25,5.34l-.88-152.07Z"/>
  <path class="st3" d="M320.45,24.1l33.28.09.76,131.47c14.61-12.6,37.6-16.01,55.44-5.4,2.03,1.21,5.88,5.21,7.73,5.41,1.74.2,9.88-2.03,12.91-2.38,4.57-.54,9.51-.73,14.14-.67,10.46-20.58,31.59-34.92,59.22-37.85,38.97-4.14,73.11,16.81,81.14,47.36,12.03-.31,22.57.57,33.58,4.63,1.26.46,3.9.84,3.52,2.35H138.2c9.76-8.37,25.8-9.82,39.29-7.97,12-28.47,55.08-40.13,86.49-23.72,2.46,1.29,9.35,6.75,10.87,7.11,3.68.86,9.67.33,13.45.74,5.9.64,14.5,2.73,20.04,4.59,3.92,1.32,7.36,3.44,11.35,4.57l.76-130.33Z"/>
  <path class="st0" d="M637.94,169.68H15.52c7.68-24.48,42.91-38.15,75.47-33.59,2.15-15.57,17.95-30,38.96-33.31,3.06-.48,13.4-.7,14.43-1.16.72-.32,6.94-8.77,8.9-10.52,2.25-2.02,7.86-6.1,10.64-7.58,20.08-10.69,53.5-11.31,72.87.66.55.34,5.12,4.01,6.26,4.9,1.28,1,6.51,7.06,7.94,6.28.39-1.53,1.47-3.05,2.53-4.38,2.16-2.73,5.78-7.83,8.15-10.08.16-.16,2.71-1.98,3.55-2.63,40.81-31.44,113.31-17.32,126.23,24.96,15.5.46,30.41,4.02,43.2,10.45,13.73-7.21,28.2-9.78,44.95-7.61,2.22.29,5.56,1.83,7.36,1.76.88-.03,6.39-2.39,8.45-2.89,39.92-9.65,78.48,8.31,84.32,38.82,21.31-.23,43.27,4.07,57.82,16.07l4.2,4.24c2.31,2.33.06,5.62-3.85,5.62Z"/>
  <path class="st2" d="M81.38,169.2h499.32c-6.16-26.54-34.42-41.35-60.55-36.41-1.72-16.88-14.4-32.52-31.26-36.11-2.46-.52-10.75-.76-11.57-1.26-.57-.35-5.57-9.51-7.14-11.4-1.81-2.19-6.31-6.61-8.54-8.21-16.11-11.59-42.92-12.26-58.46.71-.44.37-4.11,4.34-5.02,5.31-1.02,1.08-5.22,7.65-6.37,6.8-.31-1.66-1.18-3.31-2.03-4.75-1.74-2.96-4.64-8.49-6.54-10.93-.13-.17-2.18-2.15-2.85-2.85-32.74-34.08-90.9-18.77-101.27,27.06-12.44.5-24.4,4.35-34.66,11.32-11.02-7.81-22.62-10.6-36.06-8.25-1.78.31-4.46,1.98-5.91,1.91-.71-.03-5.13-2.59-6.78-3.13-32.02-10.46-62.96,9.01-67.65,42.08-17.09-.25-34.72,4.41-46.39,17.42l-3.37,4.6c-1.86,2.53-.05,6.1,3.09,6.1Z"/>
</svg>