<?xml version="1.0" encoding="UTF-8"?>
<svg id="Calque_2" data-name="Calque 2" xmlns="http://www.w3.org/2000/svg" viewBox="0 0 1022.59 311.32">
  <defs>
    <style>
      .cls-1 {
        fill: #969696;
      }

      .cls-2 {
        fill: #fefefe;
      }
    </style>
  </defs>
  <path class="cls-1" d="M529.59.02c.11,0,.23.07.26.18l31.3,114.54c.04.15.21.23.35.17,4.56-2.04,8.4-5.5,13.22-7.18,20.3-7.1,39.25,1.6,50.03,19.56.04.06.09.1.16.11,1.68.2,9.79-4.4,12.59-5.11,22.57-5.73,47.86,10.04,49.45,34.06,0,.19.22.29.38.19,13.24-8.41,26.62-7.76,40.83-2.16.16.06.34-.05.35-.23,2.92-59.34,86.61-56.76,85.32,2.22,0,.18.18.31.34.24,25.14-10.11,53.55,3.36,59.25,30.29.02.1.1.18.21.19,34.5,3.82,63.01,30.69,71.63,64.08.03.11.13.19.24.19,6.59.21,12.56-1.38,19.35-1.01,30.38,1.66,58.07,29.64,57.77,60.7,0,.14-.12.25-.26.25H.25c-.16,0-.28-.15-.25-.3,10.66-57.39,72.13-89.77,125.93-67.6.11.04.24,0,.3-.09,9.05-13.39,21.39-18.25,37.27-14.43.17.04.32-.09.32-.26-1.11-32.25,20.36-52.2,52.2-50.41,2.47.14,6.47,2.03,7.91,1.83,1.08-.15,8.16-7.11,10.24-8.42,8.28-5.21,18.41-7.69,28.15-6.97.16,0,.29-.12.27-.28-3.25-29.04,19.3-61.68,46.65-50.51,4.88,1.99,10.28-2.96,10.28-2.96,4.25-3.96,18.59-15.95,40.23-15.93,20.88.02,23.77,3.81,32.76,10.12,4.39,3.08,8.73,9.91,9.61,15.22l.77,4.58c.03.15.19.24.33.19,19.35-7.28,38.03-3.54,51.17,11.76,1.07,1.25,3.07.86,3.57-.71C464.32,115.79,498.65,4.6,499.44.2c.02-.13.13-.21.27-.2,2.37.23,21.78.55,29.88.02Z"/>
  <path class="cls-2" d="M526.77,35.33c.12,0,.21.06.24.18.7,3.9,31.29,102.47,36.94,120.49.44,1.4,2.23,1.73,3.18.63,11.71-13.56,28.36-16.88,45.59-10.42.13.05.27-.03.29-.17l.68-4.06c.79-4.71,4.65-10.76,8.56-13.49,8.01-5.6,10.59-8.96,29.18-8.97,19.28-.01,32.06,10.61,35.84,14.12,0,0,4.81,4.39,9.16,2.62,24.37-9.9,44.46,19.03,41.56,44.78-.02.14.1.26.24.25,8.68-.64,17.7,1.56,25.08,6.18,1.86,1.16,8.16,7.33,9.13,7.47,1.29.18,4.85-1.5,7.05-1.62,28.36-1.59,47.49,16.1,46.5,44.69,0,.15.13.26.28.23,14.15-3.39,25.14.93,33.2,12.79.06.09.17.12.27.08,47.93-19.66,102.69,9.05,112.18,59.93.03.14-.08.27-.22.27H61.19c-.12,0-.23-.1-.23-.22-.26-27.54,24.4-52.34,51.46-53.81,6.04-.33,11.36,1.08,17.23.9.1,0,.19-.07.21-.17,7.68-29.59,33.08-53.42,63.81-56.8.09,0,.16-.08.18-.17,5.08-23.88,30.38-35.82,52.78-26.85.15.06.31-.05.31-.21-1.14-52.28,73.4-54.58,76.01-1.97,0,.16.16.26.31.2,12.66-4.97,24.59-5.55,36.37,1.91.14.09.33,0,.34-.17,1.41-21.29,23.94-35.27,44.05-30.19,2.49.63,9.71,4.7,11.21,4.53.06,0,.11-.05.14-.1,9.6-15.93,26.48-23.64,44.56-17.34,4.29,1.49,7.71,4.56,11.78,6.37.13.06.27-.02.31-.15l27.88-101.54c.03-.09.13-.17.23-.16,7.22.47,24.51.19,26.62-.02l.02-.02Z"/>
</svg>