<?xml version="1.0" encoding="UTF-8"?>
<svg id="Calque_3" data-name="Calque 3" xmlns="http://www.w3.org/2000/svg" viewBox="0 0 1022.59 311.32">
  <defs>
    <style>
      .cls-1 {
        fill: #969696;
      }

      .cls-2 {
        fill: #fefefe;
      }
    </style>
  </defs>
  <path class="cls-1" d="M812.13,311.06H189.72c7.68-24.48,42.91-38.15,75.47-33.59,2.15-15.57,17.95-30,38.96-33.31,3.06-.48,13.4-.7,14.43-1.16.72-.32,6.94-8.77,8.9-10.52,2.25-2.02,7.86-6.1,10.64-7.58,20.08-10.69,53.5-11.31,72.87.66.55.34,5.12,4.01,6.26,4.9,1.28,1,6.51,7.06,7.94,6.28.39-1.53,1.47-3.05,2.53-4.38,2.16-2.73,5.78-7.83,8.15-10.08.16-.16,2.71-1.98,3.55-2.63,40.81-31.44,113.31-17.32,126.23,24.96,15.5.46,30.41,4.02,43.2,10.45,13.73-7.21,28.2-9.78,44.95-7.61,2.22.29,5.56,1.83,7.36,1.76.88-.03,6.39-2.39,8.45-2.89,39.92-9.65,78.48,8.31,84.32,38.82,21.31-.23,43.27,4.07,57.82,16.07l4.2,4.24c2.31,2.33.06,5.62-3.85,5.62h.03Z"/>
  <path class="cls-2" d="M255.57,310.57h499.32c-6.16-26.54-34.42-41.35-60.55-36.41-1.72-16.88-14.4-32.52-31.26-36.11-2.46-.52-10.75-.76-11.57-1.26-.57-.35-5.57-9.51-7.14-11.4-1.81-2.19-6.31-6.61-8.54-8.21-16.11-11.59-42.92-12.26-58.46.71-.44.37-4.11,4.34-5.02,5.31-1.02,1.08-5.22,7.65-6.37,6.8-.31-1.66-1.18-3.31-2.03-4.75-1.74-2.96-4.64-8.49-6.54-10.93-.13-.17-2.18-2.15-2.85-2.85-32.74-34.08-90.9-18.77-101.27,27.06-12.44.5-24.4,4.35-34.66,11.32-11.02-7.81-22.62-10.6-36.06-8.25-1.78.31-4.46,1.98-5.91,1.91-.71-.03-5.13-2.59-6.78-3.13-32.02-10.46-62.96,9.01-67.65,42.08-17.09-.25-34.72,4.41-46.39,17.42l-3.37,4.6c-1.86,2.53-.05,6.1,3.09,6.1h.01Z"/>
</svg>