<?xml version="1.0" encoding="UTF-8"?>
<svg id="Calque_1" xmlns="http://www.w3.org/2000/svg" version="1.1" viewBox="0 0 848.6 850.21">
  <!-- Generator: Adobe Illustrator 29.1.0, SVG Export Plug-In . SVG Version: 2.1.0 Build 142)  -->
  <defs>
    <style>
      .st0 {
        fill: #fbe559;
      }

      .st1 {
        opacity: .2;
      }

      .st1, .st2, .st3, .st4, .st5 {
        isolation: isolate;
      }

      .st1, .st4, .st5, .st6 {
        fill: #fedf33;
      }

      .st2 {
        fill: #fff;
        opacity: .12;
      }

      .st4 {
        opacity: .48;
      }

      .st5 {
        opacity: .5;
      }

      .st7 {
        fill: #fbc536;
      }

      .st8 {
        fill: #ec9208;
      }
    </style>
  </defs>
  <g class="st3">
    <g id="Soleil">
      <path class="st5" d="M317.03,101.29s132.4-160.48,264.79,0c0,0,24.07,48.14,78.23,72.21s12.04,164.49-30.09,162.49"/>
      <path class="st5" d="M738.76,283.63s189.89,85,70.34,255.28c0,0-40.02,36-48.84,94.61-8.81,58.61-155.39,55.3-164.64,14.16"/>
      <path class="st5" d="M482.44,728.64s-69.77,196-248.94,90.26c0,0-39.04-37.06-98.16-41.23s-67.38-150.54-27.1-163.01"/>
      <path class="st5" d="M88.79,518.44s-175.66-111.48-32.82-262.75c0,0,44.79-29.86,61.96-86.59,17.18-56.73,161.74-32.33,164.96,9.72"/>
      <path class="st5" d="M563.86,87.19s201.77-50.7,213.21,157.03c0,0-9.17,53.04,20.17,104.54,29.33,51.5-87.86,139.59-120.59,112.99"/>
      <path class="st5" d="M783,514.99s102.48,181.05-94.75,247.27c0,0-53.57,5.25-95.43,47.22-41.85,41.96-157.91-47.62-140.96-86.24"/>
      <path class="st5" d="M346.61,752.29s-172.41,116.44-253.96-74.96c0,0-9.46-52.99-54.59-91.4-45.13-38.42,35.02-161.17,74.85-147.32"/>
      <path class="st5" d="M120.41,318.58S45.1,124.65,249.81,87.56c0,0,53.77,2.53,101.24-32.97s149.4,69.88,127.06,105.65"/>
      <path class="st1" d="M715.64,186.7s197.38,65.77,95.29,247.05c0,0-36.26,39.79-39.22,98.99-2.97,59.2-149.14,70.43-162.43,30.4"/>
      <path class="st1" d="M663.22,684.87s-10.97,207.75-212.86,157.5c0,0-47.99-24.38-105.85-11.52s-107.51-125.07-72.46-148.52"/>
      <path class="st1" d="M191.16,614.66s-207.98,5.44-173.8-199.77c0,0,20.53-49.77,3.13-106.42-17.39-56.66,116.2-117.05,142.34-83.95"/>
      <path class="st1" d="M217.34,143.29s40.8-204,233.33-125.18c0,0,43.97,31.05,103.09,26.65,59.1-4.4,88.37,139.26,50.3,157.41"/>
      <ellipse class="st4" cx="432.17" cy="455.08" rx="373.73" ry="377.15"/>
      <circle class="st8" cx="414.22" cy="447.14" r="371.77"/>
      <circle class="st7" cx="402.37" cy="439.62" r="343.93"/>
      <path class="st6" d="M145,233.45c.54-.98,1.15-1.92,1.83-2.81,9-11.95,75.13-95.06,181.35-106.79,121.75-13.45,321.49-28.44,296.4,195.93,0,0-7.84,80.59,58.03,110.61s-51.75,67.94-72.14,0c-12.74-42.46-26.09-40.49-34.32-33.04-5.56,5.04-8.15,12.63-7.33,20.12,2.35,21.39,12.48,74.4,55.75,97.46,54.06,28.79,35.1,153.37-151.27,143.54-6.88-.36-13.66,2.19-18.41,7.21-10.01,10.6-18.78,31.25,23.83,57.02,58.56,35.4-146.66,21.23-174.19,19.19-2.09-.15-4.13-.58-6.1-1.27-35.32-12.44-358.61-138.15-153.44-507.15h0v-.02Z"/>
      <path class="st0" d="M142.27,227.9c.52-.93,1.11-1.83,1.76-2.68,8.64-11.37,72.11-90.51,174.06-101.68,116.85-12.8,308.56-27.08,284.48,186.55,0,0-7.53,76.72,55.69,105.31,63.21,28.58-49.67,64.69-69.23,0-12.23-40.44-25.05-38.56-32.94-31.46-5.34,4.8-7.82,12.02-7.03,19.16,2.25,20.37,11.98,70.85,53.52,92.79,51.88,27.41,33.69,146.04-145.19,136.68-6.61-.35-13.11,2.08-17.67,6.87-9.61,10.09-18.03,29.76,22.88,54.3,56.21,33.71-140.76,20.22-167.18,18.27-2-.14-3.96-.55-5.86-1.21-33.9-11.85-344.18-131.54-147.26-482.89h-.03Z"/>
      <ellipse class="st2" cx="257.43" cy="347.1" rx="176.63" ry="124.48" transform="translate(-174 322.32) rotate(-50.15)"/>
      <ellipse class="st7" cx="319.23" cy="284.28" rx="58.85" ry="51.49"/>
      <ellipse class="st7" cx="468.89" cy="335.75" rx="29.95" ry="30.43" transform="translate(-107.76 343.25) rotate(-36.35)"/>
      <ellipse class="st7" cx="317.03" cy="460.44" rx="40.4" ry="30.43" transform="translate(-211.22 277.5) rotate(-36.35)"/>
      <ellipse class="st7" cx="185.63" cy="363.16" rx="30.2" ry="23.34" transform="translate(-179.13 180.69) rotate(-36.35)"/>
      <circle class="st7" cx="217.34" cy="450.41" r="15.51"/>
    </g>
  </g>
</svg>