<?xml version="1.0" encoding="UTF-8"?>
<svg id="Calque_2" xmlns="http://www.w3.org/2000/svg" version="1.1" viewBox="0 0 1973.66 1273.22">
  <!-- Generator: Adobe Illustrator 29.1.0, SVG Export Plug-In . SVG Version: 2.1.0 Build 142)  -->
  <defs>
    <style>
      .st0 {
        fill: #fff;
      }
    </style>
  </defs>
  <g>
    <path class="st0" d="M174.81,398.8s-.55,17.32-15.26,17.32c0,0,15.26.95,15.26,16.21,0-15.26,15.26-16.21,15.26-16.21-14.71,0-15.26-17.32-15.26-17.32Z"/>
    <path class="st0" d="M1044.81,99.58s-.55,17.32-15.26,17.32c0,0,15.26.95,15.26,16.21,0-15.26,15.26-16.21,15.26-16.21-14.71,0-15.26-17.32-15.26-17.32Z"/>
    <path class="st0" d="M859.53,399.17s-.55,17.32-15.26,17.32c0,0,15.26.95,15.26,16.21,0-15.26,15.26-16.21,15.26-16.21-14.71,0-15.26-17.32-15.26-17.32Z"/>
    <path class="st0" d="M948.2,687.98s-.55,17.32-15.26,17.32c0,0,15.26.95,15.26,16.21,0-15.26,15.26-16.21,15.26-16.21-14.71,0-15.26-17.32-15.26-17.32Z"/>
    <path class="st0" d="M1044.11,1013.9s-.55,17.32-15.26,17.32c0,0,15.26.95,15.26,16.21,0-15.26,15.26-16.21,15.26-16.21-14.71,0-15.26-17.32-15.26-17.32Z"/>
    <path class="st0" d="M602.38,1038s-.55,17.32-15.26,17.32c0,0,15.26.95,15.26,16.21,0-15.26,15.26-16.21,15.26-16.21-14.71,0-15.26-17.32-15.26-17.32Z"/>
    <path class="st0" d="M174.54,1063.94s-.36,11.27-9.93,11.27c0,0,9.93.62,9.93,10.55,0-9.93,9.93-10.55,9.93-10.55-9.57,0-9.93-11.27-9.93-11.27Z"/>
    <path class="st0" d="M181.45,747.46s-.55,17.32-15.26,17.32c0,0,15.26.95,15.26,16.21,0-15.26,15.26-16.21,15.26-16.21-14.71,0-15.26-17.32-15.26-17.32Z"/>
    <path class="st0" d="M157.69,123.07s-.22,6.94-6.12,6.94c0,0,6.12.38,6.12,6.5,0-6.12,6.12-6.5,6.12-6.5-5.9,0-6.12-6.94-6.12-6.94Z"/>
    <path class="st0" d="M851.51,874.64s-.22,6.94-6.12,6.94c0,0,6.12.38,6.12,6.5,0-6.12,6.12-6.5,6.12-6.5-5.9,0-6.12-6.94-6.12-6.94Z"/>
    <path class="st0" d="M541.44,839.58s-.22,6.94-6.12,6.94c0,0,6.12.38,6.12,6.5,0-6.12,6.12-6.5,6.12-6.5-5.9,0-6.12-6.94-6.12-6.94Z"/>
    <path class="st0" d="M666.68,383.97s-.22,6.94-6.12,6.94c0,0,6.12.38,6.12,6.5,0-6.12,6.12-6.5,6.12-6.5-5.9,0-6.12-6.94-6.12-6.94Z"/>
    <path class="st0" d="M435.57,355.91s-.22,6.94-6.12,6.94c0,0,6.12.38,6.12,6.5,0-6.12,6.12-6.5,6.12-6.5-5.9,0-6.12-6.94-6.12-6.94Z"/>
    <path class="st0" d="M357.22,657.12s-.22,6.94-6.12,6.94c0,0,6.12.38,6.12,6.5,0-6.12,6.12-6.5,6.12-6.5-5.9,0-6.12-6.94-6.12-6.94Z"/>
    <path class="st0" d="M717.62,570.83s-.22,6.94-6.12,6.94c0,0,6.12.38,6.12,6.5,0-6.12,6.12-6.5,6.12-6.5-5.9,0-6.12-6.94-6.12-6.94Z"/>
    <path class="st0" d="M414.38,600.26s-.22,6.94-6.12,6.94c0,0,6.12.38,6.12,6.5,0-6.12,6.12-6.5,6.12-6.5-5.9,0-6.12-6.94-6.12-6.94Z"/>
    <path class="st0" d="M577.83,116.35s-.22,6.94-6.12,6.94c0,0,6.12.38,6.12,6.5,0-6.12,6.12-6.5,6.12-6.5-5.9,0-6.12-6.94-6.12-6.94Z"/>
    <path class="st0" d="M1059.55,269.92s-.22,6.94-6.12,6.94c0,0,6.12.38,6.12,6.5,0-6.12,6.12-6.5,6.12-6.5-5.9,0-6.12-6.94-6.12-6.94Z"/>
    <path class="st0" d="M1085.55,499.52s-.22,6.94-6.12,6.94c0,0,6.12.38,6.12,6.5,0-6.12,6.12-6.5,6.12-6.5-5.9,0-6.12-6.94-6.12-6.94Z"/>
  </g>
  <g>
    <path class="st0" d="M1311.56,175.48s-.55,17.32-15.26,17.32c0,0,15.26.95,15.26,16.21,0-15.26,15.26-16.21,15.26-16.21-14.71,0-15.26-17.32-15.26-17.32Z"/>
    <path class="st0" d="M2181.56-123.73s-.55,17.32-15.26,17.32c0,0,15.26.95,15.26,16.21,0-15.26,15.26-16.21,15.26-16.21-14.71,0-15.26-17.32-15.26-17.32Z"/>
    <path class="st0" d="M1996.28,175.85s-.55,17.32-15.26,17.32c0,0,15.26.95,15.26,16.21,0-15.26,15.26-16.21,15.26-16.21-14.71,0-15.26-17.32-15.26-17.32Z"/>
    <path class="st0" d="M2084.95,464.66s-.55,17.32-15.26,17.32c0,0,15.26.95,15.26,16.21,0-15.26,15.26-16.21,15.26-16.21-14.71,0-15.26-17.32-15.26-17.32Z"/>
    <path class="st0" d="M2180.86,790.58s-.55,17.32-15.26,17.32c0,0,15.26.95,15.26,16.21,0-15.26,15.26-16.21,15.26-16.21-14.71,0-15.26-17.32-15.26-17.32Z"/>
    <path class="st0" d="M1739.14,814.69s-.55,17.32-15.26,17.32c0,0,15.26.95,15.26,16.21,0-15.26,15.26-16.21,15.26-16.21-14.71,0-15.26-17.32-15.26-17.32Z"/>
    <path class="st0" d="M1311.29,840.62s-.36,11.27-9.93,11.27c0,0,9.93.62,9.93,10.55,0-9.93,9.93-10.55,9.93-10.55-9.57,0-9.93-11.27-9.93-11.27Z"/>
    <path class="st0" d="M1318.2,524.14s-.55,17.32-15.26,17.32c0,0,15.26.95,15.26,16.21,0-15.26,15.26-16.21,15.26-16.21-14.71,0-15.26-17.32-15.26-17.32Z"/>
    <path class="st0" d="M1294.44-100.25s-.22,6.94-6.12,6.94c0,0,6.12.38,6.12,6.5,0-6.12,6.12-6.5,6.12-6.5-5.9,0-6.12-6.94-6.12-6.94Z"/>
    <path class="st0" d="M1988.26,651.32s-.22,6.94-6.12,6.94c0,0,6.12.38,6.12,6.5,0-6.12,6.12-6.5,6.12-6.5-5.9,0-6.12-6.94-6.12-6.94Z"/>
    <path class="st0" d="M1678.19,616.27s-.22,6.94-6.12,6.94c0,0,6.12.38,6.12,6.5,0-6.12,6.12-6.5,6.12-6.5-5.9,0-6.12-6.94-6.12-6.94Z"/>
    <path class="st0" d="M1803.43,160.65s-.22,6.94-6.12,6.94c0,0,6.12.38,6.12,6.5,0-6.12,6.12-6.5,6.12-6.5-5.9,0-6.12-6.94-6.12-6.94Z"/>
    <path class="st0" d="M1572.32,132.59s-.22,6.94-6.12,6.94c0,0,6.12.38,6.12,6.5,0-6.12,6.12-6.5,6.12-6.5-5.9,0-6.12-6.94-6.12-6.94Z"/>
    <path class="st0" d="M1493.97,433.8s-.22,6.94-6.12,6.94c0,0,6.12.38,6.12,6.5,0-6.12,6.12-6.5,6.12-6.5-5.9,0-6.12-6.94-6.12-6.94Z"/>
    <path class="st0" d="M1854.37,347.51s-.22,6.94-6.12,6.94c0,0,6.12.38,6.12,6.5,0-6.12,6.12-6.5,6.12-6.5-5.9,0-6.12-6.94-6.12-6.94Z"/>
    <path class="st0" d="M1551.14,376.94s-.22,6.94-6.12,6.94c0,0,6.12.38,6.12,6.5,0-6.12,6.12-6.5,6.12-6.5-5.9,0-6.12-6.94-6.12-6.94Z"/>
    <path class="st0" d="M1714.58-106.97s-.22,6.94-6.12,6.94c0,0,6.12.38,6.12,6.5,0-6.12,6.12-6.5,6.12-6.5-5.9,0-6.12-6.94-6.12-6.94Z"/>
    <path class="st0" d="M2196.31,46.6s-.22,6.94-6.12,6.94c0,0,6.12.38,6.12,6.5,0-6.12,6.12-6.5,6.12-6.5-5.9,0-6.12-6.94-6.12-6.94Z"/>
    <path class="st0" d="M2222.3,276.2s-.22,6.94-6.12,6.94c0,0,6.12.38,6.12,6.5,0-6.12,6.12-6.5,6.12-6.5-5.9,0-6.12-6.94-6.12-6.94Z"/>
  </g>
  <g>
    <path class="st0" d="M689.92,1161.64s-.55,17.32-15.26,17.32c0,0,15.26.95,15.26,16.21,0-15.26,15.26-16.21,15.26-16.21-14.71,0-15.26-17.32-15.26-17.32Z"/>
    <path class="st0" d="M1559.92,862.43s-.55,17.32-15.26,17.32c0,0,15.26.95,15.26,16.21,0-15.26,15.26-16.21,15.26-16.21-14.71,0-15.26-17.32-15.26-17.32Z"/>
    <path class="st0" d="M1374.64,1162.02s-.55,17.32-15.26,17.32c0,0,15.26.95,15.26,16.21,0-15.26,15.26-16.21,15.26-16.21-14.71,0-15.26-17.32-15.26-17.32Z"/>
    <path class="st0" d="M1463.31,1450.82s-.55,17.32-15.26,17.32c0,0,15.26.95,15.26,16.21,0-15.26,15.26-16.21,15.26-16.21-14.71,0-15.26-17.32-15.26-17.32Z"/>
    <path class="st0" d="M1559.21,1776.74s-.55,17.32-15.26,17.32c0,0,15.26.95,15.26,16.21,0-15.26,15.26-16.21,15.26-16.21-14.71,0-15.26-17.32-15.26-17.32Z"/>
    <path class="st0" d="M1117.49,1800.85s-.55,17.32-15.26,17.32c0,0,15.26.95,15.26,16.21,0-15.26,15.26-16.21,15.26-16.21-14.71,0-15.26-17.32-15.26-17.32Z"/>
    <path class="st0" d="M689.65,1826.78s-.36,11.27-9.93,11.27c0,0,9.93.62,9.93,10.55,0-9.93,9.93-10.55,9.93-10.55-9.57,0-9.93-11.27-9.93-11.27Z"/>
    <path class="st0" d="M696.56,1510.31s-.55,17.32-15.26,17.32c0,0,15.26.95,15.26,16.21,0-15.26,15.26-16.21,15.26-16.21-14.71,0-15.26-17.32-15.26-17.32Z"/>
    <path class="st0" d="M672.8,885.91s-.22,6.94-6.12,6.94c0,0,6.12.38,6.12,6.5,0-6.12,6.12-6.5,6.12-6.5-5.9,0-6.12-6.94-6.12-6.94Z"/>
    <path class="st0" d="M1366.62,1637.48s-.22,6.94-6.12,6.94c0,0,6.12.38,6.12,6.5,0-6.12,6.12-6.5,6.12-6.5-5.9,0-6.12-6.94-6.12-6.94Z"/>
    <path class="st0" d="M1056.55,1602.43s-.22,6.94-6.12,6.94c0,0,6.12.38,6.12,6.5,0-6.12,6.12-6.5,6.12-6.5-5.9,0-6.12-6.94-6.12-6.94Z"/>
    <path class="st0" d="M1181.79,1146.81s-.22,6.94-6.12,6.94c0,0,6.12.38,6.12,6.5,0-6.12,6.12-6.5,6.12-6.5-5.9,0-6.12-6.94-6.12-6.94Z"/>
    <path class="st0" d="M950.68,1118.75s-.22,6.94-6.12,6.94c0,0,6.12.38,6.12,6.5,0-6.12,6.12-6.5,6.12-6.5-5.9,0-6.12-6.94-6.12-6.94Z"/>
    <path class="st0" d="M872.33,1419.97s-.22,6.94-6.12,6.94c0,0,6.12.38,6.12,6.5,0-6.12,6.12-6.5,6.12-6.5-5.9,0-6.12-6.94-6.12-6.94Z"/>
    <path class="st0" d="M1232.72,1333.67s-.22,6.94-6.12,6.94c0,0,6.12.38,6.12,6.5,0-6.12,6.12-6.5,6.12-6.5-5.9,0-6.12-6.94-6.12-6.94Z"/>
    <path class="st0" d="M929.49,1363.11s-.22,6.94-6.12,6.94c0,0,6.12.38,6.12,6.5,0-6.12,6.12-6.5,6.12-6.5-5.9,0-6.12-6.94-6.12-6.94Z"/>
    <path class="st0" d="M1092.94,879.19s-.22,6.94-6.12,6.94c0,0,6.12.38,6.12,6.5,0-6.12,6.12-6.5,6.12-6.5-5.9,0-6.12-6.94-6.12-6.94Z"/>
    <path class="st0" d="M1574.66,1032.76s-.22,6.94-6.12,6.94c0,0,6.12.38,6.12,6.5,0-6.12,6.12-6.5,6.12-6.5-5.9,0-6.12-6.94-6.12-6.94Z"/>
    <path class="st0" d="M1600.66,1262.36s-.22,6.94-6.12,6.94c0,0,6.12.38,6.12,6.5,0-6.12,6.12-6.5,6.12-6.5-5.9,0-6.12-6.94-6.12-6.94Z"/>
  </g>
</svg>