<?xml version="1.0" encoding="UTF-8"?>
<svg id="Calque_1" xmlns="http://www.w3.org/2000/svg" version="1.1" xmlns:xlink="http://www.w3.org/1999/xlink" viewBox="0 0 1973.66 1273.22">
  <!-- Generator: Adobe Illustrator 29.1.0, SVG Export Plug-In . SVG Version: 2.1.0 Build 142)  -->
  <defs>
    <style>
      .st0 {
        fill: url(#linear-gradient2);
      }

      .st1, .st2, .st3 {
        fill: #fff;
      }

      .st4 {
        fill: url(#linear-gradient1);
      }

      .st5 {
        fill: none;
      }

      .st2, .st6 {
        display: none;
      }

      .st3 {
        opacity: .15;
      }

      .st7 {
        fill: url(#linear-gradient3);
      }

      .st8 {
        fill: #fffbfb;
      }

      .st9 {
        fill: url(#linear-gradient);
      }

      .st10 {
        fill: #ffec00;
      }

      .st11 {
        clip-path: url(#clippath);
      }
    </style>
    <clipPath id="clippath">
      <rect class="st5" width="1944" height="1092.95"/>
    </clipPath>
    <linearGradient id="linear-gradient" x1="-191.01" y1="1997.91" x2="997.2" y2="1997.91" gradientTransform="translate(-292 1042) rotate(-90)" gradientUnits="userSpaceOnUse">
      <stop offset="0" stop-color="#000d41"/>
      <stop offset="1" stop-color="#00dacd"/>
    </linearGradient>
    <linearGradient id="linear-gradient1" x1="-19.45" y1="2053.41" x2="583.92" y2="2035.93" gradientTransform="translate(-292 1042) rotate(-90)" gradientUnits="userSpaceOnUse">
      <stop offset="0" stop-color="#001c47"/>
      <stop offset="1" stop-color="#006c88"/>
    </linearGradient>
    <linearGradient id="linear-gradient2" x1="-23.18" y1="1924.67" x2="580.19" y2="1907.18" xlink:href="#linear-gradient1"/>
    <linearGradient id="linear-gradient3" x1="-16.65" y1="2149.96" x2="586.72" y2="2132.47" xlink:href="#linear-gradient1"/>
  </defs>
  <g class="st11">
    <polygon class="st1" points="52.03 526.63 61.19 524.58 63.24 515.43 65.29 524.58 74.44 526.63 65.29 528.68 63.24 537.84 61.19 528.68 52.03 526.63"/>
    <polygon class="st1" points="1612.09 559.59 1621.25 557.54 1623.29 548.38 1625.34 557.54 1634.5 559.59 1625.34 561.64 1623.29 570.79 1621.25 561.64 1612.09 559.59"/>
    <polygon class="st1" points="748.38 548.38 757.54 546.33 759.58 537.18 761.63 546.33 770.79 548.38 761.63 550.43 759.58 559.59 757.54 550.43 748.38 548.38"/>
    <polygon class="st1" points="119.88 973.72 115.38 981.96 120.92 989.53 112.68 985.04 105.11 990.58 109.6 982.34 104.06 974.77 112.3 979.26 119.88 973.72"/>
    <polygon class="st1" points="1649.54 508.86 1658.7 506.81 1660.75 497.65 1662.79 506.81 1671.95 508.86 1662.79 510.9 1660.75 520.06 1658.7 510.9 1649.54 508.86"/>
    <polygon class="st1" points="395.37 637.56 404.52 635.51 406.57 626.35 408.62 635.51 417.78 637.56 408.62 639.6 406.57 648.76 404.52 639.6 395.37 637.56"/>
    <polygon class="st1" points="1849.07 490.49 1858.23 488.45 1860.27 479.29 1862.32 488.45 1871.48 490.49 1862.32 492.54 1860.27 501.7 1858.23 492.54 1849.07 490.49"/>
    <polygon class="st1" points="204.79 471.86 213.95 469.81 216 460.65 218.05 469.81 227.2 471.86 218.05 473.91 216 483.06 213.95 473.91 204.79 471.86"/>
    <polygon class="st1" points="1653.57 316.97 1662.73 314.92 1664.78 305.76 1666.83 314.92 1675.98 316.97 1666.83 319.02 1664.78 328.17 1662.73 319.02 1653.57 316.97"/>
    <polygon class="st1" points="1709.62 299.14 1715.04 297.93 1716.25 292.51 1717.46 297.93 1722.88 299.14 1717.46 300.35 1716.25 305.76 1715.04 300.35 1709.62 299.14"/>
    <polygon class="st1" points="1522.03 286.28 1527.44 285.07 1528.65 279.65 1529.86 285.07 1535.28 286.28 1529.86 287.49 1528.65 292.91 1527.44 287.49 1522.03 286.28"/>
    <polygon class="st1" points="1486.88 263.87 1492.3 262.66 1493.51 257.24 1494.72 262.66 1500.14 263.87 1494.72 265.08 1493.51 270.5 1492.3 265.08 1486.88 263.87"/>
    <polygon class="st1" points="1542.53 140.06 1547.94 138.85 1549.15 133.43 1550.37 138.85 1555.78 140.06 1550.37 141.27 1549.15 146.69 1547.94 141.27 1542.53 140.06"/>
    <polygon class="st1" points="491.66 343.47 497.08 342.26 498.29 336.84 499.5 342.26 504.92 343.47 499.5 344.68 498.29 350.1 497.08 344.68 491.66 343.47"/>
    <polygon class="st1" points="828.68 1039.55 834.1 1038.34 835.31 1032.92 836.52 1038.34 841.94 1039.55 836.52 1040.76 835.31 1046.18 834.1 1040.76 828.68 1039.55"/>
    <polygon class="st1" points="486.21 427.7 491.63 426.48 492.84 421.07 494.05 426.48 499.47 427.7 494.05 428.91 492.84 434.32 491.63 428.91 486.21 427.7"/>
    <polygon class="st1" points="1068.75 772.89 1074.17 771.68 1075.38 766.26 1076.59 771.68 1082.01 772.89 1076.59 774.1 1075.38 779.52 1074.17 774.1 1068.75 772.89"/>
    <polygon class="st1" points="1345.1 526.61 1350.51 525.4 1351.73 519.98 1352.94 525.4 1358.35 526.61 1352.94 527.82 1351.73 533.24 1350.51 527.82 1345.1 526.61"/>
    <polygon class="st1" points="365.29 615.02 370.71 613.81 371.92 608.39 373.13 613.81 378.55 615.02 373.13 616.23 371.92 621.64 370.71 616.23 365.29 615.02"/>
    <polygon class="st1" points="1700.29 120.21 1705.71 119 1706.92 113.58 1708.13 119 1713.55 120.21 1708.13 121.42 1706.92 126.84 1705.71 121.42 1700.29 120.21"/>
    <polygon class="st1" points="295.61 434.32 301.02 433.11 302.24 427.7 303.45 433.11 308.86 434.32 303.45 435.53 302.24 440.95 301.02 435.53 295.61 434.32"/>
    <polygon class="st1" points="174.53 872.09 179.94 870.88 181.15 865.46 182.36 870.88 187.78 872.09 182.36 873.3 181.15 878.71 179.94 873.3 174.53 872.09"/>
    <polygon class="st1" points="800.09 316.97 805.5 315.76 806.72 310.34 807.93 315.76 813.34 316.97 807.93 318.18 806.72 323.6 805.5 318.18 800.09 316.97"/>
    <polygon class="st1" points="1887.72 44.31 1893.13 43.1 1894.34 37.68 1895.56 43.1 1900.97 44.31 1895.56 45.52 1894.34 50.94 1893.13 45.52 1887.72 44.31"/>
    <polygon class="st1" points="1821.92 395.28 1827.34 394.07 1828.55 388.65 1829.76 394.07 1835.17 395.28 1829.76 396.49 1828.55 401.91 1827.34 396.49 1821.92 395.28"/>
    <polygon class="st1" points="1688.41 593.53 1693.83 592.31 1695.04 586.9 1696.25 592.31 1701.67 593.53 1696.25 594.74 1695.04 600.15 1693.83 594.74 1688.41 593.53"/>
    <polygon class="st1" points="658.72 446.46 664.13 445.24 665.34 439.83 666.55 445.24 671.97 446.46 666.55 447.67 665.34 453.08 664.13 447.67 658.72 446.46"/>
    <polygon class="st1" points="153.2 328.72 158.62 327.51 159.83 322.09 161.04 327.51 166.46 328.72 161.04 329.93 159.83 335.35 158.62 329.93 153.2 328.72"/>
    <polygon class="st1" points="599.53 401.91 604.95 400.7 606.16 395.28 607.37 400.7 612.79 401.91 607.37 403.12 606.16 408.53 604.95 403.12 599.53 401.91"/>
    <polygon class="st1" points="368.75 1029.58 366.09 1034.45 369.37 1038.93 364.5 1036.27 360.02 1039.55 362.67 1034.68 359.4 1030.2 364.27 1032.85 368.75 1029.58"/>
    <polygon class="st1" points="802.63 674.37 808.04 673.16 809.26 667.74 810.47 673.16 815.88 674.37 810.47 675.58 809.26 681 808.04 675.58 802.63 674.37"/>
    <polygon class="st1" points="1358.69 685.59 1364.11 684.38 1365.32 678.97 1366.53 684.38 1371.94 685.59 1366.53 686.8 1365.32 692.22 1364.11 686.8 1358.69 685.59"/>
    <polygon class="st1" points="1377.55 905.95 1382.96 904.74 1384.17 899.33 1385.38 904.74 1390.8 905.95 1385.38 907.17 1384.17 912.58 1382.96 907.17 1377.55 905.95"/>
    <polygon class="st1" points="960.83 899.33 966.25 898.12 967.46 892.7 968.67 898.12 974.08 899.33 968.67 900.54 967.46 905.95 966.25 900.54 960.83 899.33"/>
    <polygon class="st1" points="806.72 262.44 812.13 261.23 813.34 255.81 814.55 261.23 819.97 262.44 814.55 263.65 813.34 269.07 812.13 263.65 806.72 262.44"/>
    <polygon class="st1" points="1338.47 328.17 1343.89 326.96 1345.1 321.55 1346.31 326.96 1351.73 328.17 1346.31 329.39 1345.1 334.8 1343.89 329.39 1338.47 328.17"/>
    <polygon class="st1" points="1733.76 176.62 1742.91 174.57 1744.96 165.42 1747.01 174.57 1756.17 176.62 1747.01 178.67 1744.96 187.83 1742.91 178.67 1733.76 176.62"/>
    <polygon class="st1" points="1658.27 253.65 1667.42 251.6 1669.47 242.44 1671.52 251.6 1680.68 253.65 1671.52 255.69 1669.47 264.85 1667.42 255.69 1658.27 253.65"/>
    <polygon class="st1" points="859.6 862.15 868.76 860.1 870.81 850.95 872.86 860.1 882.01 862.15 872.86 864.2 870.81 873.36 868.76 864.2 859.6 862.15"/>
    <polygon class="st1" points="470.43 767.57 479.59 765.53 481.63 756.37 483.68 765.53 492.84 767.57 483.68 769.62 481.63 778.78 479.59 769.62 470.43 767.57"/>
    <polygon class="st1" points="1771.18 375.33 1780.34 373.28 1782.39 364.13 1784.44 373.28 1793.59 375.33 1784.44 377.38 1782.39 386.54 1780.34 377.38 1771.18 375.33"/>
    <polygon class="st1" points="356.45 870.96 365.61 868.92 367.66 859.76 369.71 868.92 378.87 870.96 369.71 873.01 367.66 882.17 365.61 873.01 356.45 870.96"/>
    <polygon class="st1" points="1137.37 962.51 1146.53 960.47 1148.57 951.31 1150.62 960.47 1159.78 962.51 1150.62 964.56 1148.57 973.72 1146.53 964.56 1137.37 962.51"/>
    <circle class="st8" cx="137.52" cy="589.13" r="8.05"/>
    <circle class="st8" cx="821.4" cy="891.27" r="8.05"/>
    <circle class="st8" cx="154.84" cy="434.32" r="8.05"/>
    <circle class="st8" cx="1457.79" cy="436.48" r="8.05"/>
    <circle class="st8" cx="264.23" cy="378.91" r="8.05"/>
    <circle class="st8" cx="528.78" cy="193.98" r="8.05"/>
    <circle class="st8" cx="1479.75" cy="996.89" r="8.05"/>
    <circle class="st8" cx="1683.83" cy="708.86" r="8.05"/>
    <circle class="st8" cx="473.58" cy="629.5" r="8.05"/>
    <circle class="st10" cx="686.76" cy="270.69" r="4.03"/>
    <circle class="st10" cx="1248.29" cy="873.36" r="4.03"/>
    <circle class="st10" cx="1373.52" cy="395.25" r="4.03"/>
    <circle class="st10" cx="1634.76" cy="772.97" r="4.03"/>
    <circle class="st10" cx="1711.67" cy="363.04" r="4.03"/>
    <circle class="st10" cx="1078.88" cy="628.25" r="4.03"/>
    <circle class="st10" cx="40.69" cy="949.66" r="4.03"/>
    <circle class="st10" cx="355.54" cy="1012.66" r="4.03"/>
    <circle class="st10" cx="1628.13" cy="499.94" r="4.03"/>
    <circle class="st10" cx="1706.24" cy="692.01" r="4.03"/>
    <circle class="st10" cx="1645.73" cy="68.43" r="4.03"/>
    <circle class="st10" cx="1462.54" cy="501.7" r="4.03"/>
    <circle class="st10" cx="504.92" cy="489.69" r="4.03"/>
    <circle class="st10" cx="1476.23" cy="800.43" r="4.03"/>
    <circle class="st10" cx="1315.04" cy="815.85" r="4.03"/>
    <circle class="st10" cx="262.34" cy="645.5" r="4.03"/>
    <circle class="st10" cx="1256.34" cy="670.34" r="4.03"/>
    <circle class="st10" cx="1315.04" cy="988.84" r="4.03"/>
    <circle class="st10" cx="763.61" cy="787.8" r="4.03"/>
    <circle class="st8" cx="634.81" cy="131.33" r="8.05"/>
    <circle class="st8" cx="35" cy="795.86" r="8.05"/>
    <circle class="st8" cx="1758.23" cy="245.59" r="8.05"/>
    <circle class="st8" cx="1774.34" cy="68.43" r="8.05"/>
    <path class="st2" d="M1339.35-127.6c1.1,0,2.17.56,2.74,1.58l52.29,90.57,16.37,28.37,88.66,153.6,31.84,55.11,56.83,98.46h-7.22l-58.65-101.6-32.48-56.29L1410.75,5.46l-23.62-40.91-50.47-87.43c-.89-1.5-.35-3.41,1.13-4.29.48-.3,1.05-.43,1.56-.43Z"/>
    <polygon class="st1" points="1238.34 388.65 1247.5 386.61 1249.55 377.45 1251.6 386.61 1260.75 388.65 1251.6 390.7 1249.55 399.86 1247.5 390.7 1238.34 388.65"/>
    <polygon class="st1" points="862.3 575.12 871.45 573.08 873.5 563.92 875.55 573.08 884.71 575.12 875.55 577.17 873.5 586.33 871.45 577.17 862.3 575.12"/>
    <polygon class="st1" points="462.38 316.99 471.53 314.94 473.58 305.79 475.63 314.94 484.79 316.99 475.63 319.04 473.58 328.2 471.53 319.04 462.38 316.99"/>
    <circle class="st10" cx="1380.32" cy="213.9" r="4.03"/>
    <circle class="st10" cx="602.13" cy="605.65" r="4.03"/>
    <circle class="st10" cx="653.98" cy="626.35" r="4.03"/>
    <circle class="st10" cx="504.92" cy="86.25" r="4.03"/>
    <circle class="st10" cx="372.4" cy="261.35" r="4.03"/>
    <circle class="st10" cx="26.15" cy="469.68" r="4.03"/>
    <circle class="st10" cx="324.4" cy="156.96" r="4.03"/>
    <circle class="st10" cx="360.48" cy="450.43" r="4.03"/>
    <circle class="st8" cx="983.65" cy="399.27" r="8.05"/>
    <polygon class="st1" points="1010.99 537.84 1020.14 535.79 1022.19 526.63 1024.24 535.79 1033.4 537.84 1024.24 539.89 1022.19 549.04 1020.14 539.89 1010.99 537.84"/>
    <g class="st6">
      <path class="st3" d="M1973.66,4.59v1268.63c-49.69-4.78-97.74-15.27-143.42-30.82-3.03-1.02-6.04-2.07-9.05-3.14-47.24-16.83-91.94-39.11-133.28-66.09-68.1-44.37-127.18-101.41-173.92-167.85-1.93-2.71-3.84-5.48-5.72-8.24-69.5-102.06-110.11-225.35-110.11-358.17,0-168.15,65.12-321.12,171.55-435.02,78.17-83.67,178.67-146.24,291.97-178.27,1.96-.59,3.92-1.13,5.91-1.66.11-.03.22-.05.32-.08,6.58-1.8,13.18-3.49,19.84-5.05,2.63-.64,5.26-1.23,7.92-1.83,25.45-5.72,51.49-9.88,77.98-12.43Z"/>
      <path class="st9" d="M1973.66,44.8v1188.21c-61.69-6.31-120.61-22.04-175.26-45.71-3.25-1.4-6.47-2.82-9.69-4.29v-.03c-27.49-12.46-53.87-26.98-78.97-43.32-55.83-36.37-105.22-81.84-146-134.32-7.78-9.99-15.25-20.24-22.36-30.71-65.15-95.67-103.21-211.23-103.21-335.7,0-157.6,61.04-300.97,160.79-407.72,74.54-79.78,170.72-139.1,279.17-168.63,1.42-.38,2.82-.78,4.24-1.13,2.09-.56,4.19-1.1,6.31-1.64,6.63-1.69,13.29-3.25,20.02-4.67,2.66-.59,5.34-1.15,8.03-1.69,18.68-3.78,37.66-6.66,56.93-8.64Z"/>
      <g>
        <path class="st4" d="M1878.12,62.57v418.97c0,14.68-11.92,26.6-26.63,26.6h-4.35c-14.71,0-26.6-11.92-26.6-26.6v-83.8c0-7.36-2.98-14.01-7.78-18.82-4.83-4.8-11.49-7.78-18.84-7.78-14.68,0-26.6,11.89-26.6,26.6v150.48c0,14.68-11.92,26.6-26.6,26.6h-4.38c-14.68,0-26.6-11.92-26.6-26.6v-90.97c0-7.36-2.98-13.99-7.78-18.82-4.83-4.8-11.49-7.78-18.82-7.78-14.68,0-26.6,11.92-26.6,26.6v24.29c0,14.68-11.92,26.6-26.6,26.6h-4.38c-14.71,0-26.6-11.92-26.6-26.6v-250.34c74.54-79.78,170.72-139.1,279.17-168.63Z"/>
        <path class="st0" d="M1678.76,638.92h4.38c14.68,0,26.6,11.92,26.6,26.6v474.13c-66.46-43.3-123.77-99.48-168.36-165.03v-260.57c0-14.68,11.89-26.6,26.6-26.6h4.35c14.71,0,26.63,11.92,26.63,26.6v64.34c0,14.71,11.89,26.6,26.6,26.6s26.6-11.89,26.6-26.6v-112.88c0-14.68,11.92-26.6,26.6-26.6Z"/>
        <path class="st7" d="M1878.11,617.6v286.34c0,15.9-12.89,28.79-28.79,28.79h0c-15.9,0-28.79-12.89-28.79-28.79v-286.34c0-15.9,12.89-28.79,28.79-28.79h0c15.9,0,28.79,12.89,28.79,28.79Z"/>
      </g>
    </g>
  </g>
</svg>