<?xml version="1.0" encoding="UTF-8"?>
<svg id="Calque_1" xmlns="http://www.w3.org/2000/svg" version="1.1" viewBox="0 0 863.38 863.22">
  <!-- Generator: Adobe Illustrator 29.1.0, SVG Export Plug-In . SVG Version: 2.1.0 Build 142)  -->
  <defs>
    <style>
      .st0 {
        opacity: .15;
      }

      .st1 {
        isolation: isolate;
      }

      .st2 {
        fill: #2f60c9;
      }

      .st3 {
        fill: #c9e854;
      }
    </style>
  </defs>
  <g class="st1">
    <g id="Calque_5">
      <g>
        <circle class="st2" cx="431.65" cy="431.64" r="431.56"/>
        <path class="st3" d="M482.7,3.08c-.08,3.11-.28,6.2-.58,9.31-1.77,17.95,1,18.79,6.86,33.37,9.12,22.7-2.35,49.53-11.46,71.55-11.23,27.16-27.77,25.59-45.72,44.99-14.57,15.73-4.08,56.19-25.82,58.17-20.53,1.87-48.53-18.32-60.87-33.41-10.78-13.19-20.48-33.8-38.14-39.75-19.33-6.53-37.89,13.04-58.75,2.11-14.56-7.63-17.05-28.03-29.57-37.4-20.18-15.07-40.69,17.78-62.86,21.59-10.64,1.84-17.63-5.2-21.59-14.79,25.45-24.17,54.29-45.61,86.31-63.57C303.4,8.75,395.06-7.44,482.7,3.08h0Z"/>
        <path class="st3" d="M267.38,269.42c-11.72,10.88-16.2,9.53-27.7.54-3.69-2.89-5.41-9.53-9.61-11.93-5.08-2.91-14.06-1.15-19.59-2.58-14.37-3.71-17.42-4.92-33.62-3.04-6.47.75-25.54,7.2-32.68,5.85-18.47-3.49-24.57-29.24-22.88-50.64.75-9.46,6.33-17.95,14.8-22.23.05-.02.09-.05.14-.07,10-5.01,12-1.67,19.92-2.18,8.54-.54,16.56-3.75,24.72-7.17,11.91-4.98,25.66-.99,33.05,9.59,3.65,5.22,7.23,10.48,10.78,16.19,7.78,12.49,14.65,13.21,27.15,19.76,23.25,12.18,39.35,25.76,15.52,47.88h-.01v.03Z"/>
        <path class="st3" d="M402.06,554.03c-2.87,6.73-19.82,7.12-25.55,11.89-8.78,7.3-8.98,12.78-19.22,17.63-18.4,8.72-25.37,1.42-26.1-10.19-.32-5.04,1.12-10.01,3.97-14.19,5.53-8.13,13.01-14.36,25.52-19.75,10.24-4.41,52.09-10.53,41.37,14.63h0v-.02Z"/>
        <path class="st3" d="M595.13,607.54c5.27,10.65-.18,14.29-.12,24.06.12,18.26,17.73,28.31,21.2,46.05,4.27,21.82-10.26,34.04-2.65,56.99,6.98,21.05,16.73,27.15,9.91,49.53-3.69,12.11-6.72,24.57-6.21,37.09-17.73,8.47-35.8,15.63-54.07,21.5-10.06-13.37-17.07-29.25-23.76-44.77-7.23-16.8-17.83-44.39-32.15-57.25-18.55-16.64-40.42,4.21-61.46,2.35-27.28-2.42-27.3-30.6-42.8-46.16-16.84-16.91-46.35-1.28-63.46,7.53-16.77,10.07-37.74,9.66-56.25,4.7-9.87-2.65-19.32-8.26-29.55-8.4-10.78-.15-19.22,7.98-29.35,9.06-18.86,2.01-33.93-5.86-43.12-21.85-4.12-7.15-9.11-14.53-10.61-22.65-1.61-8.63,2.97-16.78-.79-24.92-2.59-5.61-23.79-32.97-30.17-32.76-21.09.68,4.19,32.3-.92,40.04-7.91,12-37.88-11.2-44.9-19.53-11.37-13.51-14.79-34.28-28.47-45.54-7.85-6.46-15.37-3.74-22.86-9.59-8.03-6.27-6.24-20.29-12.23-27.5-4.88-5.9-11.93-8.78-18.5-13.33-15.62-65.05-15.53-131.89-1.21-195.36,10.39,5.78,23.65,7.28,34.5,6.47,9.58-.72,18.8-3.58,27.14-8.14,8.33-4.55,13.96-14.62,22.7-15.49,15.09-1.52,28.03,17.06,29.52,29.43,2.64,22.01-8.38,27.1,17.99,23.58,11.6-1.54,36.09,1.79,46.82-4.9,12.84-8,1.59-25.26,17.58-35.07,12.8-7.85,27.58-4.8,41.86-7.72,16.6-3.39,32.76-13.97,50.28-12.18,18.76,1.91,45.08,45.27,47.38,64.96,2.37,20.29-16.74,24.52-29.96,21.97-11.63-2.25-40.75-17.82-34.02,6.74,5.34,19.47,27.35,11.71,37.31,24.06,11.73,14.56-6.63,25.14-16.24,33.65-15.64,13.87-3.66,24.32-12.16,42.44-3.22,6.86-12.07,9.32-11.36,19.32.54,7.47,6.11,13.53,7.06,20.62,1.22,9.13-.73,15.78,4.11,26.25,2.84,6.14,9.5,12.59,8.71,19.75-2.15,19.3-32.94,16.06-33.55,38.76-.38,13.92,5.12,11.27,13.12,19.49,5.74,5.91,8.46,21.33,15.96,22.76,55.18,10.45,59.37-35.94,65.51-44.6,12.96-18.23,29.11-39.1,50.56-47.01,19.77-7.27,35.67,7.91,54.85-2.53,17.99-9.79,31.84-20.09,54.09-19.73,19.04.31,41.5,14.96,56.41,27.29,6.18,5.12,14.72,13.23,18.33,20.53h-.04.04Z"/>
        <path class="st3" d="M808.04,220.52c70.72,126.09,71.33,272.46,14.47,394.15-7.75-3.85-15.43-7.08-21.18-15.31-12.46-17.83-1.52-39.39-11.7-59.13-15.16-29.39-31.52-95.62-76.66-49.82,0,0-26.54,14.8-37.54,20.13-11.36,5.5-23.35,13.31-37.17,12.4-22.25-1.46-46.5-16.6-64.07-34.45-13.98-14.19-21.2-22.05-25.68-45.5-2.91-15.17-6.48-48.07-2.22-61.73,5.17-16.56,33.37-27.61,46.69-37.18,15.53-11.17,30.07-21.13,41.26-38.06,5.91-8.92,9.2-20.26,16.82-27.56,6.67-6.38,16.3-8.66,22.44-15.97,12.76-15.17,16.87-25.77,34.61-35.76,33.24-18.73,3.58-70.77,33.17-95.87,25.49,26.26,48.02,56.24,66.77,89.66h-.01Z"/>
        <path class="st3" d="M637.8,52.43c-8.8,16.99-25.96,30.18-46.34,32.57-14.06,1.65-26.57-14.23-40.88-19.42-17.8-6.46-28.76-6.65-32.12-28.31-1.35-8.75-1.79-18.77-1.42-28.69,42.1,8.51,82.85,23.26,120.78,43.83h-.01v.02Z"/>
        <path class="st3" d="M715.42,106.35c-3.95,4.5-8.23,8.59-11.34,13.93-3.55,6.08-4.68,13.25-8.65,19.1-8.3,12.27-16.52,13.49-16.22,29.01.14,7.13,8.44,29.77.39,34.76-6.79,4.21-20.63-17.09-25.82-21.18-11.9-9.38-14.11-7.24-21.72,7.03-7.51,14.09-8.25,24.78-3.81,39.69,3.29,11.04,7.38,16.6-1.8,28.27-6.59,8.37-17.87,13.54-25.96,20.68-12.12,10.71-10.05,23.57-21.11,33.38-7.39,6.55-31.31,20.08-41.49,16.51-16.86-5.91-24.1-40.56-19.17-55.08,6.6-19.43,30.05-36.54,32.87-55.8,2.95-20.31-4.44-45.29-6.32-64.7-2.01-20.68,20.18-42.89,42.62-45.73,11.24-1.42,18.2,1.54,29.85-3.31,14.17-5.9,40.22-18.43,49.69-32.81,16.72,10.88,32.76,22.98,47.96,36.26h.03Z"/>
        <g class="st0">
          <path d="M808.14,220.47c116.6,207.87,42.61,470.91-165.27,587.51-120.17,67.4-258.79,71.11-376.89,22.08,92.16,14.34,189.63-.93,277.29-50.09,207.87-116.6,281.88-379.64,165.27-587.52-49.18-87.68-124.43-151.54-210.57-187.32,126.37,19.72,242.75,95.15,310.16,215.35h.01Z"/>
        </g>
      </g>
    </g>
  </g>
</svg>