<?xml version="1.0" encoding="UTF-8"?>
<svg id="Calque_1" xmlns="http://www.w3.org/2000/svg" version="1.1" viewBox="0 0 857.71 767.43">
  <!-- Generator: Adobe Illustrator 29.1.0, SVG Export Plug-In . SVG Version: 2.1.0 Build 142)  -->
  <defs>
    <style>
      .st0 {
        fill: #98e6f0;
      }

      .st1 {
        fill: #65c0cc;
      }

      .st2 {
        isolation: isolate;
      }

      .st3 {
        fill: #aef3f8;
      }

      .st4 {
        opacity: .1;
      }
    </style>
  </defs>
  <g class="st2">
    <g id="Uranus">
      <g>
        <path class="st0" d="M821.05,383.72c0,110.15-46.42,209.46-120.76,279.43-68.67,64.65-161.2,104.28-262.96,104.28-51.04,0-99.77-9.97-144.33-28.07-45.84-18.63-87.29-45.84-122.29-79.68-13.97-13.49-26.9-28.03-38.68-43.49-10.52-13.78-20.13-28.3-28.71-43.48-.13-.23-.26-.46-.37-.68-10.53-18.63-19.53-38.21-26.85-58.61-7.22-20.11-12.81-41.02-16.61-62.54-2.57-14.61-4.33-29.5-5.2-44.64-.43-7.44-.66-14.95-.66-22.5,0-50.17,9.63-98.09,27.15-142.02,14.61-36.68,34.74-70.58,59.32-100.66C210.47,54.95,317.48,0,437.34,0c66.04,0,128.17,16.68,182.42,46.07,13.53,7.34,26.58,15.43,39.07,24.28,5.22,3.71,10.35,7.54,15.39,11.49,30.21,23.73,56.78,51.9,78.71,83.54,17.47,25.19,32,52.58,43.07,81.68,15.28,40.06,24.03,83.33,24.98,128.54.01.35.01.68.01,1.03.05,2.35.08,4.74.08,7.1h-.02Z"/>
        <path class="st3" d="M619.75,46.06c-5.48,8.69-15.33,14.92-25.38,18.14-13.71,4.38-28.39,4.68-42.37,8.1-47.13,11.5-79,55.58-122.86,76.35-49.77,23.56-108.2,14.43-162.23,3.79-41.7-8.21-85.43-16.91-126.85-11.4C210.44,54.95,317.45,0,437.31,0c66.04,0,128.17,16.68,182.42,46.07h.02Z"/>
        <path class="st3" d="M795.99,247.04c-19.77,43.01-74.45,71.95-116.47,82.26-52.89,12.98-107.49,16.9-161.74,21.61-30.4,2.63-61.12,5.61-90.02,15.42-33.39,11.36-63.08,31.39-95.14,46.1-87.3,40.04-192.78,36.99-278.35-6.21-.43-7.44-.66-14.95-.66-22.5,0-50.17,9.63-98.09,27.15-142.02,31.53,19.55,69.68,28.5,106.55,24.22,35.18-4.08,68.25-19.4,103.32-24.34,39.79-5.6,80.04,2.34,119.94,7.1,39.91,4.77,82.2,5.98,118.26-11.75,41.77-20.54,67.9-62.64,90.77-103.16,12.12-21.51,24.44-43.68,39.22-63.43,5.22,3.71,10.35,7.54,15.39,11.49,30.21,23.73,56.78,51.9,78.71,83.54,17.47,25.19,32,52.58,43.07,81.68h0Z"/>
        <path class="st3" d="M682.2,456.03c-5.2,13.13-14.61,24.16-24.59,34.17-31.12,31.16-69.1,54.63-108.24,74.8-116.71,60.09-247.43,92.22-378.65,94.67-13.97-13.49-26.9-28.03-38.68-43.49,113.92-14.24,227.13-34.03,339.11-59.3,15.28-3.45,30.89-7.15,43.99-15.73,13.1-8.58,23.4-23.13,22.55-38.78-58.91,29.72-120.76,55.52-186.06,64.97-38.25,5.55-77.07,5.41-115.73,5.23-44.32-.18-88.63-.36-132.94-.56-10.53-18.63-19.53-38.21-26.85-58.61,153.24,24.44,314.5-3.03,450.72-77.53,31.51-17.22,63-37.31,98.69-41.22,20.55-2.25,44.28,2.83,55.02,20.5,7.35,12.08,6.89,27.73,1.68,40.87h-.02Z"/>
        <path class="st3" d="M821.05,383.72c0,110.15-46.42,209.46-120.76,279.43-28.37,6.96-56.74,13.9-85.11,20.86-40.79,9.99-81.65,20.01-123.18,26.33-43.29,6.59-87.54,9.12-130.85,2.67-6.28-.94-13.74-3.06-15.49-9.18-1.68-5.8,2.98-11.49,7.87-15.04,25.26-18.31,59.85-11.46,91.03-12.44,21.79-.69,43.43-5.67,63.31-14.58,25.32-11.36,47.36-28.76,69.13-45.98,36.47-28.88,72.99-57.78,107.08-89.42,49.6-46.03,93.78-97.52,136.89-149.73.05,2.35.08,4.74.08,7.1v-.02Z"/>
        <g class="st4">
          <path d="M821.26,383.72c0,211.92-171.79,383.71-383.72,383.71-122.51,0-231.61-57.43-301.86-146.82,65.23,51.21,147.46,81.76,236.82,81.76,211.92,0,383.72-171.79,383.72-383.72,0-89.38-30.57-171.64-81.81-236.86,89.42,70.26,146.85,179.38,146.85,301.91h0v.02Z"/>
        </g>
        <path class="st1" d="M818.14,336.39c-1.67,3.15-3.39,6.33-5.18,9.51-50.37,90.01-137.28,180.62-244.75,255.17-94.69,65.69-195.49,112.07-287.87,132.86-12.45,2.81-24.75,5.15-36.85,7.01-22.53,3.46-43.85,5.17-63.8,5.17-72.02,0-126.27-22.28-155.89-64.96-37.82-54.5-30.38-135.02,20.93-226.71,3.84-6.84,7.87-13.7,12.12-20.54.75,5.69,1.6,11.34,2.6,16.95.37,2.13.77,4.26,1.19,6.38-.9,1.54-1.78,3.09-2.63,4.63-23.73,42.39-37.73,82.17-41.63,118.27-3.94,36.55,2.75,67.62,19.9,92.35s43.92,41.89,79.53,50.98c35.16,8.99,77.34,9.82,125.34,2.45,5.57-.87,11.17-1.81,16.84-2.89,95.48-17.95,201.84-65.29,301.53-134.44,105.59-73.26,190.87-162.07,240.14-250.09,5.29-9.44,10.09-18.76,14.39-27.92,15.06-32.01,24.2-62.29,27.23-90.34,3.94-36.55-2.75-67.62-19.9-92.35-17.14-24.73-43.9-41.89-79.53-50.98-19.33-4.95-40.77-7.42-64.14-7.42-6.32,0-12.77.18-19.36.54-6.73-4.76-13.63-9.3-20.68-13.61,92.13-9.49,161.33,12.47,196.24,62.8,36.49,52.62,30.83,129.46-15.77,217.19h-.01.01Z"/>
      </g>
    </g>
  </g>
</svg>