<?xml version="1.0" encoding="UTF-8"?>
<svg id="Calque_1" xmlns="http://www.w3.org/2000/svg" version="1.1" viewBox="0 0 859.8 839.69">
  <!-- Generator: Adobe Illustrator 29.1.0, SVG Export Plug-In . SVG Version: 2.1.0 Build 142)  -->
  <defs>
    <style>
      .st0 {
        fill: #d3885e;
      }

      .st1 {
        fill: #fff;
        opacity: .06;
      }

      .st1, .st2 {
        isolation: isolate;
      }

      .st3 {
        fill: #ce8763;
      }

      .st4 {
        fill: #ecb489;
      }

      .st5 {
        opacity: .15;
      }

      .st6 {
        fill: #eeb98d;
      }

      .st7 {
        fill: #c9825b;
      }

      .st8 {
        fill: #eab186;
      }
    </style>
  </defs>
  <g class="st2">
    <g id="Venus">
      <path class="st3" d="M859.26,419.86c0,4.31-.06,8.6-.2,12.87-.78,25.18-3.8,49.8-8.95,73.68-.62,2.96-1.27,5.92-1.99,8.86-8.25,34.77-20.93,67.88-37.43,98.72,0,0-.01.02-.01.03-8.55,16.02-18.13,31.42-28.66,46.13-14.64,20.5-31.12,39.66-49.19,57.25-17.15,16.7-35.72,31.98-55.55,45.67-69.92,48.26-155.26,76.62-247.37,76.62s-177.44-28.36-247.37-76.62c-19.82-13.69-38.41-28.97-55.55-45.67-18.08-17.59-34.55-36.74-49.21-57.25-10.51-14.71-20.11-30.11-28.65-46.13,0,0,0-.02,0-.03-16.51-30.84-29.18-63.95-37.44-98.72-.71-2.94-1.37-5.9-1.99-8.86-5.15-23.87-8.18-48.5-8.95-73.68-.14-4.28-.2-8.56-.2-12.87,0-13.96.7-27.75,2.06-41.35,4.23-42.39,14.92-82.94,31.09-120.69,9.04-21.14,19.81-41.38,32.12-60.6,17.77-27.74,38.76-53.28,62.45-76.17,23.94-23.11,50.65-43.49,79.6-60.62C272.64,22.07,348.63,0,429.88,0s157.25,22.07,222.03,60.43c28.93,17.13,55.64,37.51,79.58,60.62,23.69,22.89,44.7,48.43,62.45,76.17,12.32,19.22,23.09,39.46,32.12,60.6,16.17,37.75,26.87,78.29,31.11,120.69,1.35,13.6,2.05,27.41,2.05,41.35h.04Z"/>
      <path class="st8" d="M758.13,162.69c-217.86,24.05-437.71,24.05-655.57,0,37.97-49.65,84.79-90.38,136.49-119.71,127.39,8.55,255.2,8.55,382.59,0,51.7,29.33,98.51,70.06,136.48,119.71h.01Z"/>
      <path class="st0" d="M808.1,228.36c-251,27.72-504.3,27.72-755.31,0,10.82-19.23,23.04-37.47,36.41-54.67,19.3-24.8,41.01-47.39,64.54-67.46,184.15,15.44,369.26,15.44,553.41,0,23.54,20.07,45.25,42.66,64.54,67.46,13.37,17.19,25.59,35.45,36.41,54.67h0Z"/>
      <path class="st6" d="M855.82,376.35c.45,4.11.84,8.21,1.15,12.31-283.75,31.32-570.08,31.32-853.83,0,.31-4.1.7-8.2,1.15-12.31,1.47-13.31,3.61-26.41,6.37-39.25,8.6-40.01,23.15-77.59,42.17-112.08,250.82,25.53,503.6,25.53,754.42,0,19.02,34.49,33.58,72.07,42.18,112.08,2.75,12.84,4.9,25.93,6.36,39.25h.03Z"/>
      <path class="st7" d="M857.51,377.05c.45,4.11.84,8.21,1.15,12.31,1.88,24.13,1.43,47.96-1.32,71.33-.32,2.89-.7,5.79-1.12,8.67-283.4,30.46-569.24,30.46-852.64,0-.42-2.88-.8-5.78-1.12-8.67-2.75-23.36-3.2-47.2-1.32-71.33.31-4.1.7-8.2,1.15-12.31,1.47-13.31,3.62-26.41,6.38-39.25,279.97,30.76,562.47,30.76,842.44,0,2.75,12.84,4.9,25.93,6.37,39.25h.03Z"/>
      <path class="st4" d="M859.3,460.42c-.31,2.89-.69,5.79-1.11,8.67-4.79,34.12-14.48,67.16-28.8,98.38-7.42,16.2-16.08,31.89-25.93,46.99-248.48,22.95-498.52,22.95-747,0-9.84-15.1-18.5-30.79-25.92-46.99-14.33-31.22-24.03-64.26-28.81-98.38-.42-2.88-.79-5.78-1.11-8.67,285.35,31.5,573.31,31.5,858.66,0h.02Z"/>
      <path class="st4" d="M787.37,608.04v.03c-6.27,16.65-13.68,32.78-22.2,48.29-11.84,21.62-25.83,42.03-41.79,60.91-15.13,17.93-32.04,34.47-50.51,49.39-161.77,11.58-324.17,11.58-485.94,0-18.48-14.91-35.38-31.46-50.51-49.39-15.96-18.89-29.95-39.29-41.81-60.91-8.51-15.51-15.93-31.64-22.19-48.29v-.03c237.61,26.23,477.38,26.23,714.99,0h-.04Z"/>
      <path class="st0" d="M831.96,563.74c-7.31,16.27-15.87,32.07-25.67,47.27-13.59,21.18-29.54,41.2-47.63,59.73-218.52,19.16-438.3,19.16-656.82,0-18.09-18.54-34.04-38.55-47.64-59.73-9.77-15.2-18.36-30.99-25.66-47.27,267,29.48,536.42,29.48,803.42,0h0Z"/>
      <g class="st5">
        <path d="M791.8,192.21c125.85,193.4,70.46,452.6-123.7,578.95-112.25,73.03-246.3,85.68-363.76,45.98,90.17,7.84,183.66-13.29,265.52-66.56,194.16-126.34,249.55-385.55,123.7-578.96-53.08-81.57-129.94-138.41-215.61-167.39,123.65,10.81,241.08,76.16,313.84,187.98h0Z"/>
      </g>
      <ellipse class="st1" cx="181.09" cy="348.59" rx="190.45" ry="134.21" transform="translate(-207.86 403.54) rotate(-70.59)"/>
    </g>
  </g>
</svg>