<?xml version="1.0" encoding="UTF-8"?>
<svg xmlns="http://www.w3.org/2000/svg" version="1.1" viewBox="0 0 659.29 223.58">
  <!-- Generator: Adobe Illustrator 29.1.0, SVG Export Plug-In . SVG Version: 2.1.0 Build 142)  -->
  <defs>
    <style>
      .st0 {
        fill: #fafafa;
      }

      .st1 {
        fill: #263238;
      }

      .st2 {
        opacity: .3;
      }

      .st3 {
        fill: #cfdde2;
      }

      .st4 {
        fill: #fff;
      }

      .st5 {
        fill: #e0e0e0;
      }

      .st6 {
        fill: #ff2532;
      }

      .st7 {
        fill: #2b2b2b;
      }

      .st8 {
        opacity: .5;
      }

      .st9 {
        fill: none;
        stroke: #2b2b2b;
        stroke-miterlimit: 10;
        stroke-width: 3px;
      }
    </style>
  </defs>
  <g id="Calque_3">
    <g>
      <path class="st7" d="M468.16,91.35c-2.02-.51-3.23-1.61-5.45-1.96-9.29-1.46-19.84-1.01-29.14-2.49-1.74-.28-3.26-.88-4.65-1.96-.66-1.27-1.25-2.68-1.81-4-.25-.58.01-1.61-.6-1.61.22-1.21-.61-.77-1.38-.8-3.13-.12-6.3.09-9.43,0-.02.4.01.8,0,1.2-.14,4.66.1,9.35,0,14.01h-1.6c-.15-4.52.2-9.1,0-13.61-.02-.51.21-1.94-.23-2.01-5.93.54-13.02-.7-18.8,0-1.01.12-2.81.7-3.39,1.61-2.49.22-5.33,1.71-7.92,2.29-7.67,1.73-11.63-.09-18.51-3.09-3.67-1.6-2.69-1.08-4.18-1.62-5.65-2.03-7.63-2.1-8.79-4.03-.23-.39-1.13-2.03-.58-3.59.91-2.57,4.99-2.77,5.19-4.96.09-.93-.61-1.44-.25-1.99.65-1,3.25.2,3.8-.6.62-.9-1.91-3.64-2.26-4.02-3.31-3.62-4.86-7.86-7.95-16.34-2.06-5.66-4.21-11.78-1.82-15.68.58-.94,1.89-2.52,3.88-3.56.89-.47,2.12-1.06,3.49-.71.49.13.98.39,1.47.85.8.75,1.74,3.56,2.05,3.78.43.3,5.47-2.31,5.17,3.02-.1,1.82-1.27,2.66-1.54,3.72-.28,1.12,1.98,7.83,2.65,9.18.2.39,1.86,3.17,2.47,2.53-9.29-26.2,14.14-51.08,40.93-43.53,14.24,4.01,25.04,17.94,24.76,32.93-.04,2.24-1.24,5.68-1.17,7.62.03.89.94,2.04,1.11,3.22,1.16,8.24-3.1,16.76-12.2,16.99-1.25.03-2.35-.58-3.49-.35-1.33.27-4.03,2.71-5.89,2.76-.2.29.68,2.29.79,2.38.66.56.83-.66,1.29-.92,5.82-3.28,7.19,6.69,6.71,10.53.28.27,5.5-.29,6.52,0,.39.11.47.88.91,1.16,1.36.86,4.25.32,5.97.45,6.81.51,16.37.48,22.73,1.69,3.05.58,5.79,2.75,7.67,5.15,1.16,1.47,1.63,3.75,3.44,4.37v2ZM396.29,3.66c12.96,0,25.72,15.95,26.62,28.23.17,2.38-.33,4.67-.19,7.01.48-.03,1.7-.19,1.81-.68.25-1.08.1-6.15-.02-7.53-1.18-13.24-15.45-29.51-29.42-28.63-1.31.08-4.17.55-5.01,1.59h6.21ZM414.51,8.66c8.38,7.33,12.45,18.83,11.61,29.83,1.87-.23,3.29.71,4.8,1.6,3.18-12.78-3.36-26.69-14.44-33.4-2.95-1.78-6.95-3.7-10.38-3.83,2.71,2.06,5.83,3.54,8.41,5.8ZM383.4,16.4c7.99-4.8,18.88-1.63,27.1,1.08-4.39-5.61-13.02-9.65-20.16-8.96s-15.44,8.2-17.18,14.85c-.62,2.37-1.2,5.99.51,7.93,1.51-5.22,4.97-12.03,9.74-14.89ZM414.89,40.28c3.48-1.2,3.77-8.07.13-8.9-7.67-1.75-7.5,11.44-.13,8.9ZM417.81,57.02c-1.37-7.49,5.06-16.28,13.12-14.12-3.37-5.11-9.61-2.51-12.8,1.42-3.41,4.19-5.47,12.86.79,15.4-.13-1.03-.9-1.58-1.11-2.69ZM412.24,44.5c.92-.52-.11-2.23-1.74-1.41-.63.32-1.12,1.85-.79,2.21.09.1,2.36-.7,2.53-.8ZM422.1,59.94c7.31,2.34,14.38-14.09,6.94-15.76-7.74-1.74-13.68,13.6-6.94,15.76ZM356.65,50.91c-.43.11-.76-.28-.6.6.27,1.51,8.14,11,9.41,11.01,1.31-3.52,5.04-6.15,7.81-8.63-2-3.3-4.34-6.72-7.96-8.16-1.72,3.6-5.17,4.32-8.66,5.17ZM407.05,58.06c-8.85,3.83-19.25,2.46-27.34-2.58-2.14-1.33-3.78-3.37-6.03-4.38,4.32,8.2,16.65,11.76,25.36,10.96,3.58-.33,11.38-2.72,13.88-5.34.54-.56,1.08-1.67.38-2.21-.28-.22-5.23,3.1-6.26,3.54ZM378.15,62.17c.33.19,1.22,1.01,1.42,1.13,2.4,1.37,3.31,2.29,6.11.81.2-.93-.13-.64-.51-.89-3.81-2.46-7.58-4.06-10.55-7.88-.33-.06-3.69,2.67-3.35,3.17.22.32,5.93,3.13,6.88,3.66ZM393.29,64.31c4.41,1.16,10.48.81,14.9-.31,1-.25,7.65-2.73,7.91-3.11.35-.5-1.6-3.19-1.79-3.19-.32,0-3.39,2.21-4.19,2.62-2.82,1.44-8.73,3.39-11.82,3.39h-6.21c-.09.62.74.47,1.21.59ZM377.98,66.85c.58.36,2.49-.52,2.49-.93,0-.54-8.67-5.5-9.19-5.65-.93-.26-1.55.63-2.41.65l9.11,5.93ZM366.5,66.09c.41.57,8.37,2.8,9.57,1.63l-1.07-1.12-7.73-4.48c.16.94-1.25,3.29-.77,3.97ZM358.28,65.32c-.54,1.07-4.95,3.9-5.04,4.29-.33,1.33.87,3.98,1.84,4.89,1.75,1.65,5.23.4,7.49.91,1.95.44,5.58,3.63,8.1,3.91-.38-3.19-.66-6.68,1.39-9.4-2.38-1.1-4.85-1.49-7.2-2.79-2.66-1.47-3.99-4.3-7.2-3.81-.16.94,1.07,1.11.63,1.99ZM396.89,75.73c2.23.35,4.48.58,6.75.35.84-.52.49-8.15.05-9.56-2.03.5-4.49.58-6.6.4-2.57-.22-6.89-2.03-8.82-2.01-1.2,0-7.01,2.97-8.8,3.63s-3.52,1.19-5.41,1.39c-2.35,1.8-3.3,7.99-1.01,9.82,3.82,3.07,16.21-.84,20.25-3,1.48-.79,2.49-2.06,3.99-2.62l-.4,1.6ZM409.3,68.13c-.28,1.04-2.8,1.17-3.12,1.68s-.71,6.11-.48,6.33c.15.14,3.95.43,4.15.37.61-.2,2.11-5.01,2.18-5.89.38-4.72-2.82-5.52-6.72-4.49.08,2.95,1.68,1.85,4,2ZM432.82,84.85l30.53,2.9c.04-2.86-4.15-5.32-6.7-5.91l-27.33-1.69c.27,1.97,1.29,4.44,3.5,4.71Z"/>
      <ellipse class="st9" cx="351.7" cy="63.37" rx="4.76" ry="10.93" transform="translate(-4.05 97.34) rotate(-15.67)"/>
      <path class="st0" d="M397.29,74.13l-.4,1.6c2.23.35,4.48.58,6.75.35.84-.52.49-8.15.05-9.56-2.03.5-4.49.58-6.6.4-2.57-.22-6.89-2.03-8.82-2.01-1.2,0-7.01,2.97-8.8,3.63s-3.52,1.19-5.41,1.39c-2.35,1.8-3.3,7.99-1.01,9.82,3.82,3.07,16.21-.84,20.25-3,1.48-.79,2.49-2.06,3.99-2.62Z"/>
      <path class="st0" d="M362.46,28.08c-.09-.09-1.74-.03-2.12.08-.81.25-1.21,1.38-1.9,1.7-1.08.51-2.86.4-3.98,1.42-.14-3.06,3.89-1.45,3.01-4.41-.59-1.96-1.52-3.64-3.71-2.89-10.17,3.5-.34,18.56,1.16,25.05l.56.61c2.56-.13,8.38-2.27,8.92-5.05.16-.84-3.52-8.6-3.57-10.73-.04-1.35,2.62-4.8,1.63-5.79Z"/>
      <path class="st0" d="M406.1,2.87c2.71,2.06,5.83,3.54,8.41,5.8,8.38,7.33,12.45,18.83,11.61,29.83,1.87-.23,3.29.71,4.8,1.6,3.18-12.78-3.36-26.69-14.44-33.4-2.95-1.78-6.95-3.7-10.38-3.83Z"/>
      <path class="st0" d="M429.04,44.18c-7.74-1.74-13.68,13.6-6.94,15.76,7.31,2.34,14.38-14.09,6.94-15.76Z"/>
      <path class="st0" d="M365.32,45.74c-1.72,3.6-5.17,4.32-8.66,5.17-.43.11-.76-.28-.6.6.27,1.51,8.14,11,9.41,11.01,1.31-3.52,5.04-6.15,7.81-8.63-2-3.3-4.34-6.72-7.96-8.16Z"/>
      <path class="st0" d="M390.09,3.66h6.21c12.96,0,25.72,15.95,26.62,28.23.17,2.38-.33,4.67-.19,7.01.48-.03,1.7-.19,1.81-.68.25-1.08.1-6.15-.02-7.53-1.18-13.24-15.45-29.51-29.42-28.63-1.31.08-4.17.55-5.01,1.59Z"/>
      <path class="st0" d="M413.31,54.51c-.28-.22-5.23,3.1-6.26,3.54-8.85,3.83-19.25,2.46-27.34-2.58-2.14-1.33-3.78-3.37-6.03-4.38,4.32,8.2,16.65,11.76,25.36,10.96,3.58-.33,11.38-2.72,13.88-5.34.54-.56,1.08-1.67.38-2.21Z"/>
      <path class="st0" d="M418.91,59.71c-.13-1.03-.9-1.58-1.11-2.69-1.37-7.49,5.06-16.28,13.12-14.12-3.37-5.11-9.61-2.51-12.8,1.42-3.41,4.19-5.47,12.86.79,15.4Z"/>
      <path class="st0" d="M415.03,31.38c-7.67-1.75-7.5,11.44-.13,8.9,3.48-1.2,3.77-8.07.13-8.9Z"/>
      <path class="st0" d="M405.3,66.12c.08,2.95,1.68,1.85,4,2-.28,1.04-2.8,1.17-3.12,1.68s-.71,6.11-.48,6.33c.15.14,3.95.43,4.15.37.61-.2,2.11-5.01,2.18-5.89.38-4.72-2.82-5.52-6.72-4.49Z"/>
      <path class="st0" d="M392.09,63.72c-.09.62.74.47,1.21.59,4.41,1.16,10.48.81,14.9-.31,1-.25,7.65-2.73,7.91-3.11.35-.5-1.6-3.19-1.79-3.19-.32,0-3.39,2.21-4.19,2.62-2.82,1.44-8.73,3.39-11.82,3.39h-6.21Z"/>
      <path class="st0" d="M371.27,58.51c.22.32,5.93,3.13,6.88,3.66.33.19,1.22,1.01,1.42,1.13,2.4,1.37,3.31,2.29,6.11.81.2-.93-.13-.64-.51-.89-3.81-2.46-7.58-4.06-10.55-7.88-.33-.06-3.69,2.67-3.35,3.17Z"/>
      <path class="st0" d="M391.69,79.74c5.45-.48,14.29-.35,19.84-.02.89.05,1.71.34,2.59.42-.02-.51.21-1.94-.23-2.01-5.93.54-13.02-.7-18.8,0-1.01.12-2.81.7-3.39,1.61Z"/>
      <path class="st0" d="M367.27,62.12c.16.94-1.25,3.29-.77,3.97.41.57,8.37,2.8,9.57,1.63l-1.07-1.12-7.73-4.48Z"/>
      <path class="st0" d="M368.87,60.92l9.11,5.93c.58.36,2.49-.52,2.49-.93,0-.54-8.67-5.5-9.19-5.65-.93-.26-1.55.63-2.41.65Z"/>
      <path class="st0" d="M365.26,78.93c-1.57-.68-2.35-1.44-4.18-1.62-3.09-.31-6.68.27-9.83.02-.03.53.03,1.07,0,1.6h14.01Z"/>
      <path class="st0" d="M337.64,79.33c.15.14,1.22.08,1.63-.26.84-.71.85-2.7.77-3.74-1.4-.22-3.02,3.4-2.4,4Z"/>
      <path class="st0" d="M426.52,79.34c.22-1.21-.61-.77-1.38-.8-3.13-.12-6.3.09-9.43,0-.02.4.01.8,0,1.2.38-.76.55-.77,1.36-.83,2.14-.15,6.43-.25,8.47,0,.76.09.51.63.66.74.1.07.27-.3.31-.3Z"/>
      <path class="st0" d="M409.71,45.3c.09.1,2.36-.7,2.53-.8.92-.52-.11-2.23-1.74-1.41-.63.32-1.12,1.85-.79,2.21Z"/>
      <path class="st0" d="M373.67,31.29c1.51-5.22,4.97-12.03,9.74-14.89,7.99-4.8,18.88-1.63,27.1,1.08-4.39-5.61-13.02-9.65-20.16-8.96s-15.44,8.2-17.18,14.85c-.62,2.37-1.2,5.99.51,7.93Z"/>
      <path class="st0" d="M357.66,63.32c-.16.94,1.07,1.11.63,1.99-.54,1.07-4.95,3.9-5.04,4.29-.33,1.33.87,3.98,1.84,4.89,1.75,1.65,5.23.4,7.49.91,1.95.44,5.58,3.63,8.1,3.91-.38-3.19-.66-6.68,1.39-9.4-2.38-1.1-4.85-1.49-7.2-2.79-2.66-1.47-3.99-4.3-7.2-3.81Z"/>
    </g>
  </g>
  <g id="Voiture">
    <g>
      <g>
        <polygon class="st1" points="303.23 45.98 324.41 74.04 273.83 78.77 303.23 45.98"/>
        <path class="st6" d="M30.75,184.17c1.23,1.23,285.41,8.02,285.41,8.02l295.34-12.34v-63.17l-25-20.84-72.52-13.3s-414.11.03-416.58-.09c-2.47-.11-72.82,42.03-72.82,42.03l6.17,59.69Z"/>
        <g class="st8">
          <path d="M30.75,184.17c1.23,1.23,285.41,8.02,285.41,8.02l295.34-12.34v-63.17l-25-20.84-72.52-13.3s-414.11.03-416.58-.09c-2.47-.11-72.82,42.03-72.82,42.03l6.17,59.69Z"/>
        </g>
        <path class="st3" d="M244.87,69.63s4.33-1.64,22.29-14.64c17.96-13,43.14-28.52,52.83-35.38,9.69-6.85,26.7-10.1,26.7-10.1l-72.52,58.69-29.3,1.42Z"/>
        <g>
          <path class="st6" d="M249.84,65.86h0c-1.44-.08-1.21-.07,0,0Z"/>
          <path class="st6" d="M640.29,84.74l2.3-14.97c-9.21,1.73-59.88-6.33-59.88-6.33,0,0-29.37-16.12-65.64-29.37-36.28-13.24-70.25-22.16-70.25-22.16l-9.21,55.95s-1.59-.01-10.36,1.34c-16.09,2.48-141.33.57-142.22.58,0,0,73.13-52.97,73.13-57.86s-5.76-4.9-11.52-3.17-77.16,58.16-77.16,58.16c-1.82-.05-15.77-.82-19.64-1.04-.04,0-95.53-2.42-126.04,2.76-30.52,5.18-39.73,3.45-73.7,21.3C16.12,107.78,6.91,122.75,6.91,122.75v43.19l-6.91,17.27c1.15,5.76,36.85,6.33,36.85,6.33l9,.2c-4.34-8.53-6.8-18.17-6.8-28.39,0-34.61,28.06-62.68,62.68-62.68s62.68,28.06,62.68,62.68c0,11.21-2.96,21.73-8.12,30.83l10.7.24,291.93,5.18,7.74-.44c-3.48-8.09-5.41-17-5.41-26.36,0-36.89,29.91-66.8,66.8-66.8s66.8,29.91,66.8,66.8c0,6.59-.97,12.95-2.75,18.97l46.47-6.56s9.21-9.21,12.09-12.67,8.64-54.13,8.64-59.31-19-26.49-19-26.49Z"/>
        </g>
        <path class="st5" d="M10.59,121.43c.6.19,19.15-5.97,27.94-12.87s12.87-12.24,13.34-12.24-9.51-1.08-14.44,0c-4.93,1.08-33.44,23.08-26.84,25.12Z"/>
        <path class="st1" d="M157.99,113.05s-.09-.07-.25-.22c-.18-.17-.41-.4-.7-.69-.63-.59-1.47-1.55-2.71-2.63-2.38-2.25-6.05-5.3-10.98-8.47-1.21-.83-2.57-1.54-3.95-2.36-1.39-.79-2.89-1.51-4.42-2.29-3.13-1.43-6.52-2.87-10.23-4-7.38-2.33-15.89-3.71-24.82-3.47-8.93.33-17.34,2.24-24.56,5.04-3.63,1.36-6.92,3.02-9.96,4.64-2.99,1.71-5.71,3.43-8.06,5.17-4.72,3.47-8.18,6.75-10.42,9.15-1.16,1.16-1.94,2.17-2.54,2.8-.27.3-.49.55-.66.73-.15.16-.23.24-.24.24,0,0,.06-.1.2-.27.16-.19.36-.45.62-.76.57-.65,1.33-1.69,2.47-2.87,2.19-2.45,5.63-5.78,10.35-9.3,2.35-1.77,5.07-3.52,8.07-5.25,3.04-1.65,6.35-3.33,10-4.71,7.25-2.84,15.71-4.78,24.71-5.11,9-.24,17.57,1.16,24.98,3.54,3.73,1.15,7.13,2.61,10.27,4.07,1.54.79,3.04,1.53,4.43,2.33,1.38.83,2.74,1.56,3.95,2.4,4.93,3.22,8.57,6.33,10.92,8.63,1.22,1.11,2.04,2.09,2.65,2.71.28.3.5.54.67.72.15.16.22.25.21.26Z"/>
        <g class="st2">
          <path d="M177.91,105.55s-15.5-8.68-7.95-9.71c7.55-1.02,45.3,0,45.3,0,0,0-32.59,9.71-34.97,9.71"/>
        </g>
        <path class="st1" d="M437.61,67.86s1.33-.13,3.85.02c1.26.08,2.82.23,4.64.59,1.81.36,3.9.94,5.99,2.16,2.02,1.26,4.38,2.65,6.23,4.97,1.89,2.29,2.89,5.46,3.27,8.85.81,6.84-.96,14.64-3.96,22.65-1.5,4.02-3.26,8.17-5.36,12.35-2.08,4.19-4.4,8.49-7.04,12.79-2.61,4.31-5.48,8.68-8.66,13.01-1.55,2.2-3.25,4.32-4.94,6.52-1.78,2.14-3.84,4.09-6.16,5.76-4.67,3.28-10.08,5.65-15.78,7.34-5.7,1.71-11.67,2.9-17.79,3.72-12.24,1.65-25.04,2.08-38.11,2.14-26.16-.28-51.07.14-73.74-.06-22.66-.17-43.07-.32-60.21-.45-17.13-.19-30.99-.34-40.59-.45-4.78-.07-8.5-.12-11.03-.15-1.25-.02-2.21-.04-2.87-.05-.65-.01-.98-.03-.98-.03,0,0,.33-.02.98-.02.66,0,1.62,0,2.87,0,2.54.01,6.25.03,11.04.05,9.6.07,23.46.16,40.59.28,17.14.1,37.55.21,60.21.34,22.66.17,47.58-.26,73.73.01,13.06-.06,25.84-.49,38.05-2.12,6.1-.81,12.04-2,17.71-3.69,5.66-1.67,11.03-4.02,15.64-7.25,2.28-1.65,4.31-3.56,6.07-5.66,1.68-2.19,3.38-4.31,4.93-6.49,3.18-4.32,6.05-8.67,8.66-12.96,2.64-4.28,4.96-8.56,7.04-12.74,2.1-4.17,3.87-8.3,5.37-12.3,3.01-7.98,4.79-15.71,4.01-22.49-.37-3.35-1.34-6.47-3.18-8.72-1.81-2.28-4.14-3.68-6.15-4.95-2.05-1.22-4.12-1.81-5.92-2.19-1.8-.37-3.36-.54-4.61-.64-1.26-.09-2.22-.12-2.86-.12-.65,0-.98,0-.98,0Z"/>
        <g class="st2">
          <circle cx="420.38" cy="82.54" r="9.78" transform="translate(246.89 474.24) rotate(-77.22)"/>
        </g>
        <path class="st3" d="M445.32,18.02c1.53.04,40.25,12.29,41.52,16.72,1.26,4.43-6.96,23.08-19.28,26.24-12.33,3.16-29.95,3.08-29.95,3.08l7.71-46.04Z"/>
        <path class="st1" d="M601.55,136.31s-.08-.12-.23-.38c-.15-.27-.35-.65-.61-1.12-.27-.5-.6-1.11-.98-1.83-.19-.36-.4-.75-.62-1.17-.23-.41-.51-.83-.79-1.28-.57-.91-1.2-1.91-1.88-3.01-.72-1.08-1.58-2.2-2.46-3.43-.85-1.26-1.95-2.45-3.04-3.78-1.06-1.35-2.36-2.63-3.67-4.01-1.27-1.42-2.82-2.69-4.33-4.12-.75-.73-1.61-1.35-2.44-2.04-.85-.67-1.69-1.38-2.59-2.05-.92-.64-1.85-1.3-2.8-1.96-.48-.33-.94-.68-1.44-1-.5-.31-1.01-.61-1.52-.93-1.02-.61-2.04-1.27-3.11-1.87-1.09-.57-2.19-1.15-3.3-1.73-1.1-.62-2.29-1.09-3.46-1.62-1.18-.51-2.35-1.09-3.61-1.51-1.24-.45-2.49-.91-3.75-1.38-1.29-.38-2.59-.76-3.91-1.14-5.29-1.41-10.91-2.35-16.72-2.61-5.81-.17-11.49.34-16.87,1.36-1.34.29-2.67.57-3.98.85-1.29.37-2.57.73-3.84,1.09-1.28.32-2.49.82-3.71,1.24-1.21.45-2.43.82-3.57,1.36-1.16.5-2.3.99-3.42,1.48-1.11.52-2.17,1.1-3.24,1.64-.53.27-1.06.54-1.58.81-.52.28-1.01.59-1.51.89-.99.59-1.97,1.18-2.94,1.75-.94.6-1.84,1.25-2.73,1.86-.88.62-1.79,1.18-2.59,1.85-1.61,1.31-3.25,2.46-4.63,3.79-1.41,1.28-2.8,2.46-3.96,3.73-1.18,1.25-2.37,2.35-3.31,3.54-.97,1.16-1.91,2.22-2.71,3.24-.77,1.04-1.47,2-2.1,2.86-.31.43-.63.83-.89,1.22-.25.4-.49.77-.71,1.12-.44.69-.81,1.27-1.12,1.75-.3.46-.53.81-.7,1.07-.16.24-.25.36-.25.36,0,0,.06-.13.21-.38.16-.27.38-.63.65-1.1.3-.49.66-1.08,1.08-1.78.21-.35.45-.73.69-1.14.26-.4.56-.8.87-1.24.62-.87,1.32-1.84,2.07-2.9.79-1.03,1.72-2.1,2.69-3.28.93-1.2,2.12-2.33,3.29-3.59,1.16-1.28,2.54-2.47,3.95-3.77,1.37-1.34,3.02-2.5,4.63-3.83.8-.68,1.71-1.24,2.59-1.87.9-.61,1.79-1.27,2.74-1.88.97-.58,1.95-1.17,2.94-1.77.5-.3,1-.61,1.51-.9.53-.27,1.05-.54,1.59-.82,1.07-.54,2.14-1.13,3.25-1.66,1.13-.49,2.28-.99,3.44-1.5,1.15-.54,2.37-.93,3.59-1.38,1.22-.43,2.44-.92,3.73-1.25,1.28-.37,2.56-.73,3.87-1.11,1.32-.28,2.66-.57,4.01-.86,5.42-1.03,11.13-1.55,16.99-1.38,5.85.26,11.51,1.21,16.83,2.64,1.32.39,2.63.77,3.93,1.16,1.27.47,2.53.93,3.77,1.39,1.26.42,2.44,1.01,3.63,1.53,1.18.54,2.37,1.02,3.48,1.64,1.12.59,2.23,1.18,3.32,1.75,1.07.61,2.09,1.27,3.12,1.89.51.31,1.02.63,1.52.94.5.32.96.67,1.44,1.01.95.67,1.88,1.34,2.8,1.99.9.68,1.74,1.4,2.59,2.08.83.7,1.7,1.33,2.44,2.06,1.51,1.44,3.06,2.73,4.33,4.17,1.31,1.4,2.6,2.69,3.66,4.06,1.08,1.34,2.18,2.55,3.02,3.82.87,1.24,1.72,2.38,2.44,3.47.68,1.11,1.29,2.13,1.85,3.04.27.46.55.88.78,1.3.22.42.42.82.6,1.18.37.73.68,1.35.94,1.86.24.49.43.87.57,1.15.13.26.19.39.18.4Z"/>
        <path class="st4" d="M635.64,83.81s-26.33.2-30.72,9.36l13.19,7.27s31.76.88,31.12,0c-.64-.88-13.58-16.63-13.58-16.63Z"/>
        <g class="st2">
          <path d="M560.57,60.61c-1.44-.77-63.65-3.75-63.65-3.75,0,0,64.48,7.32,72.66,7.75,8.18.43,35.33,3.23,35.33,3.23l-44.34-7.23Z"/>
        </g>
        <g>
          <path class="st6" d="M322.31,50.05c-.9-2.54-3.44-4.1-6.12-3.79-7.1.83-24.58,3.96-22.56,15.53,2.49,14.3,24.48,7.83,24.48,7.83,0,0,4.66-4.69,4.98-13.36.1-2.7-.25-4.72-.78-6.22Z"/>
          <path class="st1" d="M322.31,50.05s.07.11.15.35c.09.24.2.59.32,1.07.24.95.46,2.38.45,4.21-.03,1.83-.22,4.07-.93,6.53-.74,2.44-1.91,5.16-4.04,7.57l-.04.04-.06.02c-3.26.89-6.94,1.52-10.9,1.49-1.97-.02-4.02-.24-6.04-.83-1.01-.3-1.99-.73-2.93-1.26-.93-.55-1.78-1.26-2.52-2.08-1.03-1.18-1.73-2.61-2.14-4.06-.39-1.46-.57-2.98-.35-4.45.22-1.47.82-2.84,1.65-3.98.83-1.15,1.86-2.1,2.95-2.87,2.19-1.56,4.56-2.53,6.79-3.29,2.24-.75,4.39-1.25,6.35-1.62,1.97-.37,3.76-.62,5.35-.77,1.64-.12,3.01.45,3.91,1.13.91.69,1.41,1.44,1.67,1.97.27.53.32.84.32.84-.03.01-.12-.29-.41-.79-.29-.5-.8-1.22-1.7-1.86-.89-.63-2.22-1.15-3.77-1.01-1.56.18-3.35.46-5.31.85-1.95.4-4.08.91-6.29,1.67-2.2.77-4.53,1.75-6.65,3.27-2.1,1.49-3.98,3.74-4.37,6.54-.35,2.75.45,5.85,2.38,8.1.7.78,1.5,1.44,2.39,1.97.9.51,1.84.92,2.81,1.21,1.95.58,3.95.8,5.89.83,3.89.04,7.55-.57,10.76-1.41l-.09.06c2.05-2.29,3.26-4.98,4-7.36.73-2.42.95-4.63,1.02-6.43.05-1.81-.13-3.23-.33-4.18-.19-.95-.37-1.44-.34-1.45Z"/>
        </g>
        <g class="st2">
          <path d="M152.39,124.48c7.54,10.35,12,23.08,12,36.87,0,11.21-2.96,21.73-8.12,30.83l10.7.24,291.93,5.18,7.74-.44c-3.48-8.09-5.41-17-5.41-26.36,0-17.99,7.13-34.31,18.69-46.32l-60.91,36.56-3.34,1.27c-14.2,5.39-29.27,8.12-44.46,8.05l-176.61-.86-42.23-45.02Z"/>
        </g>
        <path class="st1" d="M238.51,169.27s-.06-.09-.14-.27c-.1-.21-.22-.47-.37-.81-.33-.75-.79-1.79-1.38-3.13-.6-1.37-1.32-3.04-2.16-4.96-.38-.98-.74-2.09-.96-3.26-.27-1.17-.49-2.42-.69-3.73-.83-5.25-1.48-11.54-2.02-18.54-.52-7-.91-14.71-1-22.81-.07-8.1.12-15.84,1.05-22.82.55-3.47,1.26-6.79,2.64-9.63,1.34-2.85,3.05-5.26,4.89-7.2,1.88-1.91,3.84-3.34,5.65-4.44,1.82-1.09,3.5-1.8,4.89-2.34,2.8-1.02,4.44-1.24,4.44-1.24,0,0-.09.04-.29.1-.22.06-.5.14-.85.24-.75.21-1.85.56-3.23,1.09-1.36.57-3.02,1.3-4.81,2.4-1.77,1.11-3.7,2.55-5.53,4.44-1.8,1.93-3.47,4.31-4.77,7.12-1.34,2.81-2.02,6.08-2.56,9.52-.9,6.94-1.07,14.66-1,22.75.09,8.09.46,15.79.96,22.78.5,6.99,1.12,13.28,1.9,18.52.19,1.31.39,2.55.65,3.72.12.58.22,1.16.4,1.68.18.53.27,1.06.5,1.54.8,1.94,1.5,3.61,2.07,4.99.55,1.35.98,2.41,1.29,3.16.13.34.24.61.32.83.07.19.1.29.09.29Z"/>
        <g>
          <path class="st6" d="M440.08,86.3h-39.4c-2.08,0-3.76-1.68-3.76-3.76h0c0-2.08,1.68-3.76,3.76-3.76h39.4c2.08,0,3.76,1.68,3.76,3.76h0c0,2.08-1.68,3.76-3.76,3.76Z"/>
          <path class="st1" d="M440.08,86.3s.37,0,1.01-.2c.63-.19,1.58-.69,2.2-1.81.29-.56.48-1.26.41-2.02-.06-.76-.37-1.57-.99-2.21-.61-.64-1.51-1.09-2.52-1.11-1.04,0-2.14,0-3.3.01-9.3.02-22.09.05-36.21.08-.83,0-1.63.3-2.26.82-.63.52-1.05,1.27-1.19,2.05-.15.79,0,1.62.37,2.31.38.69,1,1.24,1.71,1.55.72.32,1.51.27,2.34.28.82,0,1.63,0,2.43,0,1.6,0,3.17,0,4.71,0,6.12.02,11.63.04,16.28.06,4.6.03,8.34.06,10.97.08,1.26.02,2.26.04,2.98.05.32.01.57.02.78.03.17,0,.26.02.26.03s-.09.02-.26.03c-.2,0-.46.02-.78.03-.72.01-1.72.03-2.98.05-2.63.02-6.37.05-10.97.08-4.65.02-10.16.03-16.28.06-1.53,0-3.1,0-4.71,0-.8,0-1.61,0-2.43,0-.42,0-.8.01-1.25-.01-.44-.03-.88-.13-1.29-.3-.82-.35-1.53-.97-1.97-1.77-.43-.8-.6-1.75-.43-2.65.16-.9.65-1.76,1.36-2.36.71-.6,1.65-.95,2.59-.95,14.12.03,26.91.06,36.21.08,1.16,0,2.26.02,3.31.02,1.09.04,2.07.54,2.72,1.25.66.7.98,1.58,1.03,2.39.06.82-.16,1.56-.48,2.14-.68,1.17-1.69,1.65-2.35,1.81-.68.16-1.04.1-1.04.1Z"/>
        </g>
        <g>
          <path class="st1" d="M43.28,160.21c-.46,31.74,24.9,57.83,56.64,58.29,31.74.46,57.84-24.9,58.29-56.63.46-31.74-24.9-57.84-56.64-58.29-31.74-.46-57.84,24.9-58.29,56.64Z"/>
          <path class="st1" d="M43.29,160.06s0,.1-.01.15c-.46,31.74,24.9,57.83,56.64,58.29,31.74.46,57.84-24.9,58.29-56.63,0-.05,0-.1,0-.15l-114.91-1.66Z"/>
          <path class="st0" d="M60.4,160.46c-.32,22.28,17.48,40.6,39.76,40.93,22.28.32,40.6-17.48,40.93-39.76.32-22.28-17.48-40.6-39.76-40.93-22.28-.32-40.6,17.48-40.92,39.76Z"/>
          <path class="st5" d="M101.32,120.7c-22.28-.32-40.6,17.48-40.92,39.76l80.69,1.16c.32-22.28-17.48-40.6-39.76-40.93Z"/>
          <path class="st1" d="M76.17,160.69c-.2,13.57,10.65,24.73,24.22,24.93,13.57.2,24.73-10.65,24.93-24.22.2-13.57-10.65-24.73-24.22-24.93-13.57-.2-24.73,10.65-24.93,24.22Z"/>
        </g>
        <g>
          <circle class="st1" cx="521.39" cy="166.11" r="57.47" transform="translate(335.5 680.78) rotate(-87.81)"/>
          <path class="st1" d="M463.94,165.13s0,.1-.01.15c-.46,31.74,24.9,57.83,56.64,58.29,31.74.46,57.84-24.9,58.29-56.63,0-.05,0-.1,0-.15l-114.91-1.66Z"/>
          <path class="st0" d="M481.05,165.53c-.32,22.28,17.48,40.6,39.76,40.93,22.28.32,40.6-17.48,40.93-39.76.32-22.28-17.48-40.6-39.76-40.93-22.28-.32-40.6,17.48-40.92,39.76Z"/>
          <path class="st5" d="M521.98,125.76c-22.28-.32-40.6,17.48-40.92,39.76l80.69,1.16c.32-22.28-17.48-40.6-39.76-40.93Z"/>
          <path class="st1" d="M496.82,165.75c-.2,13.57,10.65,24.73,24.22,24.93,13.57.2,24.73-10.65,24.93-24.22.2-13.57-10.65-24.73-24.22-24.93-13.57-.2-24.73,10.65-24.93,24.22Z"/>
        </g>
      </g>
      <path class="st4" d="M169.28,97.09s-.64,0,.4,1.2,3.37,4.41,5.53,3.93c2.16-.48,12.74-4.41,10.9-5.13-1.84-.72-15.82-1.18-16.83,0Z"/>
      <g class="st2">
        <path d="M594.84,170.8l58.29-9.76-2.47,9.5-12.09,12.67-46.47,6.56s2.88-14.81,2.75-18.97Z"/>
      </g>
      <g class="st2">
        <path d="M45.85,189.74c-3.01-4.73-6.33-20.7-6.33-20.7l-32.61-3.1-6.91,17.27s1.24,3.91,15.88,5.01c14.64,1.11,29.97,1.52,29.97,1.52Z"/>
      </g>
    </g>
    <path d="M68.93,80.69c31.04-14.5,73.13-18.63,107.12-16.66,5.19.4,10.37.89,15.53,1.63v.4c-5.17.03-10.33,0-15.5.08-25.76.55-51.64,2.85-76.98,7.54-10.12,1.94-20.24,4.18-30.04,7.39,0,0-.14-.38-.14-.38h0Z"/>
  </g>
  <g id="Traits">
    <g>
      <path class="st1" d="M325.44,116.17c0,.14-9.71.26-21.68.26s-21.68-.12-21.68-.26,9.7-.26,21.68-.26,21.68.12,21.68.26Z"/>
      <path class="st1" d="M338.19,122.13c0,.14-9.71.26-21.68.26s-21.68-.12-21.68-.26,9.7-.26,21.68-.26,21.68.12,21.68.26Z"/>
    </g>
  </g>
</svg>